<svg width="114" height="41" viewBox="0 0 114 41" fill="none" xmlns="http://www.w3.org/2000/svg">
<mask id="path-1-outside-1_940_119731" maskUnits="userSpaceOnUse" x="-2.14258" y="-1" width="118" height="44" fill="black">
<rect fill="white" x="-2.14258" y="-1" width="118" height="44"/>
<path d="M12.9886 34.543C11.3597 34.543 9.29339 34.2413 6.78968 33.638C5.22109 34.0603 3.75808 34.2715 2.40065 34.2715C1.04322 34.2715 0.258926 34.2262 0.0477696 34.1357C0.258926 32.3258 1.1488 27.8765 2.71739 20.7877C4.31614 13.6687 5.11551 9.20425 5.11551 7.39434C5.11551 7.03235 4.91944 6.54971 4.52729 5.94641C4.13515 5.34311 3.743 4.8303 3.35085 4.40798L2.76263 3.77452L2.89838 3.0958C6.85001 2.28134 11.1033 1.87411 15.6582 1.87411C18.1619 1.87411 20.2132 2.47742 21.8119 3.68402C23.4408 4.86046 24.2553 6.51955 24.2553 8.66127C24.2553 12.7939 21.7365 15.6596 16.6989 17.2583C18.72 17.4997 20.4092 18.2689 21.7667 19.566C23.1543 20.8329 23.8481 22.6277 23.8481 24.9505C23.8481 27.786 22.8225 30.0936 20.7712 31.8734C18.72 33.6531 16.1258 34.543 12.9886 34.543ZM12.1742 18.48C11.3295 18.48 10.5754 18.5554 9.91177 18.7063C8.61467 24.4376 7.78513 28.4345 7.42315 30.6969C8.17728 31.2097 9.35372 31.4661 10.9525 31.4661C12.5814 31.4661 13.969 30.8327 15.1153 29.5657C16.2615 28.2686 16.8347 26.4135 16.8347 24.0003C16.8347 20.3201 15.2812 18.48 12.1742 18.48ZM14.708 4.67947C13.5618 4.67947 12.883 4.78505 12.6719 4.99621C12.2496 7.71107 11.5558 11.2706 10.5905 15.6747C11.7971 15.6747 12.6417 15.5993 13.1244 15.4484C13.607 15.2976 14.0293 15.1015 14.3913 14.8602C14.7834 14.6189 15.2208 14.2418 15.7035 13.729C16.7593 12.6129 17.2872 10.8332 17.2872 8.38978C17.2872 5.91624 16.4274 4.67947 14.708 4.67947ZM25.9666 26.1721C25.9666 22.4015 27.0978 19.4302 29.3602 17.2583C31.6527 15.0563 34.2469 13.9553 37.1428 13.9553C38.9225 13.9553 40.3855 14.3927 41.5318 15.2674C42.6781 16.1422 43.2512 17.3187 43.2512 18.7968C43.2512 20.2447 42.8742 21.4664 42.12 22.4618C41.3961 23.4573 40.5062 24.2265 39.4504 24.7695C37.3087 25.8252 35.3479 26.4889 33.5682 26.7604L32.4823 26.8961C32.6934 29.7316 33.8548 31.1494 35.9663 31.1494C36.6903 31.1494 37.4595 30.9684 38.274 30.6064C39.0884 30.2444 39.7219 29.8825 40.1744 29.5205L40.8531 28.9775L41.939 30.4254C41.6977 30.7572 41.2151 31.1946 40.4911 31.7376C39.7671 32.2806 39.0884 32.7331 38.455 33.095C36.7054 34.0603 34.7899 34.543 32.7085 34.543C30.6271 34.543 28.9831 33.8039 27.7765 32.3258C26.5699 30.8477 25.9666 28.7965 25.9666 26.1721ZM32.437 24.679C33.9754 24.4075 35.1971 23.7589 36.1021 22.7333C37.007 21.7077 37.4595 20.3804 37.4595 18.7515C37.4595 17.1226 36.9769 16.3081 36.0116 16.3081C34.8653 16.3081 33.9754 17.2885 33.342 19.2492C32.7387 21.1798 32.437 22.9897 32.437 24.679ZM66.4909 14.4982C66.4306 15.1619 66.1591 16.0367 65.6764 17.1226C64.5301 17.0019 63.399 16.9416 62.2828 16.9416H62.1019C61.4684 24.3924 60.8802 29.8975 60.3372 33.457C59.7942 37.0165 59.0853 39.5051 58.2105 40.9229C57.1246 40.8927 55.9934 40.7419 54.817 40.4704C53.6707 40.2291 52.8864 39.9727 52.4641 39.7012C53.188 37.469 53.912 34.1056 54.636 29.611C55.3901 25.1164 55.8727 20.9687 56.0839 17.1678C55.2393 17.2282 54.3042 17.3338 53.2785 17.4846C53.188 17.0924 53.1428 16.7003 53.1428 16.3081C53.1428 15.8858 53.2031 15.2825 53.3238 14.4982H56.2196C56.28 11.8739 56.4157 9.88296 56.6269 8.52553C56.9889 6.11232 57.8184 4.227 59.1155 2.86956C60.4428 1.48197 62.1471 0.788168 64.2285 0.788168C65.5558 0.788168 66.5965 1.08982 67.3506 1.69312C68.1349 2.26626 68.527 3.1863 68.527 4.45323C68.527 5.72017 67.9539 7.36417 66.8076 9.38524C65.6613 11.3761 64.1531 13.0805 62.2828 14.4982H66.4909ZM62.3733 11.6476C63.5498 10.6522 64.4698 9.55114 65.1334 8.34454C65.7971 7.13793 66.1289 6.05199 66.1289 5.0867C66.1289 4.09125 65.8122 3.59353 65.1787 3.59353C63.8514 3.59353 63.0068 5.11687 62.6448 8.16355C62.5242 9.18916 62.4337 10.3505 62.3733 11.6476ZM70.0188 34.543C68.9932 34.543 68.1335 34.1961 67.4397 33.5023C66.776 32.8085 66.4442 31.8432 66.4442 30.6064C66.4442 29.3395 67.1833 25.3426 68.6614 18.6158C70.1696 11.8588 70.9237 6.98711 70.9237 4.00076L70.6523 2.00986C73.0051 1.1954 75.2072 0.788168 77.2584 0.788168C77.5601 1.21048 77.7109 1.94953 77.7109 3.0053C77.7109 5.41852 76.9417 10.0941 75.4033 17.0321C73.895 23.9399 73.1409 27.967 73.1409 29.1132C73.1409 30.2294 73.2766 30.7874 73.5481 30.7874L76.7154 29.6562L77.5299 31.2399C76.5043 32.0543 75.2524 32.8085 73.7743 33.5023C72.3264 34.1961 71.0746 34.543 70.0188 34.543ZM78.3726 26.1721C78.3726 22.4015 79.5038 19.4302 81.7662 17.2583C84.0588 15.0563 86.653 13.9553 89.5488 13.9553C91.3286 13.9553 92.7916 14.3927 93.9379 15.2674C95.0841 16.1422 95.6573 17.3187 95.6573 18.7968C95.6573 20.2447 95.2802 21.4664 94.5261 22.4618C93.8021 23.4573 92.9122 24.2265 91.8565 24.7695C89.7147 25.8252 87.754 26.4889 85.9743 26.7604L84.8883 26.8961C85.0995 29.7316 86.2608 31.1494 88.3724 31.1494C89.0964 31.1494 89.8656 30.9684 90.68 30.6064C91.4945 30.2444 92.128 29.8825 92.5804 29.5205L93.2591 28.9775L94.3451 30.4254C94.1038 30.7572 93.6211 31.1946 92.8972 31.7376C92.1732 32.2806 91.4945 32.7331 90.861 33.095C89.1114 34.0603 87.196 34.543 85.1146 34.543C83.0332 34.543 81.3892 33.8039 80.1826 32.3258C78.9759 30.8477 78.3726 28.7965 78.3726 26.1721ZM84.8431 24.679C86.3815 24.4075 87.6032 23.7589 88.5081 22.7333C89.4131 21.7077 89.8656 20.3804 89.8656 18.7515C89.8656 17.1226 89.3829 16.3081 88.4176 16.3081C87.2714 16.3081 86.3815 17.2885 85.748 19.2492C85.1447 21.1798 84.8431 22.9897 84.8431 24.679ZM110.744 30.9232C110.924 30.9232 111.528 30.6517 112.553 30.1087L113.006 29.8825L113.82 31.4661C113.579 31.7074 113.262 31.994 112.87 32.3258C112.478 32.6577 111.709 33.1101 110.563 33.6833C109.446 34.2564 108.376 34.543 107.35 34.543C106.354 34.543 105.54 34.2866 104.907 33.7738C104.303 33.2308 103.806 32.356 103.413 31.1494L102.373 27.9368C100.11 30.3802 98.421 32.5672 97.3049 34.4977C97.0938 34.4977 96.5659 34.3469 95.7213 34.0452C94.9068 33.7436 94.3035 33.4872 93.9114 33.276C94.7861 31.7376 97.3049 29.0077 101.468 25.0862C100.412 21.9189 99.5673 19.7017 98.9338 18.4348C98.8132 18.1935 98.0892 17.3338 96.762 15.8557L96.8977 15.3127L99.6578 14.7245C101.257 14.4831 102.674 14.3323 103.911 14.272C104.545 14.7848 105.042 15.735 105.404 17.1226C105.796 18.5102 106.098 19.566 106.309 20.2899C108.541 17.8466 110.004 15.7953 110.698 14.1362C111.543 14.2569 112.372 14.5736 113.187 15.0864L113.594 15.3127C112.538 17.3036 110.397 19.9129 107.169 23.1405C107.501 24.2868 107.802 25.237 108.074 25.9912C109.22 29.2792 110.11 30.9232 110.744 30.9232Z"/>
</mask>
<path d="M6.78968 33.638L7.16447 32.0827L6.76777 31.9871L6.37376 32.0932L6.78968 33.638ZM0.0477696 34.1357L-1.54133 33.9503L-1.67966 35.136L-0.582453 35.6063L0.0477696 34.1357ZM2.71739 20.7877L1.15638 20.4371L1.15529 20.442L2.71739 20.7877ZM4.52729 5.94641L3.18589 6.81832L3.18589 6.81832L4.52729 5.94641ZM3.35085 4.40798L4.52323 3.31935L3.35085 4.40798ZM2.76263 3.77452L1.19382 3.46075L1.0333 4.26336L1.59025 4.86316L2.76263 3.77452ZM2.89838 3.0958L2.57542 1.52886L1.53742 1.7428L1.32957 2.78204L2.89838 3.0958ZM21.8119 3.68402L20.8482 4.96103L20.8616 4.97116L20.8752 4.98101L21.8119 3.68402ZM16.6989 17.2583L16.215 15.7334L16.5093 18.8469L16.6989 17.2583ZM21.7667 19.566L20.6614 20.7227L20.6745 20.7352L20.6879 20.7475L21.7667 19.566ZM20.7712 31.8734L21.8197 33.0818L20.7712 31.8734ZM9.91177 18.7063L9.55721 17.1462L8.57394 17.3696L8.35136 18.3531L9.91177 18.7063ZM7.42315 30.6969L5.84337 30.4442L5.68273 31.4482L6.52352 32.0199L7.42315 30.6969ZM15.1153 29.5657L16.3016 30.6391L16.3079 30.6322L16.3141 30.6252L15.1153 29.5657ZM12.6719 4.99621L11.5406 3.86492L11.1713 4.23422L11.091 4.75029L12.6719 4.99621ZM10.5905 15.6747L9.02771 15.3321L8.60198 17.2745H10.5905V15.6747ZM14.3913 14.8602L13.5528 13.4977L13.528 13.5129L13.5039 13.529L14.3913 14.8602ZM15.7035 13.729L14.5412 12.6296L14.5385 12.6325L15.7035 13.729ZM12.9886 32.9431C11.5369 32.9431 9.60755 32.6714 7.16447 32.0827L6.4149 35.1934C8.97923 35.8113 11.1825 36.1429 12.9886 36.1429V32.9431ZM6.37376 32.0932C4.91509 32.4859 3.59329 32.6716 2.40065 32.6716V35.8714C3.92288 35.8714 5.5271 35.6348 7.20561 35.1829L6.37376 32.0932ZM2.40065 32.6716C1.73407 32.6716 1.23377 32.6604 0.886504 32.6403C0.711636 32.6302 0.596893 32.6191 0.529765 32.6099C0.420397 32.595 0.51739 32.5964 0.677992 32.6652L-0.582453 35.6063C-0.316273 35.7203 -0.0420592 35.7613 0.0974354 35.7803C0.279169 35.8051 0.484932 35.8222 0.70221 35.8348C1.13924 35.86 1.7098 35.8714 2.40065 35.8714V32.6716ZM1.63687 34.3211C1.83646 32.6103 2.70435 28.2517 4.27948 21.1333L1.15529 20.442C-0.406757 27.5013 -1.31861 32.0414 -1.54133 33.9503L1.63687 34.3211ZM4.27838 21.1382C5.08021 17.5678 5.68532 14.6467 6.09081 12.3821C6.48969 10.1544 6.71539 8.45796 6.71539 7.39434H3.51564C3.51564 8.14063 3.34165 9.58135 2.94115 11.8181C2.54727 14.0179 1.95332 16.8885 1.15639 20.4371L4.27838 21.1382ZM6.71539 7.39434C6.71539 6.5416 6.29176 5.72535 5.8687 5.07449L3.18589 6.81832C3.34584 7.06441 3.4378 7.24382 3.48623 7.36302C3.53791 7.49026 3.51564 7.48931 3.51564 7.39434H6.71539ZM5.8687 5.0745C5.43827 4.41229 4.99095 3.82304 4.52323 3.31935L2.17847 5.49662C2.49505 5.83755 2.83203 6.27392 3.18589 6.81832L5.8687 5.0745ZM4.52323 3.31935L3.93501 2.68588L1.59025 4.86316L2.17847 5.49662L4.52323 3.31935ZM4.33144 4.08828L4.46719 3.40956L1.32957 2.78204L1.19382 3.46075L4.33144 4.08828ZM3.22133 4.66274C7.05413 3.87278 11.1981 3.47399 15.6582 3.47399V0.274235C11.0085 0.274235 6.64589 0.689908 2.57542 1.52886L3.22133 4.66274ZM15.6582 3.47399C17.9025 3.47399 19.5901 4.01156 20.8482 4.96103L22.7757 2.40702C20.8362 0.943275 18.4214 0.274235 15.6582 0.274235V3.47399ZM20.8752 4.98101C22.0565 5.83416 22.6554 6.99358 22.6554 8.66127H25.8552C25.8552 6.04551 24.8252 3.88677 22.7486 2.38703L20.8752 4.98101ZM22.6554 8.66127C22.6554 10.3738 22.1451 11.7382 21.1645 12.8538C20.1576 13.9994 18.5587 14.9896 16.215 15.7334L17.1829 18.7833C19.8768 17.9283 22.0561 16.6863 23.5679 14.9662C25.1061 13.2161 25.8552 11.0813 25.8552 8.66127H22.6554ZM16.5093 18.8469C18.2171 19.0509 19.5758 19.6853 20.6614 20.7227L22.872 18.4093C21.2427 16.8524 19.2229 15.9485 16.8886 15.6697L16.5093 18.8469ZM20.6879 20.7475C21.6677 21.642 22.2482 22.9631 22.2482 24.9505H25.448C25.448 22.2924 24.6409 20.0238 22.8454 18.3845L20.6879 20.7475ZM22.2482 24.9505C22.2482 27.3456 21.4065 29.204 19.7227 30.6649L21.8197 33.0818C24.2384 30.9832 25.448 28.2263 25.448 24.9505H22.2482ZM19.7227 30.6649C18.007 32.1536 15.804 32.9431 12.9886 32.9431V36.1429C16.4476 36.1429 19.433 35.1526 21.8197 33.0818L19.7227 30.6649ZM12.1742 16.8802C11.2375 16.8802 10.3611 16.9635 9.55721 17.1462L10.2663 20.2664C10.7897 20.1474 11.4215 20.0799 12.1742 20.0799V16.8802ZM8.35136 18.3531C7.05479 24.0821 6.21443 28.125 5.84337 30.4442L9.00293 30.9497C9.35584 28.744 10.1746 24.7932 11.4722 19.0594L8.35136 18.3531ZM6.52352 32.0199C7.67668 32.804 9.24568 33.066 10.9525 33.066V29.8662C9.46176 29.8662 8.67788 29.6154 8.32278 29.3739L6.52352 32.0199ZM10.9525 33.066C13.0579 33.066 14.8688 32.2227 16.3016 30.6391L13.9289 28.4923C13.0692 29.4426 12.1049 29.8662 10.9525 29.8662V33.066ZM16.3141 30.6252C17.805 28.9381 18.4346 26.6502 18.4346 24.0003H15.2348C15.2348 26.1767 14.7181 27.5992 13.9164 28.5063L16.3141 30.6252ZM18.4346 24.0003C18.4346 21.9735 18.0125 20.1551 16.892 18.828C15.7278 17.449 14.052 16.8802 12.1742 16.8802V20.0799C13.4034 20.0799 14.0578 20.4311 14.4471 20.8922C14.8801 21.4051 15.2348 22.3469 15.2348 24.0003H18.4346ZM14.708 3.0796C14.0992 3.0796 13.5499 3.10677 13.0934 3.17779C12.865 3.21331 12.6189 3.26586 12.3814 3.35039C12.1627 3.42823 11.8309 3.57463 11.5406 3.86492L13.8032 6.12749C13.704 6.22669 13.6125 6.28531 13.5581 6.31596C13.5026 6.34723 13.4641 6.36142 13.4544 6.36488C13.4394 6.37023 13.4742 6.35679 13.5852 6.33952C13.8074 6.30496 14.1706 6.27935 14.708 6.27935V3.0796ZM11.091 4.75029C10.6759 7.41895 9.9898 10.9426 9.02771 15.3321L12.1533 16.0172C13.1218 11.5985 13.8233 8.00319 14.2528 5.24212L11.091 4.75029ZM10.5905 17.2745C11.7969 17.2745 12.8623 17.2065 13.6016 16.9755L12.6472 13.9214C12.4211 13.992 11.7973 14.0748 10.5905 14.0748V17.2745ZM13.6016 16.9755C14.2066 16.7864 14.7714 16.5296 15.2788 16.1914L13.5039 13.529C13.2872 13.6735 13.0074 13.8088 12.6472 13.9214L13.6016 16.9755ZM15.2298 16.2228C15.7876 15.8795 16.3345 15.3929 16.8685 14.8255L14.5385 12.6325C14.1072 13.0907 13.7793 13.3583 13.5528 13.4977L15.2298 16.2228ZM16.8657 14.8285C18.3289 13.2817 18.887 11.0111 18.887 8.38978H15.6873C15.6873 10.6552 15.1896 11.9441 14.5412 12.6296L16.8657 14.8285ZM18.887 8.38978C18.887 7.01697 18.6574 5.70284 17.956 4.69389C17.1813 3.57932 16.0058 3.0796 14.708 3.0796V6.27935C15.1297 6.27935 15.2438 6.39801 15.3287 6.52021C15.4871 6.74803 15.6873 7.28906 15.6873 8.38978H18.887ZM29.3602 17.2583L30.4681 18.4125L30.4684 18.4122L29.3602 17.2583ZM41.5318 15.2674L42.5024 13.9956L42.5024 13.9956L41.5318 15.2674ZM42.12 22.4618L40.8448 21.4957L40.8353 21.5082L40.8261 21.5208L42.12 22.4618ZM39.4504 24.7695L40.1578 26.2045L40.17 26.1984L40.1821 26.1922L39.4504 24.7695ZM33.5682 26.7604L33.7666 28.3479L33.7881 28.3452L33.8095 28.3419L33.5682 26.7604ZM32.4823 26.8961L32.2838 25.3086L30.7738 25.4973L30.8868 27.0149L32.4823 26.8961ZM38.274 30.6064L37.6242 29.1444L37.6242 29.1444L38.274 30.6064ZM40.1744 29.5205L39.1749 28.2712L39.1749 28.2712L40.1744 29.5205ZM40.8531 28.9775L42.133 28.0176L41.1426 26.6971L39.8537 27.7282L40.8531 28.9775ZM41.939 30.4254L43.2329 31.3664L43.9279 30.4108L43.2189 29.4655L41.939 30.4254ZM40.4911 31.7376L39.5312 30.4577L39.5312 30.4577L40.4911 31.7376ZM38.455 33.095L39.2278 34.4959L39.2383 34.4901L39.2487 34.4841L38.455 33.095ZM27.7765 32.3258L26.5371 33.3376L26.5371 33.3376L27.7765 32.3258ZM32.437 24.679H30.8371V26.5859L32.715 26.2545L32.437 24.679ZM36.1021 22.7333L34.9024 21.6748L34.9024 21.6748L36.1021 22.7333ZM33.342 19.2492L31.8196 18.7574L31.8172 18.7647L31.8149 18.772L33.342 19.2492ZM27.5665 26.1721C27.5665 22.7422 28.5825 20.2227 30.4681 18.4125L28.2522 16.1042C25.6131 18.6377 24.3667 22.0607 24.3667 26.1721H27.5665ZM30.4684 18.4122C32.4948 16.4658 34.7022 15.5551 37.1428 15.5551V12.3554C33.7917 12.3554 30.8106 13.6468 28.2519 16.1045L30.4684 18.4122ZM37.1428 15.5551C38.6557 15.5551 39.7538 15.9231 40.5612 16.5393L42.5024 13.9956C41.0172 12.8622 39.1893 12.3554 37.1428 12.3554V15.5551ZM40.5612 16.5393C41.2994 17.1026 41.6513 17.8029 41.6513 18.7968H44.8511C44.8511 16.8345 44.0568 15.1818 42.5024 13.9956L40.5612 16.5393ZM41.6513 18.7968C41.6513 19.9537 41.3558 20.8212 40.8448 21.4957L43.3953 23.4279C44.3925 22.1116 44.8511 20.5356 44.8511 18.7968H41.6513ZM40.8261 21.5208C40.2437 22.3216 39.5437 22.9224 38.7187 23.3467L40.1821 26.1922C41.4687 25.5306 42.5484 24.5929 43.4139 23.4028L40.8261 21.5208ZM38.743 23.3345C36.7034 24.3399 34.9017 24.9386 33.3269 25.1788L33.8095 28.3419C35.7942 28.0392 37.914 27.3105 40.1578 26.2045L38.743 23.3345ZM33.3698 25.1728L32.2838 25.3086L32.6807 28.4836L33.7666 28.3479L33.3698 25.1728ZM30.8868 27.0149C31.0043 28.5923 31.3987 30.0314 32.274 31.0999C33.2068 32.2387 34.5128 32.7493 35.9663 32.7493V29.5495C35.3083 29.5495 34.9778 29.3512 34.7493 29.0723C34.4632 28.723 34.1714 28.0354 34.0777 26.7773L30.8868 27.0149ZM35.9663 32.7493C36.9596 32.7493 37.9508 32.5008 38.9237 32.0684L37.6242 29.1444C36.9682 29.436 36.421 29.5495 35.9663 29.5495V32.7493ZM38.9237 32.0684C39.804 31.6772 40.5733 31.2502 41.1738 30.7698L39.1749 28.2712C38.8705 28.5148 38.3729 28.8117 37.6242 29.1444L38.9237 32.0684ZM41.1738 30.7698L41.8525 30.2268L39.8537 27.7282L39.1749 28.2712L41.1738 30.7698ZM39.5732 29.9374L40.6591 31.3854L43.2189 29.4655L42.133 28.0176L39.5732 29.9374ZM40.6452 29.4844C40.5558 29.6073 40.2433 29.9236 39.5312 30.4577L41.451 33.0175C42.1868 32.4657 42.8396 31.9072 43.2329 31.3664L40.6452 29.4844ZM39.5312 30.4577C38.8483 30.9699 38.2253 31.3836 37.6612 31.706L39.2487 34.4841C39.9515 34.0825 40.686 33.5913 41.451 33.0175L39.5312 30.4577ZM37.6821 31.6942C36.1792 32.5234 34.5313 32.9431 32.7085 32.9431V36.1429C35.0485 36.1429 37.2315 35.5973 39.2278 34.4959L37.6821 31.6942ZM32.7085 32.9431C31.0578 32.9431 29.8885 32.3831 29.0159 31.3141L26.5371 33.3376C28.0777 35.2247 30.1964 36.1429 32.7085 36.1429V32.9431ZM29.0159 31.3141C28.1166 30.2125 27.5665 28.5652 27.5665 26.1721H24.3667C24.3667 29.0278 25.0232 31.483 26.5371 33.3376L29.0159 31.3141ZM32.715 26.2545C34.557 25.9295 36.1234 25.1272 37.3017 23.7918L34.9024 21.6748C34.2708 22.3906 33.3939 22.8855 32.159 23.1034L32.715 26.2545ZM37.3017 23.7918C38.5121 22.4201 39.0594 20.6919 39.0594 18.7515H35.8596C35.8596 20.069 35.502 20.9953 34.9024 21.6748L37.3017 23.7918ZM39.0594 18.7515C39.0594 17.8314 38.9324 16.877 38.4739 16.1034C37.9376 15.1984 37.0457 14.7083 36.0116 14.7083V17.908C36.0231 17.908 35.9555 17.9086 35.8607 17.8553C35.8169 17.8306 35.7815 17.8021 35.7556 17.776C35.7306 17.7506 35.7206 17.7336 35.7212 17.7346C35.7252 17.7413 35.7639 17.8124 35.7995 17.9926C35.8346 18.1703 35.8596 18.4185 35.8596 18.7515H39.0594ZM36.0116 14.7083C33.7108 14.7083 32.4784 16.7182 31.8196 18.7574L34.8644 19.7411C35.1461 18.8691 35.4382 18.3731 35.6691 18.1187C35.8625 17.9056 35.9612 17.908 36.0116 17.908V14.7083ZM31.8149 18.772C31.1726 20.8276 30.8371 22.7996 30.8371 24.679H34.0369C34.0369 23.1798 34.3048 21.532 34.869 19.7264L31.8149 18.772ZM66.4909 14.4982L68.0842 14.6431L68.2428 12.8984H66.4909V14.4982ZM65.6764 17.1226L65.5089 18.7137L66.6659 18.8355L67.1384 17.7724L65.6764 17.1226ZM62.1019 16.9416V15.3417L60.6322 15.3417L60.5077 16.8061L62.1019 16.9416ZM60.3372 33.457L58.7556 33.2158L58.7556 33.2158L60.3372 33.457ZM58.2105 40.9229L58.1661 42.5222L59.0879 42.5478L59.5721 41.763L58.2105 40.9229ZM54.817 40.4704L55.1767 38.9115L55.1617 38.908L55.1466 38.9049L54.817 40.4704ZM52.4641 39.7012L50.9422 39.2076L50.5619 40.3803L51.5989 41.047L52.4641 39.7012ZM54.636 29.611L53.0581 29.3462L53.0565 29.3566L54.636 29.611ZM56.0839 17.1678L57.6813 17.2566L57.7821 15.4426L55.9699 15.572L56.0839 17.1678ZM53.2785 17.4846L51.7196 17.8443L52.0514 19.2821L53.5113 19.0674L53.2785 17.4846ZM53.3238 14.4982V12.8984H51.9512L51.7425 14.255L53.3238 14.4982ZM56.2196 14.4982V16.0981H57.7832L57.8191 14.535L56.2196 14.4982ZM56.6269 8.52553L58.2078 8.77144L58.2091 8.76286L56.6269 8.52553ZM59.1155 2.86956L57.9594 1.76369L57.9588 1.76428L59.1155 2.86956ZM67.3506 1.69312L66.3512 2.94242L66.3784 2.96424L66.4066 2.98485L67.3506 1.69312ZM66.8076 9.38524L68.1941 10.1835L68.1992 10.1745L66.8076 9.38524ZM62.2828 14.4982L61.3163 13.2233L57.524 16.0981L62.2828 16.0981V14.4982ZM62.3733 11.6476L60.7752 11.5733L60.6046 15.24L63.4068 12.8689L62.3733 11.6476ZM65.1334 8.34454L66.5353 9.11555L66.5353 9.11555L65.1334 8.34454ZM62.6448 8.16355L61.0561 7.97479L61.0559 7.97661L62.6448 8.16355ZM64.8976 14.3534C64.8609 14.7567 64.6725 15.4422 64.2144 16.4728L67.1384 17.7724C67.6456 16.6311 68.0002 15.567 68.0842 14.6431L64.8976 14.3534ZM65.8439 15.5315C64.6438 15.4052 63.4567 15.3417 62.2828 15.3417V18.5415C63.3412 18.5415 64.4165 18.5987 65.5089 18.7137L65.8439 15.5315ZM62.2828 15.3417H62.1019V18.5415H62.2828V15.3417ZM60.5077 16.8061C59.8748 24.2506 59.2901 29.7117 58.7556 33.2158L61.9188 33.6983C62.4702 30.0834 63.062 24.5342 63.696 17.0771L60.5077 16.8061ZM58.7556 33.2158C58.2161 36.7527 57.5414 38.9606 56.849 40.0828L59.5721 41.763C60.6293 40.0497 61.3724 37.2803 61.9188 33.6983L58.7556 33.2158ZM58.255 39.3236C57.2862 39.2967 56.2609 39.1617 55.1767 38.9115L54.4572 42.0293C55.7259 42.3221 56.963 42.4887 58.1661 42.5222L58.255 39.3236ZM55.1466 38.9049C54.0038 38.6643 53.4807 38.4528 53.3292 38.3554L51.5989 41.047C52.2921 41.4926 53.3376 41.7939 54.4874 42.036L55.1466 38.9049ZM53.9859 40.1948C54.7489 37.8423 55.4882 34.3807 56.2155 29.8654L53.0565 29.3566C52.3358 33.8305 51.6272 37.0957 50.9422 39.2076L53.9859 40.1948ZM56.2138 29.8757C56.9759 25.3338 57.4663 21.1265 57.6813 17.2566L54.4865 17.0791C54.2792 20.8108 53.8043 24.8989 53.0582 29.3462L56.2138 29.8757ZM55.9699 15.572C55.0779 15.6357 54.1024 15.7463 53.0458 15.9017L53.5113 19.0674C54.5059 18.9212 55.4006 18.8206 56.1979 18.7637L55.9699 15.572ZM54.8375 17.1248C54.7735 16.8476 54.7427 16.5761 54.7427 16.3081H51.5429C51.5429 16.8245 51.6026 17.3373 51.7196 17.8443L54.8375 17.1248ZM54.7427 16.3081C54.7427 16.0096 54.788 15.5022 54.9051 14.7415L51.7425 14.255C51.6182 15.0629 51.5429 15.7621 51.5429 16.3081H54.7427ZM53.3238 16.0981H56.2196V12.8984H53.3238V16.0981ZM57.8191 14.535C57.879 11.9298 58.0131 10.023 58.2077 8.77144L55.046 8.27962C54.8184 9.74294 54.681 11.8179 54.6202 14.4615L57.8191 14.535ZM58.2091 8.76286C58.5367 6.57865 59.2627 5.03134 60.2722 3.97485L57.9588 1.76428C56.3741 3.42265 55.441 5.64598 55.0447 8.2882L58.2091 8.76286ZM60.2716 3.97543C61.27 2.93165 62.543 2.38804 64.2285 2.38804V-0.81171C61.7512 -0.81171 59.6155 0.0322828 57.9594 1.76369L60.2716 3.97543ZM64.2285 2.38804C65.3271 2.38804 65.9705 2.63789 66.3512 2.94242L68.35 0.443826C67.2224 -0.458256 65.7844 -0.81171 64.2285 -0.81171V2.38804ZM66.4066 2.98485C66.658 3.16854 66.9272 3.52627 66.9272 4.45323H70.1269C70.1269 2.84632 69.6118 1.36398 68.2945 0.401394L66.4066 2.98485ZM66.9272 4.45323C66.9272 5.29781 66.5224 6.64518 65.416 8.59595L68.1992 10.1745C69.3854 8.08316 70.1269 6.14253 70.1269 4.45323H66.9272ZM65.4211 8.58695C64.3839 10.3884 63.0199 11.9319 61.3163 13.2233L63.2493 15.7732C65.2863 14.2291 66.9388 12.3638 68.1941 10.1835L65.4211 8.58695ZM62.2828 16.0981H66.4909V12.8984H62.2828V16.0981ZM63.4068 12.8689C64.7148 11.7621 65.7668 10.5127 66.5353 9.11555L63.7316 7.57353C63.1728 8.58957 62.3848 9.5422 61.3399 10.4263L63.4068 12.8689ZM66.5353 9.11555C67.2768 7.76743 67.7288 6.41219 67.7288 5.0867H64.529C64.529 5.69178 64.3174 6.50844 63.7316 7.57353L66.5353 9.11555ZM67.7288 5.0867C67.7288 4.4708 67.6401 3.73489 67.2411 3.10788C66.764 2.35818 65.9941 1.99365 65.1787 1.99365V5.1934C65.1252 5.1934 65.0004 5.18179 64.8521 5.10407C64.6988 5.02379 64.5972 4.91309 64.5416 4.82575C64.4929 4.74921 64.4935 4.71367 64.5045 4.76542C64.5151 4.81578 64.529 4.91774 64.529 5.0867H67.7288ZM65.1787 1.99365C63.7505 1.99365 62.7532 2.87329 62.1506 3.96024C61.5784 4.99212 61.2458 6.3782 61.0561 7.97479L64.2335 8.3523C64.4058 6.90221 64.6765 6.00328 64.949 5.51182C65.0778 5.27939 65.1716 5.20357 65.1924 5.18897C65.1946 5.18746 65.1754 5.1934 65.1787 5.1934V1.99365ZM61.0559 7.97661C60.9299 9.0477 60.8368 10.2476 60.7752 11.5733L63.9715 11.722C64.0305 10.4534 64.1184 9.33063 64.2337 8.35048L61.0559 7.97661ZM67.4397 33.5023L66.2835 34.6081L66.2958 34.621L66.3084 34.6336L67.4397 33.5023ZM68.6614 18.6158L67.0999 18.2672L67.0988 18.2724L68.6614 18.6158ZM70.9237 4.00076H72.5236V3.89218L72.5089 3.78459L70.9237 4.00076ZM70.6523 2.00986L70.1289 0.497995L68.8899 0.926888L69.067 2.22602L70.6523 2.00986ZM77.2584 0.788168L78.5603 -0.141742L78.0817 -0.81171H77.2584V0.788168ZM75.4033 17.0321L73.8413 16.6858L73.8402 16.6908L75.4033 17.0321ZM73.5481 30.7874V32.3873H73.8252L74.0862 32.2941L73.5481 30.7874ZM76.7154 29.6562L78.1382 28.9245L77.4972 27.6782L76.1774 28.1495L76.7154 29.6562ZM77.5299 31.2399L78.5248 32.4928L79.5533 31.6761L78.9527 30.5082L77.5299 31.2399ZM73.7743 33.5023L73.0945 32.054L73.083 32.0595L73.7743 33.5023ZM70.0188 32.9431C69.3961 32.9431 68.9499 32.7499 68.5709 32.371L66.3084 34.6336C67.317 35.6422 68.5903 36.1429 70.0188 36.1429V32.9431ZM68.5958 32.3964C68.2921 32.0789 68.0441 31.5545 68.0441 30.6064H64.8443C64.8443 32.1319 65.26 33.5381 66.2835 34.6081L68.5958 32.3964ZM68.0441 30.6064C68.0441 30.1465 68.1963 28.9797 68.5717 26.9495C68.9365 24.9764 69.4865 22.3153 70.224 18.9591L67.0988 18.2724C66.3581 21.6431 65.7995 24.3438 65.4253 26.3677C65.0616 28.3343 64.8443 29.7994 64.8443 30.6064H68.0441ZM70.2228 18.9643C71.7321 12.2027 72.5236 7.17961 72.5236 4.00076H69.3239C69.3239 6.79461 68.6071 11.5148 67.0999 18.2672L70.2228 18.9643ZM72.5089 3.78459L72.2375 1.79369L69.067 2.22602L69.3385 4.21692L72.5089 3.78459ZM71.1756 3.52172C73.3949 2.75348 75.4188 2.38804 77.2584 2.38804V-0.81171C74.9956 -0.81171 72.6153 -0.362684 70.1289 0.497995L71.1756 3.52172ZM75.9565 1.71808C75.9319 1.68354 75.9809 1.73765 76.0302 1.9791C76.0775 2.21094 76.111 2.5458 76.111 3.0053H79.3108C79.3108 1.90066 79.1731 0.716216 78.5603 -0.141742L75.9565 1.71808ZM76.111 3.0053C76.111 5.21482 75.3858 9.72069 73.8413 16.6858L76.9652 17.3784C78.4976 10.4675 79.3108 5.62222 79.3108 3.0053H76.111ZM73.8402 16.6908C73.0847 20.1509 72.5153 22.9024 72.1339 24.9388C71.765 26.9087 71.541 28.361 71.541 29.1132H74.7408C74.7408 28.7192 74.8938 27.5849 75.279 25.5277C75.6518 23.5371 76.2135 20.8211 76.9663 17.3734L73.8402 16.6908ZM71.541 29.1132C71.541 29.703 71.5738 30.2769 71.6881 30.747C71.7431 30.973 71.8477 31.3109 72.0776 31.6259C72.3388 31.9838 72.8325 32.3873 73.5481 32.3873V29.1875C73.8034 29.1875 74.0507 29.2571 74.2629 29.3817C74.4635 29.4995 74.5903 29.6411 74.6623 29.7397C74.7903 29.9151 74.8101 30.0438 74.7972 29.9907C74.7758 29.9028 74.7408 29.6396 74.7408 29.1132H71.541ZM74.0862 32.2941L77.2535 31.1629L76.1774 28.1495L73.01 29.2807L74.0862 32.2941ZM75.2927 30.3879L76.1072 31.9716L78.9527 30.5082L78.1382 28.9245L75.2927 30.3879ZM76.535 29.987C75.6268 30.7082 74.4867 31.4006 73.0945 32.054L74.4541 34.9505C76.0182 34.2164 77.3817 33.4005 78.5248 32.4928L76.535 29.987ZM73.083 32.0595C71.7488 32.6988 70.7433 32.9431 70.0188 32.9431V36.1429C71.4058 36.1429 72.904 35.6934 74.4657 34.9451L73.083 32.0595ZM81.7662 17.2583L82.8742 18.4125L82.8745 18.4122L81.7662 17.2583ZM93.9379 15.2674L94.9085 13.9956L94.9085 13.9956L93.9379 15.2674ZM94.5261 22.4618L93.2508 21.4957L93.2414 21.5082L93.2322 21.5208L94.5261 22.4618ZM91.8565 24.7695L92.5639 26.2045L92.5761 26.1984L92.5882 26.1922L91.8565 24.7695ZM85.9743 26.7604L86.1727 28.3479L86.1942 28.3452L86.2155 28.3419L85.9743 26.7604ZM84.8883 26.8961L84.6899 25.3086L83.1798 25.4973L83.2929 27.0149L84.8883 26.8961ZM90.68 30.6064L90.0303 29.1444L90.0303 29.1444L90.68 30.6064ZM92.5804 29.5205L91.581 28.2712L91.581 28.2712L92.5804 29.5205ZM93.2591 28.9775L94.5391 28.0176L93.5487 26.6971L92.2597 27.7282L93.2591 28.9775ZM94.3451 30.4254L95.639 31.3664L96.334 30.4108L95.625 29.4655L94.3451 30.4254ZM92.8972 31.7376L91.9372 30.4577L91.9372 30.4577L92.8972 31.7376ZM90.861 33.095L91.6339 34.4959L91.6444 34.4901L91.6548 34.4841L90.861 33.095ZM80.1826 32.3258L78.9432 33.3376L78.9432 33.3376L80.1826 32.3258ZM84.8431 24.679H83.2432V26.5859L85.1211 26.2545L84.8431 24.679ZM88.5081 22.7333L87.3085 21.6748L87.3085 21.6748L88.5081 22.7333ZM85.748 19.2492L84.2256 18.7574L84.2233 18.7647L84.221 18.772L85.748 19.2492ZM79.9725 26.1721C79.9725 22.7422 80.9885 20.2227 82.8742 18.4125L80.6583 16.1042C78.0192 18.6377 76.7728 22.0607 76.7728 26.1721H79.9725ZM82.8745 18.4122C84.9009 16.4658 87.1082 15.5551 89.5488 15.5551V12.3554C86.1977 12.3554 83.2167 13.6468 80.6579 16.1045L82.8745 18.4122ZM89.5488 15.5551C91.0618 15.5551 92.1599 15.9231 92.9673 16.5393L94.9085 13.9956C93.4233 12.8622 91.5954 12.3554 89.5488 12.3554V15.5551ZM92.9673 16.5393C93.7054 17.1026 94.0574 17.8029 94.0574 18.7968H97.2572C97.2572 16.8345 96.4628 15.1818 94.9085 13.9956L92.9673 16.5393ZM94.0574 18.7968C94.0574 19.9537 93.7619 20.8212 93.2508 21.4957L95.8013 23.4279C96.7985 22.1116 97.2572 20.5356 97.2572 18.7968H94.0574ZM93.2322 21.5208C92.6498 22.3216 91.9498 22.9224 91.1248 23.3467L92.5882 26.1922C93.8747 25.5306 94.9544 24.5929 95.82 23.4028L93.2322 21.5208ZM91.1491 23.3345C89.1094 24.3399 87.3078 24.9386 85.733 25.1788L86.2155 28.3419C88.2002 28.0392 90.3201 27.3105 92.5639 26.2045L91.1491 23.3345ZM85.7758 25.1728L84.6899 25.3086L85.0868 28.4836L86.1727 28.3479L85.7758 25.1728ZM83.2929 27.0149C83.4103 28.5923 83.8048 30.0314 84.6801 31.0999C85.6129 32.2387 86.9188 32.7493 88.3724 32.7493V29.5495C87.7144 29.5495 87.3839 29.3512 87.1554 29.0723C86.8693 28.723 86.5775 28.0354 86.4838 26.7773L83.2929 27.0149ZM88.3724 32.7493C89.3657 32.7493 90.3568 32.5008 91.3298 32.0684L90.0303 29.1444C89.3743 29.436 88.8271 29.5495 88.3724 29.5495V32.7493ZM91.3298 32.0684C92.21 31.6772 92.9794 31.2502 93.5799 30.7698L91.581 28.2712C91.2765 28.5148 90.779 28.8117 90.0303 29.1444L91.3298 32.0684ZM93.5799 30.7698L94.2586 30.2268L92.2597 27.7282L91.581 28.2712L93.5799 30.7698ZM91.9792 29.9374L93.0652 31.3854L95.625 29.4655L94.5391 28.0176L91.9792 29.9374ZM93.0512 29.4844C92.9619 29.6073 92.6494 29.9236 91.9372 30.4577L93.8571 33.0175C94.5929 32.4657 95.2457 31.9072 95.639 31.3664L93.0512 29.4844ZM91.9372 30.4577C91.2543 30.9699 90.6314 31.3836 90.0673 31.706L91.6548 34.4841C92.3576 34.0825 93.0921 33.5913 93.8571 33.0175L91.9372 30.4577ZM90.0882 31.6942C88.5853 32.5234 86.9373 32.9431 85.1146 32.9431V36.1429C87.4546 36.1429 89.6376 35.5973 91.6339 34.4959L90.0882 31.6942ZM85.1146 32.9431C83.4639 32.9431 82.2946 32.3831 81.4219 31.3141L78.9432 33.3376C80.4838 35.2247 82.6024 36.1429 85.1146 36.1429V32.9431ZM81.4219 31.3141C80.5226 30.2125 79.9725 28.5652 79.9725 26.1721H76.7728C76.7728 29.0278 77.4293 31.483 78.9432 33.3376L81.4219 31.3141ZM85.1211 26.2545C86.9631 25.9295 88.5295 25.1272 89.7078 23.7918L87.3085 21.6748C86.6769 22.3906 85.7999 22.8855 84.565 23.1034L85.1211 26.2545ZM89.7078 23.7918C90.9182 22.4201 91.4654 20.6919 91.4654 18.7515H88.2657C88.2657 20.069 87.908 20.9953 87.3085 21.6748L89.7078 23.7918ZM91.4654 18.7515C91.4654 17.8314 91.3384 16.877 90.8799 16.1034C90.3437 15.1984 89.4517 14.7083 88.4176 14.7083V17.908C88.4291 17.908 88.3616 17.9086 88.2668 17.8553C88.2229 17.8306 88.1875 17.8021 88.1617 17.776C88.1366 17.7506 88.1267 17.7336 88.1272 17.7346C88.1312 17.7413 88.1699 17.8124 88.2055 17.9926C88.2406 18.1703 88.2657 18.4185 88.2657 18.7515H91.4654ZM88.4176 14.7083C86.1168 14.7083 84.8844 16.7182 84.2256 18.7574L87.2704 19.7411C87.5521 18.8691 87.8442 18.3731 88.0752 18.1187C88.2686 17.9056 88.3673 17.908 88.4176 17.908V14.7083ZM84.221 18.772C83.5786 20.8276 83.2432 22.7996 83.2432 24.679H86.4429C86.4429 23.1798 86.7108 21.532 87.2751 19.7264L84.221 18.772ZM112.553 30.1087L111.838 28.6777L111.821 28.686L111.805 28.6947L112.553 30.1087ZM113.006 29.8825L114.429 29.1508L113.705 27.7441L112.29 28.4515L113.006 29.8825ZM113.82 31.4661L114.952 32.5974L115.777 31.7722L115.243 30.7344L113.82 31.4661ZM112.87 32.3258L113.904 33.5472L113.904 33.5472L112.87 32.3258ZM110.563 33.6833L109.847 32.2523L109.839 32.2561L109.832 32.2601L110.563 33.6833ZM104.907 33.7738L103.836 34.9629L103.867 34.9909L103.9 35.0173L104.907 33.7738ZM103.413 31.1494L101.891 31.6424L101.892 31.6439L103.413 31.1494ZM102.373 27.9368L103.895 27.4438L103.053 24.8468L101.199 26.8498L102.373 27.9368ZM97.3049 34.4977V36.0976H98.228L98.69 35.2985L97.3049 34.4977ZM95.7213 34.0452L95.1656 35.5455L95.1744 35.5488L95.1832 35.5519L95.7213 34.0452ZM93.9114 33.276L92.5206 32.4852L91.7113 33.9085L93.1529 34.6847L93.9114 33.276ZM101.468 25.0862L102.565 26.2507L103.309 25.5499L102.985 24.5803L101.468 25.0862ZM98.9338 18.4348L97.5029 19.1503L97.5029 19.1503L98.9338 18.4348ZM96.762 15.8557L95.2098 15.4676L95.0037 16.2922L95.5716 16.9246L96.762 15.8557ZM96.8977 15.3127L96.5642 13.7479L95.5877 13.9561L95.3456 14.9247L96.8977 15.3127ZM99.6578 14.7245L99.419 13.1425L99.3714 13.1497L99.3243 13.1597L99.6578 14.7245ZM103.911 14.272L104.918 13.0285L104.443 12.6443L103.833 12.674L103.911 14.272ZM105.404 17.1226L103.856 17.5264L103.86 17.5421L103.865 17.5577L105.404 17.1226ZM106.309 20.2899L104.773 20.7379L105.57 23.4707L107.49 21.369L106.309 20.2899ZM110.698 14.1362L110.925 12.5524L109.7 12.3775L109.222 13.519L110.698 14.1362ZM113.187 15.0864L112.334 16.4403L112.372 16.4637L112.41 16.485L113.187 15.0864ZM113.594 15.3127L115.008 16.0622L115.743 14.6761L114.371 13.9141L113.594 15.3127ZM107.169 23.1405L106.038 22.0093L105.369 22.6776L105.632 23.5854L107.169 23.1405ZM108.074 25.9912L109.585 25.4645L109.582 25.4569L109.579 25.4492L108.074 25.9912ZM110.744 32.523C111.081 32.523 111.376 32.4206 111.482 32.3841C111.643 32.3282 111.816 32.256 111.988 32.1785C112.336 32.0221 112.778 31.8002 113.302 31.5226L111.805 28.6947C111.303 28.9602 110.931 29.1455 110.675 29.2606C110.546 29.3189 110.47 29.3484 110.435 29.3604C110.418 29.3663 110.43 29.3614 110.462 29.3536C110.482 29.3489 110.589 29.3233 110.744 29.3233V32.523ZM113.269 31.5397L113.721 31.3134L112.29 28.4515L111.838 28.6777L113.269 31.5397ZM111.583 30.6142L112.398 32.1978L115.243 30.7344L114.429 29.1508L111.583 30.6142ZM112.689 30.3348C112.49 30.5334 112.21 30.7886 111.837 31.1045L113.904 33.5472C114.315 33.1994 114.668 32.8815 114.952 32.5974L112.689 30.3348ZM111.837 31.1045C111.608 31.2982 110.999 31.6764 109.847 32.2523L111.278 35.1142C112.419 34.5438 113.348 34.0171 113.904 33.5472L111.837 31.1045ZM109.832 32.2601C108.892 32.7427 108.071 32.9431 107.35 32.9431V36.1429C108.68 36.1429 110.001 35.7702 111.293 35.1065L109.832 32.2601ZM107.35 32.9431C106.637 32.9431 106.203 32.7648 105.913 32.5303L103.9 35.0173C104.877 35.8083 106.072 36.1429 107.35 36.1429V32.9431ZM105.977 32.5846C105.668 32.3068 105.285 31.7314 104.935 30.6549L101.892 31.6439C102.326 32.9806 102.938 34.1547 103.836 34.9629L105.977 32.5846ZM104.935 30.6563L103.895 27.4438L100.851 28.4298L101.891 31.6424L104.935 30.6563ZM101.199 26.8498C98.891 29.3422 97.1169 31.6264 95.9199 33.697L98.69 35.2985C99.7252 33.5079 101.33 31.4182 103.547 29.0238L101.199 26.8498ZM97.3049 32.8978C97.4121 32.8978 97.4625 32.9132 97.4071 32.9019C97.3685 32.894 97.2987 32.8773 97.1902 32.8463C96.9735 32.7844 96.6667 32.6841 96.2594 32.5386L95.1832 35.5519C95.6204 35.7081 95.9999 35.834 96.3111 35.9229C96.5608 35.9943 96.9466 36.0976 97.3049 36.0976V32.8978ZM96.2769 32.545C95.4799 32.2498 94.9611 32.0242 94.6699 31.8674L93.1529 34.6847C93.6459 34.9502 94.3338 35.2374 95.1656 35.5455L96.2769 32.545ZM95.3021 34.0669C95.6438 33.4659 96.386 32.5105 97.6324 31.1597C98.8568 29.8326 100.498 28.1979 102.565 26.2507L100.371 23.9217C98.2749 25.896 96.5751 27.587 95.2807 28.9899C94.0083 30.3689 93.0536 31.5478 92.5206 32.4852L95.3021 34.0669ZM102.985 24.5803C101.929 21.4111 101.054 19.0978 100.365 17.7193L97.5029 19.1503C98.0806 20.3057 98.8948 22.4266 99.9499 25.5921L102.985 24.5803ZM100.365 17.7193C100.258 17.505 100.1 17.2952 99.9996 17.1641C99.8731 16.9991 99.7125 16.8021 99.5241 16.5785C99.146 16.1295 98.6202 15.5304 97.9523 14.7867L95.5716 16.9246C96.231 17.659 96.7308 18.2289 97.0766 18.6395C97.2502 18.8457 97.3762 19.0013 97.4608 19.1116C97.5714 19.2557 97.5497 19.2439 97.5029 19.1503L100.365 17.7193ZM98.3141 16.2437L98.4498 15.7007L95.3456 14.9247L95.2098 15.4676L98.3141 16.2437ZM97.2312 16.8774L99.9913 16.2892L99.3243 13.1597L96.5642 13.7479L97.2312 16.8774ZM99.8966 16.3064C101.457 16.0709 102.819 15.927 103.989 15.87L103.833 12.674C102.529 12.7376 101.056 12.8954 99.419 13.1425L99.8966 16.3064ZM102.904 15.5155C103.137 15.7036 103.522 16.2467 103.856 17.5264L106.952 16.7188C106.562 15.2233 105.952 13.866 104.918 13.0285L102.904 15.5155ZM103.865 17.5577C104.257 18.9465 104.56 20.0074 104.773 20.7379L107.845 19.842C107.636 19.1246 107.336 18.0739 106.944 16.6875L103.865 17.5577ZM107.49 21.369C109.761 18.884 111.373 16.6698 112.174 14.7535L109.222 13.519C108.636 14.9209 107.322 16.8091 105.128 19.2108L107.49 21.369ZM110.472 15.72C111.067 15.8051 111.686 16.0319 112.334 16.4403L114.039 13.7326C113.059 13.1153 112.019 12.7087 110.925 12.5524L110.472 15.72ZM112.41 16.485L112.817 16.7112L114.371 13.9141L113.964 13.6879L112.41 16.485ZM112.181 14.5631C111.242 16.3331 109.243 18.8035 106.038 22.0093L108.3 24.2718C111.55 21.0222 113.835 18.2741 115.008 16.0622L112.181 14.5631ZM105.632 23.5854C105.969 24.7502 106.281 25.7356 106.569 26.5331L109.579 25.4492C109.323 24.7385 109.032 23.8234 108.706 22.6957L105.632 23.5854ZM106.563 26.5178C107.145 28.1864 107.687 29.5156 108.194 30.4517C108.444 30.9135 108.725 31.3548 109.047 31.7023C109.323 32.0005 109.898 32.523 110.744 32.523V29.3233C111.272 29.3233 111.498 29.6403 111.394 29.5275C111.335 29.464 111.203 29.2888 111.008 28.9286C110.625 28.2207 110.149 27.0839 109.585 25.4645L106.563 26.5178Z" fill="#D53A84" fill-opacity="0.3" mask="url(#path-1-outside-1_940_119731)"/>
</svg>
