<svg aria-hidden="true" style="position: absolute; width: 0; height: 0; overflow: hidden;" version="1.1" xmlns="http://www.w3.org/2000/svg" xmlns:xlink="http://www.w3.org/1999/xlink">
<defs>
<symbol id="icon-location-color" viewBox="0 0 21 32">
<path fill="#7b1c49" style="fill: var(--color1, #7b1c49)" opacity="0.6" d="M10.521 32c3.605 0 6.528-0.556 6.528-1.241s-2.923-1.241-6.528-1.241-6.528 0.556-6.528 1.241c0 0.686 2.923 1.241 6.528 1.241z"></path>
<path fill="#d53a84" style="fill: var(--color2, #d53a84)" d="M21.040 10.766c-0.154 8.796-6.667 15.297-9.367 17.616-0.32 0.276-0.73 0.427-1.153 0.427s-0.833-0.152-1.153-0.427c-2.732-2.35-9.366-8.977-9.366-17.931-0.001-2.769 1.105-5.425 3.075-7.384s4.642-3.063 7.43-3.067c5.919-0.008 10.641 4.89 10.535 10.766z"></path>
<path fill="#fdf6fd" style="fill: var(--color3, #fdf6fd)" d="M10.521 17.863c4.161 0 7.535-3.35 7.535-7.483s-3.374-7.483-7.535-7.483c-4.162 0-7.535 3.35-7.535 7.483s3.374 7.483 7.535 7.483z"></path>
<path fill="#efefef" style="fill: var(--color4, #efefef)" d="M16.335 5.62c-1.446-1.183-3.283-1.788-5.154-1.698s-3.641 0.868-4.965 2.183c-1.324 1.315-2.108 3.073-2.198 4.931s0.519 3.682 1.71 5.118c-0.811-0.663-1.473-1.488-1.944-2.42s-0.741-1.953-0.791-2.995c-0.051-1.042 0.119-2.083 0.497-3.057s0.958-1.857 1.701-2.595 1.633-1.313 2.613-1.689c0.98-0.376 2.029-0.544 3.078-0.494s2.077 0.318 3.016 0.786c0.939 0.468 1.769 1.126 2.437 1.931z"></path>
<path fill="#ad2667" style="fill: var(--color5, #ad2667)" d="M21.040 10.766c-0.154 8.797-6.667 15.297-9.367 17.617-0.32 0.275-0.729 0.427-1.153 0.427s-0.833-0.152-1.153-0.427c-2.009-1.734-3.792-3.712-5.305-5.887 1.768 0.732 4.888 1.655 7.917 0.746 4.462-1.343 11.293-11.64 5.438-20.647 1.164 1.020 2.091 2.279 2.717 3.69s0.935 2.94 0.906 4.481z"></path>
<path fill="#f55ea6" style="fill: var(--color6, #f55ea6)" d="M8.777 0.854c-1.367 0.213-5.156 1.177-6.729 5.392-0.176 0.472 0.465 0.809 0.754 0.395 1.204-1.724 3.214-3.81 6.122-4.385 0.096-0.020 0.182-0.071 0.244-0.147s0.096-0.17 0.097-0.267l0.010-0.563c0.001-0.062-0.012-0.124-0.038-0.18s-0.064-0.107-0.111-0.147c-0.047-0.041-0.103-0.070-0.163-0.087s-0.123-0.021-0.185-0.011z"></path>
<path fill="#08070c" style="fill: var(--color7, #08070c)" d="M16.997 11.421c0.022 0 0.094-0.034 0.218-0.101l0.054-0.028 0.098 0.197c-0.029 0.030-0.067 0.066-0.114 0.107s-0.14 0.098-0.278 0.169c-0.134 0.071-0.263 0.107-0.387 0.107-0.12 0-0.218-0.032-0.294-0.096-0.073-0.068-0.133-0.177-0.18-0.327l-0.125-0.4c-0.272 0.304-0.476 0.577-0.61 0.817-0.025 0-0.089-0.019-0.191-0.056-0.098-0.038-0.171-0.070-0.218-0.096 0.105-0.192 0.408-0.532 0.909-1.020-0.127-0.395-0.229-0.671-0.305-0.829-0.014-0.030-0.102-0.137-0.261-0.321l0.016-0.068 0.332-0.073c0.192-0.030 0.363-0.049 0.512-0.056 0.076 0.064 0.136 0.182 0.18 0.355 0.047 0.173 0.084 0.304 0.109 0.395 0.269-0.304 0.445-0.56 0.528-0.767 0.102 0.015 0.201 0.055 0.3 0.118l0.049 0.028c-0.127 0.248-0.385 0.573-0.773 0.975 0.040 0.143 0.076 0.261 0.109 0.355 0.138 0.41 0.245 0.614 0.321 0.614z"></path>
<path fill="#08070c" style="fill: var(--color7, #08070c)" d="M13.101 10.829c0-0.47 0.136-0.84 0.408-1.111 0.276-0.274 0.588-0.412 0.937-0.412 0.214 0 0.39 0.055 0.528 0.163s0.207 0.256 0.207 0.44c0 0.18-0.045 0.333-0.136 0.457-0.087 0.124-0.194 0.22-0.321 0.287-0.258 0.132-0.494 0.214-0.708 0.248l-0.131 0.017c0.025 0.353 0.165 0.53 0.419 0.53 0.087 0 0.18-0.023 0.278-0.068s0.174-0.090 0.229-0.135l0.082-0.068 0.131 0.18c-0.029 0.041-0.087 0.096-0.174 0.163s-0.169 0.124-0.245 0.169c-0.211 0.12-0.441 0.18-0.692 0.18s-0.448-0.092-0.594-0.276c-0.145-0.184-0.218-0.44-0.218-0.767zM13.88 10.643c0.185-0.034 0.332-0.115 0.441-0.242s0.163-0.293 0.163-0.496-0.058-0.304-0.174-0.304c-0.138 0-0.245 0.122-0.321 0.366-0.073 0.241-0.109 0.466-0.109 0.676z"></path>
<path fill="#08070c" style="fill: var(--color7, #08070c)" d="M12.095 11.872c-0.123 0-0.227-0.043-0.31-0.13-0.080-0.086-0.12-0.207-0.12-0.361 0-0.158 0.089-0.656 0.267-1.494 0.182-0.842 0.272-1.449 0.272-1.821l-0.033-0.248c0.283-0.101 0.548-0.152 0.795-0.152 0.036 0.053 0.054 0.145 0.054 0.276 0 0.301-0.093 0.883-0.278 1.747-0.182 0.861-0.272 1.362-0.272 1.505 0 0.139 0.016 0.209 0.049 0.209l0.381-0.141 0.098 0.197c-0.123 0.101-0.274 0.195-0.452 0.282-0.174 0.086-0.325 0.13-0.452 0.13z"></path>
<path fill="#08070c" style="fill: var(--color7, #08070c)" d="M11.671 9.375c-0.007 0.083-0.040 0.192-0.098 0.327-0.138-0.015-0.274-0.023-0.408-0.023h-0.022c-0.076 0.928-0.147 1.614-0.212 2.057s-0.151 0.754-0.256 0.93c-0.131-0.004-0.267-0.023-0.408-0.056-0.138-0.030-0.232-0.062-0.283-0.096 0.087-0.278 0.174-0.697 0.261-1.257 0.091-0.56 0.149-1.077 0.174-1.55-0.102 0.008-0.214 0.021-0.338 0.039-0.011-0.049-0.016-0.098-0.016-0.147 0-0.053 0.007-0.128 0.022-0.226h0.349c0.007-0.327 0.024-0.575 0.049-0.744 0.044-0.301 0.143-0.536 0.3-0.705 0.16-0.173 0.365-0.259 0.615-0.259 0.16 0 0.285 0.038 0.376 0.113 0.094 0.071 0.142 0.186 0.142 0.344s-0.069 0.363-0.207 0.614c-0.138 0.248-0.32 0.46-0.545 0.637h0.506zM11.175 9.020c0.142-0.124 0.252-0.261 0.332-0.412s0.12-0.286 0.12-0.406c0-0.124-0.038-0.186-0.114-0.186-0.16 0-0.261 0.19-0.305 0.569-0.014 0.128-0.025 0.272-0.033 0.434z"></path>
<path fill="#08070c" style="fill: var(--color7, #08070c)" d="M6.793 10.829c0-0.47 0.136-0.84 0.408-1.111 0.276-0.274 0.588-0.412 0.937-0.412 0.214 0 0.39 0.055 0.528 0.163s0.207 0.256 0.207 0.44c0 0.18-0.045 0.333-0.136 0.457-0.087 0.124-0.194 0.22-0.321 0.287-0.258 0.132-0.494 0.214-0.708 0.248l-0.131 0.017c0.025 0.353 0.165 0.53 0.419 0.53 0.087 0 0.18-0.023 0.278-0.068s0.174-0.090 0.229-0.135l0.082-0.068 0.131 0.18c-0.029 0.041-0.087 0.096-0.174 0.163s-0.169 0.124-0.245 0.169c-0.211 0.12-0.441 0.18-0.692 0.18s-0.448-0.092-0.594-0.276c-0.145-0.184-0.218-0.44-0.218-0.767zM7.572 10.643c0.185-0.034 0.332-0.115 0.441-0.242s0.163-0.293 0.163-0.496-0.058-0.304-0.174-0.304c-0.138 0-0.245 0.122-0.321 0.366-0.073 0.241-0.109 0.466-0.109 0.676z"></path>
<path fill="#08070c" style="fill: var(--color7, #08070c)" d="M5.231 11.872c-0.196 0-0.445-0.038-0.746-0.113-0.189 0.053-0.365 0.079-0.528 0.079s-0.258-0.006-0.283-0.017c0.025-0.226 0.133-0.78 0.321-1.663 0.192-0.887 0.289-1.443 0.289-1.669 0-0.045-0.024-0.105-0.071-0.18s-0.094-0.139-0.142-0.192l-0.071-0.079 0.016-0.085c0.476-0.101 0.987-0.152 1.536-0.152 0.301 0 0.548 0.075 0.741 0.225 0.196 0.147 0.294 0.353 0.294 0.62 0 0.515-0.303 0.872-0.909 1.071 0.243 0.030 0.447 0.126 0.61 0.287 0.167 0.158 0.251 0.381 0.251 0.671 0 0.353-0.123 0.641-0.37 0.862s-0.559 0.333-0.937 0.333zM5.133 9.871c-0.102 0-0.192 0.009-0.272 0.028-0.156 0.714-0.256 1.212-0.3 1.494 0.091 0.064 0.232 0.096 0.425 0.096 0.196 0 0.363-0.079 0.501-0.237 0.138-0.162 0.207-0.393 0.207-0.693 0-0.458-0.187-0.688-0.561-0.688zM5.438 8.152c-0.138 0-0.22 0.013-0.245 0.039-0.051 0.338-0.134 0.782-0.251 1.33 0.145 0 0.247-0.009 0.305-0.028s0.109-0.043 0.152-0.073c0.047-0.030 0.1-0.077 0.158-0.141 0.127-0.139 0.191-0.361 0.191-0.665 0-0.308-0.103-0.462-0.31-0.462z"></path>
</symbol>
<symbol id="icon-arrow" viewBox="0 0 32 32">
<path d="M16.943 20.943c-0.25 0.25-0.589 0.39-0.943 0.39s-0.693-0.14-0.943-0.39l-7.543-7.543c-0.127-0.123-0.229-0.27-0.299-0.433s-0.107-0.338-0.108-0.515c-0.002-0.177 0.032-0.353 0.099-0.516s0.166-0.313 0.291-0.438c0.125-0.125 0.274-0.224 0.438-0.291s0.339-0.101 0.516-0.099c0.177 0.002 0.352 0.038 0.515 0.108s0.31 0.171 0.433 0.299l6.6 6.6 6.6-6.6c0.251-0.243 0.588-0.377 0.938-0.374s0.684 0.143 0.931 0.39c0.247 0.247 0.387 0.582 0.39 0.931s-0.131 0.686-0.374 0.938l-7.543 7.543z"></path>
</symbol>
<symbol id="icon-burger-menu" viewBox="0 0 32 32">
<path d="M4 22.667c-0.736 0-1.333 0.597-1.333 1.333v0c0 0.736 0.597 1.333 1.333 1.333v0h24c0.736 0 1.333-0.597 1.333-1.333v0c0-0.736-0.597-1.333-1.333-1.333v0z"></path>
<path d="M4 14.667c-0.736 0-1.333 0.597-1.333 1.333v0c0 0.736 0.597 1.333 1.333 1.333v0h24c0.736 0 1.333-0.597 1.333-1.333v0c0-0.736-0.597-1.333-1.333-1.333v0z"></path>
<path d="M4 6.667c-0.736 0-1.333 0.597-1.333 1.333v0c0 0.736 0.597 1.333 1.333 1.333v0h24c0.736 0 1.333-0.597 1.333-1.333v0c0-0.736-0.597-1.333-1.333-1.333v0z"></path>
</symbol>
<symbol id="icon-call" viewBox="0 0 32 32">
<path d="M16 0c8.837 0 16 7.163 16 16s-7.163 16-16 16c-8.837 0-16-7.163-16-16s7.163-16 16-16zM20.263 13.972c-0.078-0.632-0.272-1.129-0.617-1.568-0.448-0.566-1.021-0.905-1.868-1.106-0.553-0.134-0.776-0.119-0.976 0.064-0.186 0.171-0.223 0.514-0.080 0.736 0.1 0.161 0.215 0.219 0.536 0.282 0.427 0.079 0.723 0.181 0.991 0.334 0.57 0.329 0.836 0.845 0.864 1.679 0.013 0.392 0.047 0.512 0.184 0.651 0.254 0.254 0.705 0.205 0.896-0.099 0.070-0.115 0.081-0.164 0.088-0.43 0.005-0.165-0.002-0.41-0.019-0.541zM20.27 10.093c-0.764-0.616-1.687-1.040-2.7-1.246-0.371-0.074-1.053-0.133-1.171-0.099-0.11 0.032-0.267 0.151-0.336 0.259-0.074 0.117-0.090 0.379-0.027 0.531 0.101 0.253 0.29 0.343 0.819 0.389 0.815 0.071 1.655 0.358 2.29 0.781 0.725 0.482 1.301 1.142 1.674 1.918 0.322 0.666 0.52 1.626 0.515 2.486-0.002 0.311 0.046 0.487 0.171 0.615 0.189 0.197 0.464 0.241 0.707 0.109 0.269-0.142 0.332-0.39 0.285-1.153-0.113-1.937-0.87-3.495-2.226-4.592zM24.968 22.144c-0.038-0.111-0.126-0.281-0.189-0.38-0.398-0.601-2.536-2.274-3.603-2.821-0.609-0.313-1.061-0.417-1.396-0.319-0.36 0.101-0.549 0.269-1.153 1.018-0.243 0.3-0.493 0.582-0.559 0.626-0.164 0.114-0.486 0.206-0.714 0.206-0.527-0.003-1.484-0.345-2.22-0.794-0.572-0.348-1.304-0.971-1.866-1.588-0.663-0.724-1.115-1.363-1.472-2.084-0.461-0.927-0.578-1.493-0.385-1.907 0.047-0.104 0.111-0.215 0.139-0.25 0.028-0.031 0.325-0.275 0.654-0.541 0.644-0.512 0.748-0.629 0.868-0.98 0.152-0.446 0.111-0.901-0.123-1.36-0.18-0.348-0.651-1.107-0.992-1.597-0.452-0.645-1.576-2.024-1.8-2.211-0.404-0.329-0.922-0.386-1.494-0.164-0.603 0.234-1.734 1.145-2.217 1.781-0.436 0.576-0.603 0.984-0.628 1.521-0.022 0.443 0.016 0.626 0.249 1.192 1.828 4.44 4.557 7.985 8.305 10.8 1.958 1.471 3.988 2.59 6.095 3.355 1.228 0.446 1.762 0.468 2.391 0.101 0.265-0.158 0.922-0.832 1.288-1.322 0.606-0.816 0.831-1.192 0.894-1.493 0.044-0.206 0.009-0.563-0.073-0.791zM24.161 12.134c-0.38-0.986-0.764-1.629-1.49-2.499-0.686-0.816-1.219-1.281-2.065-1.8-1.179-0.722-2.615-1.2-4.223-1.401-0.549-0.070-0.673-0.065-0.841 0.047-0.326 0.213-0.322 0.743 0.005 0.953 0.108 0.067 0.204 0.091 0.643 0.148 0.674 0.091 1.107 0.176 1.621 0.316 2.015 0.551 3.565 1.677 4.601 3.349 0.867 1.393 1.227 2.787 1.176 4.566-0.018 0.602-0.005 0.707 0.087 0.852 0.176 0.269 0.641 0.323 0.879 0.099 0.148-0.136 0.176-0.239 0.205-0.753 0.014-0.269 0.017-0.665 0.011-0.882-0.040-1.096-0.225-1.994-0.609-2.996z"></path>
</symbol>
<symbol id="icon-clock" viewBox="0 0 32 32">
<path d="M16 2.909c-7.23 0-13.091 5.861-13.091 13.091s5.861 13.091 13.091 13.091c7.23 0 13.091-5.861 13.091-13.091s-5.861-13.091-13.091-13.091zM0 16c0-8.837 7.163-16 16-16s16 7.163 16 16c0 8.837-7.163 16-16 16s-16-7.163-16-16z"></path>
<path d="M16 5.818c0.803 0 1.455 0.651 1.455 1.455v7.828l5.014 2.507c0.719 0.359 1.010 1.233 0.65 1.951s-1.233 1.010-1.951 0.65l-5.818-2.909c-0.493-0.246-0.804-0.75-0.804-1.301v-8.727c0-0.803 0.651-1.455 1.455-1.455z"></path>
</symbol>
<symbol id="icon-facebook" viewBox="0 0 32 32">
<path d="M16 0c-8.837 0-16 7.163-16 16s7.163 16 16 16c8.837 0 16-7.163 16-16s-7.163-16-16-16zM17.668 16.703v8.705h-3.602v-8.704h-1.799v-3h1.799v-1.801c0-2.447 1.016-3.902 3.903-3.902h2.403v3h-1.502c-1.124 0-1.198 0.419-1.198 1.202l-0.004 1.501h2.721l-0.318 3h-2.403z"></path>
</symbol>
<symbol id="icon-instagram" viewBox="0 0 32 32">
<path d="M16 0c-8.837 0-16 7.163-16 16s7.163 16 16 16c8.837 0 16-7.163 16-16s-7.163-16-16-16zM12.482 7.518c0.91-0.041 1.201-0.052 3.519-0.052h-0.003c2.318 0 2.608 0.010 3.518 0.052 0.908 0.042 1.529 0.185 2.073 0.396 0.562 0.218 1.036 0.509 1.511 0.984s0.766 0.95 0.985 1.512c0.21 0.543 0.354 1.163 0.396 2.071 0.041 0.91 0.052 1.201 0.052 3.519s-0.011 2.608-0.052 3.518c-0.043 0.908-0.187 1.528-0.396 2.071-0.219 0.561-0.51 1.037-0.985 1.512s-0.949 0.767-1.511 0.985c-0.543 0.211-1.164 0.355-2.072 0.397-0.91 0.041-1.2 0.051-3.518 0.051s-2.608-0.010-3.518-0.051c-0.908-0.042-1.529-0.185-2.072-0.397-0.561-0.218-1.037-0.51-1.511-0.985s-0.766-0.951-0.984-1.512c-0.211-0.543-0.355-1.163-0.396-2.071-0.041-0.91-0.052-1.2-0.052-3.518s0.011-2.609 0.051-3.519c0.041-0.908 0.185-1.528 0.396-2.071 0.219-0.561 0.51-1.037 0.985-1.511s0.95-0.766 1.512-0.984c0.543-0.211 1.163-0.355 2.071-0.396z"></path>
<path d="M15.235 9.004v-0.002c-1.59 0.002-1.895 0.012-2.683 0.048-0.832 0.038-1.284 0.177-1.585 0.294-0.398 0.155-0.683 0.34-0.981 0.639s-0.484 0.583-0.639 0.981c-0.117 0.301-0.256 0.752-0.294 1.584-0.041 0.9-0.049 1.168-0.049 3.447s0.008 2.549 0.049 3.449c0.038 0.832 0.177 1.284 0.294 1.584 0.155 0.398 0.34 0.682 0.639 0.981s0.583 0.484 0.981 0.638c0.301 0.117 0.753 0.256 1.585 0.294 0.899 0.041 1.17 0.050 3.448 0.050s2.549-0.009 3.448-0.050c0.832-0.038 1.284-0.177 1.584-0.294 0.398-0.155 0.682-0.34 0.981-0.638s0.484-0.582 0.639-0.98c0.117-0.3 0.256-0.752 0.294-1.584 0.041-0.899 0.050-1.17 0.050-3.447s-0.009-2.548-0.050-3.447c-0.038-0.832-0.177-1.284-0.294-1.584-0.155-0.398-0.34-0.683-0.639-0.981s-0.582-0.484-0.981-0.638c-0.301-0.117-0.752-0.256-1.584-0.294-0.9-0.041-1.17-0.049-3.448-0.049l-0.284-0c-0.173-0-0.332-0-0.481 0zM20.556 10.421v-0c0.565 0 1.024 0.459 1.024 1.024s-0.459 1.024-1.024 1.024c-0.565 0-1.024-0.459-1.024-1.024s0.459-1.024 1.024-1.024zM11.619 16c0-2.42 1.962-4.382 4.382-4.382s4.382 1.962 4.382 4.382-1.961 4.381-4.382 4.381c-2.42 0-4.382-1.961-4.382-4.381z"></path>
<path d="M16.001 13.156c1.571 0 2.845 1.273 2.845 2.845s-1.274 2.844-2.845 2.844-2.844-1.274-2.844-2.844c0-1.571 1.273-2.845 2.844-2.845z"></path>
</symbol>
<symbol id="icon-location-bw" viewBox="0 0 27 32">
<path d="M13.333 2.667c-2.829 0-5.542 1.124-7.542 3.124s-3.124 4.713-3.124 7.542c0 4.131 2.688 8.139 5.635 11.25 1.446 1.527 2.897 2.776 3.988 3.645 0.406 0.323 0.76 0.593 1.044 0.802 0.284-0.21 0.639-0.479 1.044-0.802 1.091-0.868 2.541-2.118 3.988-3.645 2.947-3.111 5.635-7.119 5.635-11.25 0-2.829-1.124-5.542-3.124-7.542s-4.714-3.124-7.543-3.124zM13.333 30.667c-0.74 1.109-0.74 1.109-0.74 1.109l-0.004-0.003-0.039-0.027c-0.026-0.018-0.063-0.043-0.11-0.076-0.095-0.066-0.231-0.161-0.402-0.285-0.343-0.248-0.829-0.609-1.409-1.072-1.159-0.923-2.709-2.257-4.262-3.897-3.053-3.223-6.365-7.881-6.365-13.084 0-3.536 1.405-6.928 3.905-9.428s5.892-3.905 9.428-3.905c3.536 0 6.928 1.405 9.428 3.905s3.905 5.892 3.905 9.428c0 5.203-3.312 9.861-6.365 13.084-1.554 1.64-3.103 2.974-4.262 3.897-0.581 0.462-1.066 0.824-1.409 1.072-0.172 0.124-0.308 0.219-0.402 0.285-0.047 0.033-0.084 0.058-0.11 0.076l-0.031 0.021-0.009 0.006-0.003 0.002c0 0-0.002 0.001-0.741-1.108zM13.333 30.667l0.74 1.109c-0.448 0.299-1.032 0.298-1.48-0.001l0.74-1.109z"></path>
<path d="M13.333 10.667c-1.473 0-2.667 1.194-2.667 2.667s1.194 2.667 2.667 2.667c1.473 0 2.667-1.194 2.667-2.667s-1.194-2.667-2.667-2.667zM8 13.333c0-2.946 2.388-5.333 5.333-5.333s5.333 2.388 5.333 5.333c0 2.945-2.388 5.333-5.333 5.333s-5.333-2.388-5.333-5.333z"></path>
</symbol>
<symbol id="icon-logo" viewBox="0 0 91 32">
<path d="M88.529 24.027c0.145 0 0.627-0.216 1.447-0.649l0.362-0.18 0.651 1.263c-0.193 0.192-0.446 0.421-0.76 0.685s-0.929 0.625-1.846 1.082c-0.893 0.457-1.749 0.685-2.569 0.685-0.796 0-1.447-0.204-1.954-0.613-0.483-0.433-0.881-1.13-1.194-2.092l-0.832-2.561c-1.809 1.948-3.16 3.692-4.053 5.231-0.169 0-0.591-0.12-1.266-0.361-0.651-0.241-1.134-0.445-1.448-0.613 0.7-1.227 2.714-3.403 6.043-6.53-0.844-2.525-1.52-4.293-2.026-5.303-0.097-0.192-0.675-0.878-1.737-2.056l0.108-0.433 2.207-0.469c1.279-0.192 2.412-0.313 3.402-0.361 0.507 0.409 0.905 1.166 1.194 2.273 0.314 1.106 0.555 1.948 0.724 2.525 1.785-1.948 2.955-3.584 3.51-4.906 0.676 0.096 1.339 0.349 1.99 0.758l0.326 0.18c-0.844 1.587-2.557 3.668-5.139 6.241 0.265 0.914 0.507 1.671 0.724 2.273 0.917 2.622 1.628 3.932 2.135 3.932z"></path>
<path d="M62.641 20.239c0-3.006 0.905-5.375 2.714-7.107 1.834-1.756 3.908-2.634 6.224-2.634 1.423 0 2.593 0.349 3.51 1.046s1.375 1.635 1.375 2.814c0 1.154-0.302 2.128-0.905 2.922-0.579 0.794-1.291 1.407-2.135 1.84-1.713 0.842-3.281 1.371-4.704 1.587l-0.869 0.108c0.169 2.261 1.098 3.391 2.786 3.391 0.579 0 1.194-0.144 1.846-0.433s1.158-0.577 1.52-0.866l0.543-0.433 0.869 1.155c-0.193 0.265-0.579 0.613-1.158 1.046s-1.122 0.794-1.628 1.082c-1.399 0.77-2.931 1.154-4.596 1.154s-2.979-0.589-3.944-1.768c-0.965-1.178-1.447-2.814-1.447-4.906zM67.815 19.048c1.23-0.216 2.207-0.734 2.931-1.551s1.086-1.876 1.086-3.175-0.386-1.948-1.158-1.948c-0.917 0-1.628 0.782-2.135 2.345-0.483 1.539-0.724 2.982-0.724 4.329z"></path>
<path d="M55.959 26.913c-0.82 0-1.508-0.277-2.063-0.83-0.531-0.553-0.796-1.323-0.796-2.309 0-1.010 0.591-4.197 1.773-9.56 1.206-5.387 1.809-9.272 1.809-11.653l-0.217-1.587c1.882-0.649 3.643-0.974 5.283-0.974 0.241 0.337 0.362 0.926 0.362 1.768 0 1.924-0.615 5.652-1.846 11.184-1.206 5.508-1.809 8.718-1.809 9.632 0 0.89 0.108 1.335 0.326 1.335l2.533-0.902 0.651 1.263c-0.82 0.649-1.821 1.251-3.004 1.804-1.158 0.553-2.159 0.83-3.003 0.83z"></path>
<path d="M53.138 10.931c-0.048 0.529-0.265 1.227-0.651 2.092-0.917-0.096-1.821-0.144-2.714-0.144h-0.145c-0.507 5.941-0.977 10.33-1.411 13.168s-1.001 4.822-1.701 5.953c-0.869-0.024-1.773-0.144-2.714-0.361-0.917-0.192-1.544-0.397-1.882-0.613 0.579-1.78 1.158-4.461 1.737-8.045 0.603-3.584 0.989-6.891 1.158-9.921-0.675 0.048-1.423 0.132-2.244 0.253-0.072-0.313-0.109-0.625-0.109-0.938 0-0.337 0.048-0.818 0.145-1.443h2.316c0.048-2.092 0.157-3.68 0.326-4.762 0.29-1.924 0.953-3.427 1.99-4.51 1.062-1.106 2.425-1.66 4.089-1.66 1.062 0 1.894 0.24 2.497 0.722 0.627 0.457 0.941 1.191 0.941 2.201s-0.458 2.321-1.375 3.932c-0.917 1.587-2.123 2.946-3.619 4.077h3.365zM49.845 8.658c0.941-0.794 1.677-1.672 2.208-2.634s0.796-1.828 0.796-2.598c0-0.794-0.253-1.191-0.76-1.191-1.062 0-1.737 1.215-2.026 3.644-0.096 0.818-0.169 1.744-0.217 2.778z"></path>
<path d="M20.729 20.239c0-3.006 0.905-5.375 2.714-7.107 1.833-1.756 3.908-2.634 6.224-2.634 1.423 0 2.593 0.349 3.51 1.046s1.375 1.635 1.375 2.814c0 1.154-0.302 2.128-0.905 2.922-0.579 0.794-1.291 1.407-2.135 1.84-1.713 0.842-3.281 1.371-4.704 1.587l-0.869 0.108c0.169 2.261 1.098 3.391 2.786 3.391 0.579 0 1.194-0.144 1.846-0.433s1.158-0.577 1.52-0.866l0.543-0.433 0.869 1.155c-0.193 0.265-0.579 0.613-1.158 1.046s-1.122 0.794-1.628 1.082c-1.399 0.77-2.931 1.154-4.596 1.154s-2.979-0.589-3.944-1.768c-0.965-1.178-1.447-2.814-1.447-4.906zM25.903 19.048c1.23-0.216 2.207-0.734 2.931-1.551s1.086-1.876 1.086-3.175-0.386-1.948-1.158-1.948c-0.917 0-1.628 0.782-2.135 2.345-0.483 1.539-0.724 2.982-0.724 4.329z"></path>
<path d="M10.349 26.913c-1.303 0-2.955-0.241-4.958-0.721-1.254 0.337-2.425 0.505-3.51 0.505s-1.713-0.036-1.882-0.108c0.169-1.443 0.881-4.991 2.135-10.643 1.279-5.676 1.918-9.236 1.918-10.679 0-0.289-0.157-0.673-0.47-1.154s-0.627-0.89-0.941-1.227l-0.47-0.505 0.109-0.541c3.16-0.649 6.562-0.974 10.205-0.974 2.002 0 3.643 0.481 4.921 1.443 1.303 0.938 1.954 2.261 1.954 3.968 0 3.295-2.014 5.58-6.043 6.855 1.616 0.192 2.967 0.806 4.053 1.84 1.11 1.010 1.665 2.441 1.665 4.293 0 2.261-0.82 4.101-2.461 5.52s-3.715 2.128-6.224 2.128zM9.698 14.106c-0.675 0-1.279 0.060-1.809 0.18-1.037 4.57-1.701 7.756-1.99 9.56 0.603 0.409 1.544 0.613 2.823 0.613 1.303 0 2.412-0.505 3.329-1.515 0.917-1.034 1.375-2.513 1.375-4.438 0-2.934-1.242-4.401-3.727-4.401zM11.725 3.103c-0.917 0-1.46 0.084-1.628 0.253-0.338 2.165-0.893 5.003-1.665 8.514 0.965 0 1.64-0.060 2.026-0.18s0.724-0.277 1.013-0.469c0.314-0.192 0.663-0.493 1.049-0.902 0.844-0.89 1.267-2.309 1.267-4.257 0-1.972-0.688-2.958-2.063-2.958z"></path>
</symbol>
<symbol id="icon-mail" viewBox="0 0 32 32">
<path d="M16 0c-8.837 0-16 7.163-16 16s7.163 16 16 16c8.837 0 16-7.163 16-16s-7.163-16-16-16zM6.667 15.973c0-5.132 4.187-9.307 9.333-9.307s9.333 4.175 9.333 9.307c0 0.727-0.061 1.316-0.197 1.906l-0.002 0.010c-0 0.002-0.068 0.274-0.105 0.393-0.231 0.736-0.648 1.348-1.208 1.772-0.543 0.411-1.215 0.637-1.894 0.637-0.084 0-0.168-0.003-0.251-0.010-0.964-0.077-1.812-0.583-2.332-1.39-0.894 0.897-2.080 1.39-3.345 1.39-2.603 0-4.721-2.112-4.721-4.708s2.118-4.707 4.721-4.707 4.721 2.112 4.721 4.707v1.518c0.004 0.885 0.6 1.247 1.109 1.288 0.507 0.039 1.181-0.255 1.415-1.215 0.116-0.527 0.175-1.062 0.175-1.591 0-4.080-3.329-7.399-7.42-7.399s-7.42 3.319-7.42 7.399c0 4.080 3.328 7.399 7.42 7.399 1.424 0 2.809-0.406 4.005-1.173l0.021-0.014 1.257 1.458-0.027 0.018c-1.554 1.059-3.372 1.619-5.257 1.619-5.146 0-9.333-4.175-9.333-9.307z"></path>
<path d="M18.807 15.974c0 1.544-1.259 2.799-2.807 2.799s-2.807-1.256-2.807-2.799 1.259-2.799 2.807-2.799c1.548 0 2.807 1.256 2.807 2.799z"></path>
</symbol>
<symbol id="icon-phone" viewBox="0 0 32 32">
<path d="M19.546 0.008c-0.047-0.006-0.101-0.009-0.155-0.009-0.714 0-1.302 0.538-1.382 1.231l-0.001 0.006c-0.006 0.047-0.009 0.1-0.009 0.155 0 0.715 0.539 1.304 1.233 1.382l0.006 0.001c2.51 0.279 4.849 1.403 6.636 3.187s2.914 4.121 3.196 6.63c0.080 0.699 0.669 1.237 1.383 1.237 0.055 0 0.109-0.003 0.162-0.009l-0.006 0.001c0.699-0.080 1.237-0.669 1.237-1.383 0-0.055-0.003-0.109-0.009-0.162l0.001 0.006c-0.352-3.136-1.762-6.060-3.995-8.291s-5.159-3.635-8.296-3.984zM4.171 1.391c-0.579 0.001-1.155 0.122-1.685 0.356s-1.003 0.575-1.394 1.003c-0.391 0.428-0.69 0.935-0.875 1.484s-0.253 1.129-0.201 1.707c0.002 0.014 0.002 0.022 0.004 0.029l-0.001-0.007c0.479 4.514 2.015 8.852 4.481 12.663 2.246 3.534 5.24 6.529 8.774 8.774 3.793 2.458 8.11 3.993 12.603 4.481 0.002 0 0.010 0.001 0.018 0.002l0.006 0.001c0.579 0.052 1.164-0.018 1.715-0.204s1.056-0.485 1.484-0.878c0.428-0.392 0.77-0.87 1.003-1.402v-0.003c0.232-0.532 0.353-1.107 0.351-1.688v-4.133c0.025-1.023-0.327-2.021-0.989-2.802s-1.587-1.292-2.601-1.435c0.005 0.001-0-0-0.005-0.001l-0.009-0.002c-1.231-0.162-2.44-0.463-3.603-0.897h-0.003c-0.746-0.28-1.555-0.34-2.334-0.174s-1.498 0.553-2.065 1.114c-0.002 0.002-0.004 0.004-0.005 0.005l-0.916 0.916c-2.576-1.639-4.741-3.805-6.38-6.38l0.916-0.916c0.002-0.002 0.004-0.004 0.005-0.005l0-0c0.561-0.567 0.948-1.285 1.114-2.065s0.106-1.591-0.174-2.337v-0.003c-0.434-1.163-0.734-2.37-0.897-3.601-0.002-0.013-0.003-0.018-0.004-0.023l0.002 0.009c-0.142-1.002-0.643-1.921-1.41-2.582s-1.751-1.018-2.764-1.008zM4.171 4.174h4.174c0.002 0 0.004 0 0.007 0s0.005 0 0.007-0h-0c0.338-0.003 0.665 0.117 0.921 0.337s0.423 0.524 0.47 0.859c0.19 1.436 0.543 2.844 1.049 4.201 0 0.001 0 0.002 0 0.003s0 0.002 0 0.003v-0c0.094 0.249 0.115 0.517 0.060 0.777s-0.185 0.501-0.372 0.69l-1.761 1.761c-0.252 0.252-0.407 0.6-0.407 0.984 0 0.253 0.067 0.49 0.185 0.694l-0.004-0.007c2.104 3.701 5.169 6.765 8.87 8.87 0.198 0.114 0.435 0.182 0.688 0.182 0.384 0 0.732-0.156 0.984-0.407l1.761-1.761c0.189-0.187 0.427-0.317 0.688-0.372s0.531-0.034 0.78 0.060c0 0 0.001 0 0.001 0s0.001 0 0.001 0h-0c1.361 0.508 2.775 0.859 4.215 1.049h-0.011c0.338 0.048 0.646 0.218 0.867 0.478s0.337 0.591 0.329 0.932c-0 0.005-0 0.011-0 0.018s0 0.012 0 0.019v-0.001 4.174c0 0.001 0 0.002 0 0.003s0 0.002 0 0.003v-0c0.001 0.194-0.039 0.385-0.117 0.563s-0.192 0.337-0.334 0.467c-0.143 0.131-0.311 0.232-0.495 0.293-0.181 0.061-0.372 0.084-0.563 0.068-4.059-0.444-7.957-1.83-11.383-4.052-0-0-0.004-0.003-0.007-0.006l-0.004-0.003c-3.189-2.026-5.895-4.729-7.921-7.918-0.005-0.012-0.007-0.015-0.009-0.019l0.004 0.008c-2.23-3.442-3.619-7.36-4.054-11.438-0.016-0.191 0.007-0.381 0.068-0.563 0.062-0.183 0.16-0.352 0.291-0.495s0.288-0.256 0.465-0.334c0.176-0.078 0.368-0.119 0.56-0.12zM19.658 5.59c-0.080-0.016-0.171-0.025-0.265-0.025-0.675 0-1.237 0.48-1.364 1.117l-0.001 0.009c-0.017 0.080-0.026 0.173-0.026 0.268 0 0.674 0.479 1.236 1.115 1.364l0.009 0.002c1.087 0.212 2.086 0.741 2.87 1.524s1.315 1.782 1.527 2.87c0.129 0.646 0.691 1.126 1.366 1.126 0.095 0 0.187-0.009 0.276-0.027l-0.009 0.002c0.645-0.13 1.124-0.692 1.124-1.365 0-0.095-0.009-0.187-0.028-0.277l0.002 0.009c-0.318-1.631-1.116-3.13-2.291-4.304s-2.674-1.973-4.304-2.291z"></path>
</symbol>
<symbol id="icon-star" viewBox="0 0 32 32">
<path d="M16-1.92l-4.707 11.608c-0.17 0.42-0.535 0.719-0.986 0.759l-12.054 1.068 9.136 8.276c0.341 0.309 0.487 0.798 0.386 1.25l-2.744 12.293 10.369-6.54c0.379-0.238 0.823-0.239 1.202 0l10.366 6.54-2.744-12.293c-0.101-0.452 0.045-0.941 0.386-1.25l9.136-8.276-12.054-1.068c-0.451-0.040-0.816-0.339-0.986-0.759l-0.548-1.347zM16 5.821l1.739 4.293 0.273 0.668 0.545 1.349 0.369-0.151c0.662 0.709 1.476 1.272 2.511 1.364l5.426 0.48-4.207 3.81c-1.143 1.035-1.593 2.591-1.27 4.040l1.219 5.469-4.449-2.81c-0.87-0.549-1.877-0.596-2.858-0.418l-0.224-0.358-1.227 0.776h-0.003l-1.23 0.778-3.219 2.031 1.219-5.469c0.323-1.449-0.127-3.005-1.27-4.040l-4.207-3.81 5.426-0.48c1.578-0.14 2.868-1.185 3.426-2.563z"></path>
</symbol>
<symbol id="icon-timer" viewBox="0 0 32 32">
<path d="M29.447 23.041c0.803 0 1.455-0.651 1.455-1.455s-0.651-1.455-1.455-1.455c-0.803 0-1.455 0.651-1.455 1.455s0.651 1.455 1.455 1.455z"></path>
<path d="M26.275 27.727c0.803 0 1.455-0.651 1.455-1.455s-0.651-1.455-1.455-1.455c-0.803 0-1.455 0.651-1.455 1.455s0.651 1.455 1.455 1.455z"></path>
<path d="M30.541 17.46c0.803 0 1.455-0.651 1.455-1.455s-0.651-1.455-1.455-1.455c-0.803 0-1.455 0.651-1.455 1.455s0.651 1.455 1.455 1.455z"></path>
<path d="M21.564 30.905c0.803 0 1.455-0.651 1.455-1.455s-0.651-1.455-1.455-1.455c-0.803 0-1.455 0.651-1.455 1.455s0.651 1.455 1.455 1.455z"></path>
<path d="M16 29.091c-2.095 0.003-4.16-0.498-6.021-1.459s-3.465-2.355-4.676-4.064-1.994-3.685-2.284-5.759c-0.289-2.075-0.077-4.189 0.621-6.164s1.858-3.755 3.386-5.189 3.377-2.48 5.392-3.051c2.016-0.571 4.139-0.649 6.191-0.229s3.974 1.326 5.604 2.643h-2.394c-0.386 0-0.756 0.153-1.029 0.426s-0.426 0.643-0.426 1.029 0.153 0.756 0.426 1.028c0.273 0.273 0.643 0.426 1.029 0.426h5.818c0.386 0 0.756-0.153 1.029-0.426s0.426-0.643 0.426-1.029v-5.818c0-0.386-0.153-0.756-0.426-1.029s-0.643-0.426-1.029-0.426c-0.386 0-0.756 0.153-1.029 0.426s-0.426 0.643-0.426 1.029v2.227c-1.978-1.635-4.32-2.771-6.83-3.31s-5.111-0.467-7.586 0.211c-2.475 0.678-4.751 1.942-6.635 3.685s-3.321 3.913-4.189 6.329c-0.868 2.415-1.143 5.004-0.8 7.547s1.293 4.967 2.769 7.066c1.477 2.099 3.437 3.812 5.715 4.994s4.807 1.798 7.374 1.797c0.386 0 0.756-0.153 1.029-0.426s0.426-0.643 0.426-1.029-0.153-0.756-0.426-1.029c-0.273-0.273-0.643-0.426-1.029-0.426z"></path>
<path d="M21.392 21.392c0.273-0.273 0.426-0.643 0.426-1.028s-0.153-0.756-0.426-1.028l-3.937-3.937v-8.125c0-0.386-0.153-0.756-0.426-1.029s-0.643-0.426-1.028-0.426c-0.386 0-0.756 0.153-1.028 0.426s-0.426 0.643-0.426 1.029v8.727c0 0.386 0.153 0.756 0.426 1.028l4.364 4.364c0.273 0.273 0.643 0.426 1.028 0.426s0.756-0.153 1.028-0.426z"></path>
</symbol>
<symbol id="icon-whatsapp" viewBox="0 0 32 32">
<path d="M0 16c0 8.837 7.163 16 16 16s16-7.163 16-16c0-8.837-7.163-16-16-16s-16 7.163-16 16zM26.041 15.388c-0.002 5.244-4.269 9.512-9.514 9.514h-0.004c-1.592-0.001-3.157-0.4-4.547-1.158l-5.044 1.323 1.35-4.93c-0.833-1.443-1.271-3.080-1.27-4.756 0.002-5.246 4.27-9.513 9.514-9.513 2.545 0.001 4.934 0.992 6.73 2.79s2.785 4.189 2.784 6.731z"></path>
<path d="M9.217 22.806l2.993-0.785 0.289 0.171c1.214 0.72 2.606 1.102 4.025 1.102h0.003c4.359 0 7.906-3.547 7.908-7.908 0.001-2.113-0.821-4.1-2.314-5.594s-3.478-2.318-5.591-2.319c-4.362 0-7.909 3.547-7.911 7.907-0.001 1.494 0.417 2.949 1.209 4.208l0.188 0.299-0.799 2.918zM20.995 17.436c0.166 0.080 0.278 0.134 0.326 0.214 0.059 0.099 0.059 0.575-0.139 1.13s-1.148 1.062-1.605 1.13c-0.409 0.061-0.928 0.087-1.497-0.094-0.345-0.109-0.788-0.256-1.355-0.501-2.229-0.962-3.735-3.122-4.019-3.531-0.020-0.029-0.034-0.049-0.042-0.059l-0.002-0.003c-0.126-0.168-0.969-1.293-0.969-2.457 0-1.095 0.538-1.669 0.786-1.933 0.017-0.018 0.033-0.035 0.047-0.050 0.218-0.238 0.475-0.297 0.634-0.297s0.317 0.001 0.456 0.008c0.017 0.001 0.035 0.001 0.053 0.001 0.139-0.001 0.311-0.002 0.482 0.407 0.065 0.158 0.161 0.391 0.263 0.637 0.205 0.498 0.431 1.048 0.47 1.128 0.059 0.119 0.099 0.258 0.020 0.417-0.012 0.024-0.023 0.046-0.033 0.068-0.060 0.121-0.103 0.211-0.204 0.329-0.040 0.046-0.081 0.096-0.122 0.146-0.082 0.1-0.164 0.199-0.235 0.27-0.119 0.119-0.243 0.247-0.104 0.485s0.616 1.017 1.323 1.647c0.76 0.678 1.42 0.964 1.755 1.109 0.065 0.028 0.118 0.051 0.157 0.071 0.238 0.119 0.376 0.099 0.515-0.059s0.594-0.694 0.753-0.932c0.158-0.238 0.317-0.198 0.535-0.119s1.387 0.655 1.625 0.773c0.046 0.023 0.090 0.044 0.13 0.064z"></path>
</symbol>
<symbol id="icon-checked" viewBox="0 0 32 32">
<path d="M25.605 6.938l-13.605 13.609-5.605-5.609c-0.271-0.271-0.646-0.439-1.061-0.439s-0.789 0.168-1.061 0.439v0c-0.273 0.272-0.441 0.647-0.441 1.063s0.169 0.791 0.441 1.062l6.664 6.664c0.271 0.271 0.646 0.439 1.061 0.439s0.789-0.168 1.061-0.439l14.668-14.664c0.273-0.272 0.441-0.647 0.441-1.063s-0.169-0.791-0.441-1.062l-0-0c-0.271-0.271-0.646-0.439-1.061-0.439s-0.789 0.168-1.061 0.439v0z"></path>
</symbol>
<symbol id="icon-close-btn" viewBox="0 0 32 32">
<path d="M27.115 4.336l-24 21.333c-0.276 0.245-0.448 0.601-0.448 0.997 0 0.34 0.128 0.651 0.338 0.887l-0.001-0.001c0.245 0.276 0.601 0.448 0.997 0.448 0.34 0 0.651-0.128 0.887-0.338l-0.001 0.001 24-21.333c0.276-0.245 0.448-0.601 0.448-0.997 0-0.34-0.128-0.651-0.338-0.887l0.001 0.001c-0.245-0.276-0.601-0.448-0.997-0.448-0.34 0-0.651 0.128-0.887 0.338l0.001-0.001z"></path>
<path d="M3.922 4.003c-0.367 0.022-0.691 0.189-0.918 0.444l-0.001 0.001c-0.209 0.234-0.336 0.545-0.336 0.885 0 0.396 0.173 0.752 0.447 0.996l0.001 0.001 24 21.333c0.234 0.209 0.545 0.336 0.885 0.336 0.396 0 0.752-0.173 0.996-0.447l0.001-0.001c0.209-0.234 0.336-0.545 0.336-0.885 0-0.396-0.173-0.752-0.447-0.996l-0.001-0.001-24-21.333c-0.234-0.208-0.545-0.336-0.885-0.336-0.028 0-0.055 0.001-0.083 0.003l0.004-0z"></path>
</symbol>
</defs>
</svg>

