<svg aria-hidden="true" style="position: absolute; width: 0; height: 0; overflow: hidden;" version="1.1" xmlns="http://www.w3.org/2000/svg" xmlns:xlink="http://www.w3.org/1999/xlink">
<defs>
<symbol id="icon-be-flex-location" viewBox="0 0 21 32">
<path fill="#7b1c49" style="fill: var(--color1, #7b1c49)" opacity="0.6" d="M10.521 32c3.605 0 6.528-0.556 6.528-1.241s-2.923-1.241-6.528-1.241c-3.605 0-6.528 0.556-6.528 1.241s2.923 1.241 6.528 1.241z"></path>
<path fill="#d53a84" style="fill: var(--color2, #d53a84)" d="M21.040 10.766c-0.154 8.796-6.667 15.297-9.367 17.616-0.32 0.276-0.73 0.427-1.153 0.427s-0.833-0.152-1.153-0.427c-2.732-2.35-9.366-8.977-9.366-17.931-0.001-2.769 1.105-5.425 3.075-7.384s4.642-3.063 7.43-3.067c5.919-0.008 10.641 4.89 10.535 10.766z"></path>
<path fill="#fdf6fd" style="fill: var(--color3, #fdf6fd)" d="M10.521 17.862c4.161 0 7.535-3.35 7.535-7.483s-3.374-7.483-7.535-7.483c-4.162 0-7.535 3.35-7.535 7.483s3.374 7.483 7.535 7.483z"></path>
<path fill="#efefef" style="fill: var(--color4, #efefef)" d="M16.335 5.62c-1.446-1.183-3.283-1.788-5.154-1.698s-3.641 0.868-4.965 2.183c-1.324 1.315-2.108 3.073-2.198 4.931s0.519 3.682 1.71 5.118c-0.811-0.663-1.473-1.488-1.944-2.42s-0.741-1.953-0.791-2.995c-0.051-1.042 0.119-2.083 0.497-3.057s0.958-1.857 1.701-2.595 1.633-1.313 2.613-1.689c0.98-0.376 2.028-0.544 3.078-0.494s2.077 0.318 3.016 0.786c0.939 0.468 1.769 1.126 2.437 1.931z"></path>
<path fill="#ad2667" style="fill: var(--color5, #ad2667)" d="M21.040 10.766c-0.154 8.797-6.667 15.297-9.367 17.617-0.32 0.275-0.729 0.427-1.153 0.427s-0.833-0.152-1.153-0.427c-2.009-1.734-3.792-3.712-5.305-5.887 1.768 0.732 4.888 1.655 7.917 0.746 4.462-1.343 11.293-11.64 5.438-20.647 1.164 1.020 2.091 2.279 2.717 3.69s0.935 2.94 0.906 4.482z"></path>
<path fill="#f55ea6" style="fill: var(--color6, #f55ea6)" d="M8.777 0.854c-1.367 0.213-5.156 1.177-6.729 5.392-0.176 0.472 0.465 0.809 0.754 0.395 1.204-1.724 3.214-3.81 6.122-4.385 0.096-0.020 0.182-0.071 0.244-0.147s0.096-0.17 0.097-0.267l0.010-0.563c0.001-0.062-0.012-0.124-0.038-0.18s-0.064-0.107-0.111-0.147c-0.047-0.041-0.103-0.070-0.163-0.087s-0.123-0.021-0.185-0.011z"></path>
<path fill="#08070c" style="fill: var(--color7, #08070c)" d="M16.997 11.421c0.022 0 0.094-0.034 0.218-0.101l0.054-0.028 0.098 0.197c-0.029 0.030-0.067 0.066-0.114 0.107s-0.14 0.098-0.278 0.169c-0.134 0.071-0.263 0.107-0.387 0.107-0.12 0-0.218-0.032-0.294-0.096-0.073-0.068-0.133-0.177-0.18-0.327l-0.125-0.4c-0.272 0.304-0.476 0.577-0.61 0.817-0.025 0-0.089-0.019-0.191-0.056-0.098-0.038-0.171-0.070-0.218-0.096 0.105-0.192 0.408-0.532 0.909-1.020-0.127-0.395-0.229-0.671-0.305-0.829-0.014-0.030-0.102-0.137-0.261-0.321l0.016-0.068 0.332-0.073c0.192-0.030 0.363-0.049 0.512-0.056 0.076 0.064 0.136 0.182 0.18 0.355 0.047 0.173 0.084 0.304 0.109 0.395 0.269-0.304 0.445-0.56 0.528-0.767 0.102 0.015 0.201 0.055 0.3 0.118l0.049 0.028c-0.127 0.248-0.385 0.573-0.773 0.975 0.040 0.143 0.076 0.261 0.109 0.355 0.138 0.41 0.245 0.614 0.321 0.614z"></path>
<path fill="#08070c" style="fill: var(--color7, #08070c)" d="M13.101 10.829c0-0.47 0.136-0.84 0.408-1.111 0.276-0.274 0.588-0.412 0.937-0.412 0.214 0 0.39 0.055 0.528 0.164s0.207 0.256 0.207 0.44c0 0.18-0.045 0.333-0.136 0.457-0.087 0.124-0.194 0.22-0.321 0.287-0.258 0.132-0.494 0.214-0.708 0.248l-0.131 0.017c0.025 0.353 0.165 0.53 0.419 0.53 0.087 0 0.18-0.023 0.278-0.068s0.174-0.090 0.229-0.135l0.082-0.068 0.131 0.18c-0.029 0.041-0.087 0.096-0.174 0.163s-0.169 0.124-0.245 0.169c-0.211 0.12-0.441 0.18-0.692 0.18s-0.448-0.092-0.594-0.276c-0.145-0.184-0.218-0.44-0.218-0.767zM13.88 10.643c0.185-0.034 0.332-0.115 0.441-0.242s0.163-0.293 0.163-0.496c0-0.203-0.058-0.304-0.174-0.304-0.138 0-0.245 0.122-0.321 0.366-0.073 0.241-0.109 0.466-0.109 0.676z"></path>
<path fill="#08070c" style="fill: var(--color7, #08070c)" d="M12.095 11.872c-0.123 0-0.227-0.043-0.31-0.13-0.080-0.086-0.12-0.207-0.12-0.361 0-0.158 0.089-0.656 0.267-1.494 0.182-0.842 0.272-1.449 0.272-1.821l-0.033-0.248c0.283-0.101 0.548-0.152 0.795-0.152 0.036 0.053 0.055 0.145 0.055 0.276 0 0.301-0.093 0.883-0.278 1.747-0.182 0.861-0.272 1.362-0.272 1.505 0 0.139 0.016 0.209 0.049 0.209l0.381-0.141 0.098 0.197c-0.123 0.101-0.274 0.195-0.452 0.282-0.174 0.086-0.325 0.13-0.452 0.13z"></path>
<path fill="#08070c" style="fill: var(--color7, #08070c)" d="M11.671 9.375c-0.007 0.083-0.040 0.192-0.098 0.327-0.138-0.015-0.274-0.023-0.408-0.023h-0.022c-0.076 0.928-0.147 1.614-0.212 2.057s-0.151 0.753-0.256 0.93c-0.131-0.004-0.267-0.023-0.408-0.056-0.138-0.030-0.232-0.062-0.283-0.096 0.087-0.278 0.174-0.697 0.261-1.257 0.091-0.56 0.149-1.077 0.174-1.55-0.102 0.008-0.214 0.021-0.338 0.039-0.011-0.049-0.016-0.098-0.016-0.147 0-0.053 0.007-0.128 0.022-0.226h0.349c0.007-0.327 0.024-0.575 0.049-0.744 0.044-0.301 0.143-0.536 0.3-0.705 0.16-0.173 0.365-0.259 0.615-0.259 0.16 0 0.285 0.038 0.376 0.113 0.094 0.071 0.142 0.186 0.142 0.344s-0.069 0.363-0.207 0.614c-0.138 0.248-0.319 0.46-0.545 0.637h0.506zM11.175 9.020c0.142-0.124 0.252-0.261 0.332-0.412s0.12-0.286 0.12-0.406c0-0.124-0.038-0.186-0.114-0.186-0.16 0-0.261 0.19-0.305 0.569-0.014 0.128-0.025 0.272-0.033 0.434z"></path>
<path fill="#08070c" style="fill: var(--color7, #08070c)" d="M6.793 10.829c0-0.47 0.136-0.84 0.408-1.111 0.276-0.274 0.588-0.412 0.937-0.412 0.214 0 0.39 0.055 0.528 0.164s0.207 0.256 0.207 0.44c0 0.18-0.045 0.333-0.136 0.457-0.087 0.124-0.194 0.22-0.321 0.287-0.258 0.132-0.494 0.214-0.708 0.248l-0.131 0.017c0.025 0.353 0.165 0.53 0.419 0.53 0.087 0 0.18-0.023 0.278-0.068s0.174-0.090 0.229-0.135l0.082-0.068 0.131 0.18c-0.029 0.041-0.087 0.096-0.174 0.163s-0.169 0.124-0.245 0.169c-0.211 0.12-0.441 0.18-0.692 0.18s-0.448-0.092-0.594-0.276c-0.145-0.184-0.218-0.44-0.218-0.767zM7.572 10.643c0.185-0.034 0.332-0.115 0.441-0.242s0.163-0.293 0.163-0.496c0-0.203-0.058-0.304-0.174-0.304-0.138 0-0.245 0.122-0.321 0.366-0.073 0.241-0.109 0.466-0.109 0.676z"></path>
<path fill="#08070c" style="fill: var(--color7, #08070c)" d="M5.231 11.872c-0.196 0-0.445-0.038-0.746-0.113-0.189 0.053-0.365 0.079-0.528 0.079s-0.258-0.006-0.283-0.017c0.025-0.226 0.132-0.78 0.321-1.663 0.192-0.887 0.289-1.443 0.289-1.669 0-0.045-0.024-0.105-0.071-0.18s-0.094-0.139-0.142-0.192l-0.071-0.079 0.016-0.085c0.476-0.101 0.987-0.152 1.536-0.152 0.301 0 0.548 0.075 0.741 0.225 0.196 0.147 0.294 0.353 0.294 0.62 0 0.515-0.303 0.872-0.909 1.071 0.243 0.030 0.447 0.126 0.61 0.287 0.167 0.158 0.251 0.381 0.251 0.671 0 0.353-0.123 0.641-0.37 0.862s-0.559 0.333-0.937 0.333zM5.133 9.871c-0.102 0-0.192 0.009-0.272 0.028-0.156 0.714-0.256 1.212-0.3 1.494 0.091 0.064 0.232 0.096 0.425 0.096 0.196 0 0.363-0.079 0.501-0.237 0.138-0.162 0.207-0.393 0.207-0.693 0-0.458-0.187-0.688-0.561-0.688zM5.438 8.151c-0.138 0-0.22 0.013-0.245 0.039-0.051 0.338-0.134 0.782-0.251 1.33 0.145 0 0.247-0.009 0.305-0.028s0.109-0.043 0.152-0.073c0.047-0.030 0.1-0.077 0.158-0.141 0.127-0.139 0.191-0.361 0.191-0.665 0-0.308-0.103-0.462-0.31-0.462z"></path>
</symbol>
<symbol id="icon-checked" viewBox="0 0 45 32">
<path stroke-linejoin="round" stroke-linecap="round" stroke-miterlimit="4" stroke-width="4.8" d="M39.466 3.2l-23.467 23.467-10.667-10.667"></path>
</symbol>
<symbol id="icon-logo" viewBox="0 0 32 32">
<path d="M31.135 18.809c0.051 0 0.221-0.076 0.509-0.227l0.127-0.063 0.229 0.442c-0.068 0.067-0.157 0.147-0.267 0.24s-0.327 0.219-0.649 0.379c-0.314 0.16-0.615 0.24-0.903 0.24-0.28 0-0.509-0.072-0.687-0.215-0.17-0.152-0.31-0.396-0.42-0.732l-0.293-0.896c-0.636 0.682-1.111 1.292-1.425 1.831-0.059 0-0.208-0.042-0.446-0.126-0.229-0.084-0.399-0.156-0.509-0.215 0.246-0.429 0.955-1.191 2.125-2.285-0.297-0.884-0.534-1.503-0.713-1.856-0.034-0.067-0.238-0.307-0.611-0.72l0.038-0.152 0.776-0.164c0.45-0.067 0.849-0.109 1.197-0.126 0.178 0.143 0.318 0.408 0.42 0.795 0.11 0.387 0.195 0.682 0.255 0.884 0.628-0.682 1.039-1.254 1.234-1.717 0.238 0.034 0.471 0.122 0.7 0.265l0.115 0.063c-0.297 0.556-0.899 1.284-1.807 2.184 0.093 0.32 0.178 0.585 0.254 0.796 0.322 0.918 0.573 1.376 0.751 1.376z"></path>
<path d="M22.030 17.484c0-1.052 0.318-1.881 0.954-2.488 0.645-0.614 1.374-0.922 2.189-0.922 0.501 0 0.912 0.122 1.234 0.366s0.484 0.572 0.484 0.985c0 0.404-0.106 0.745-0.318 1.023-0.204 0.278-0.454 0.492-0.751 0.644-0.602 0.295-1.154 0.48-1.654 0.556l-0.305 0.038c0.059 0.791 0.386 1.187 0.98 1.187 0.204 0 0.42-0.050 0.649-0.152s0.407-0.202 0.535-0.303l0.191-0.152 0.305 0.404c-0.068 0.093-0.204 0.215-0.407 0.366s-0.395 0.278-0.573 0.379c-0.492 0.269-1.031 0.404-1.616 0.404s-1.048-0.206-1.387-0.619c-0.339-0.412-0.509-0.985-0.509-1.717zM23.85 17.067c0.433-0.076 0.776-0.257 1.031-0.543s0.382-0.657 0.382-1.111c0-0.455-0.136-0.682-0.407-0.682-0.322 0-0.573 0.274-0.751 0.821-0.17 0.539-0.255 1.044-0.255 1.515z"></path>
<path d="M19.68 19.82c-0.288 0-0.53-0.097-0.725-0.29-0.187-0.194-0.28-0.463-0.28-0.808 0-0.354 0.208-1.469 0.624-3.346 0.424-1.886 0.636-3.245 0.636-4.078l-0.076-0.556c0.662-0.227 1.281-0.341 1.858-0.341 0.085 0.118 0.127 0.324 0.127 0.619 0 0.673-0.216 1.978-0.649 3.914-0.424 1.928-0.636 3.051-0.636 3.371 0 0.311 0.038 0.467 0.115 0.467l0.891-0.316 0.229 0.442c-0.288 0.227-0.641 0.438-1.056 0.631-0.407 0.194-0.759 0.29-1.056 0.29z"></path>
<path d="M18.688 14.226c-0.017 0.185-0.093 0.429-0.229 0.732-0.322-0.034-0.641-0.050-0.954-0.050h-0.051c-0.178 2.079-0.344 3.615-0.496 4.609s-0.352 1.688-0.598 2.083c-0.305-0.008-0.624-0.050-0.954-0.126-0.322-0.067-0.543-0.139-0.662-0.215 0.204-0.623 0.407-1.562 0.611-2.816 0.212-1.254 0.348-2.412 0.407-3.472-0.238 0.017-0.501 0.046-0.789 0.088-0.025-0.109-0.038-0.219-0.038-0.328 0-0.118 0.017-0.286 0.051-0.505h0.815c0.017-0.732 0.055-1.288 0.115-1.667 0.102-0.673 0.335-1.2 0.7-1.578 0.373-0.387 0.853-0.581 1.438-0.581 0.373 0 0.666 0.084 0.878 0.253 0.221 0.16 0.331 0.417 0.331 0.77s-0.161 0.812-0.484 1.376c-0.322 0.556-0.747 1.031-1.273 1.427h1.184zM17.53 13.43c0.331-0.278 0.59-0.585 0.776-0.922s0.28-0.64 0.28-0.909c0-0.278-0.089-0.417-0.267-0.417-0.373 0-0.611 0.425-0.713 1.275-0.034 0.286-0.059 0.61-0.076 0.972z"></path>
<path d="M7.29 17.484c0-1.052 0.318-1.881 0.954-2.488 0.645-0.614 1.374-0.922 2.189-0.922 0.501 0 0.912 0.122 1.234 0.366s0.484 0.572 0.484 0.985c0 0.404-0.106 0.745-0.318 1.023-0.204 0.278-0.454 0.492-0.751 0.644-0.602 0.295-1.154 0.48-1.654 0.556l-0.305 0.038c0.059 0.791 0.386 1.187 0.98 1.187 0.204 0 0.42-0.050 0.649-0.152s0.407-0.202 0.535-0.303l0.191-0.152 0.305 0.404c-0.068 0.093-0.204 0.215-0.407 0.366s-0.395 0.278-0.573 0.379c-0.492 0.269-1.031 0.404-1.616 0.404s-1.048-0.206-1.387-0.619c-0.339-0.412-0.509-0.985-0.509-1.717zM9.11 17.067c0.433-0.076 0.776-0.257 1.031-0.543s0.382-0.657 0.382-1.111c0-0.455-0.136-0.682-0.407-0.682-0.322 0-0.573 0.274-0.751 0.821-0.17 0.539-0.255 1.044-0.255 1.515z"></path>
<path d="M3.64 19.82c-0.458 0-1.039-0.084-1.744-0.253-0.441 0.118-0.853 0.177-1.234 0.177s-0.602-0.013-0.662-0.038c0.059-0.505 0.31-1.747 0.751-3.725 0.45-1.987 0.674-3.232 0.674-3.738 0-0.101-0.055-0.236-0.165-0.404s-0.221-0.311-0.331-0.429l-0.165-0.177 0.038-0.189c1.111-0.227 2.308-0.341 3.589-0.341 0.704 0 1.281 0.168 1.731 0.505 0.458 0.328 0.687 0.791 0.687 1.389 0 1.153-0.708 1.953-2.125 2.399 0.568 0.067 1.044 0.282 1.425 0.644 0.39 0.354 0.585 0.854 0.585 1.503 0 0.791-0.288 1.435-0.865 1.932s-1.307 0.745-2.189 0.745zM3.411 15.337c-0.238 0-0.45 0.021-0.636 0.063-0.365 1.599-0.598 2.715-0.7 3.346 0.212 0.143 0.543 0.215 0.993 0.215 0.458 0 0.848-0.177 1.171-0.53 0.322-0.362 0.484-0.88 0.484-1.553 0-1.027-0.437-1.54-1.311-1.54zM4.123 11.486c-0.322 0-0.513 0.029-0.573 0.088-0.119 0.758-0.314 1.751-0.585 2.98 0.339 0 0.577-0.021 0.713-0.063s0.255-0.097 0.356-0.164c0.11-0.067 0.233-0.173 0.369-0.316 0.297-0.311 0.445-0.808 0.445-1.49 0-0.69-0.242-1.035-0.725-1.035z"></path>
</symbol>
<symbol id="icon-lang-ua" viewBox="0 0 32 32">
<path d="M11.819 13.347h2.107v0.648h-0.648v2.674c0 0.184-0.020 0.36-0.059 0.529s-0.103 0.33-0.192 0.484c-0.088 0.153-0.196 0.286-0.326 0.399-0.128 0.113-0.289 0.204-0.482 0.271-0.193 0.066-0.407 0.099-0.642 0.099-0.51 0-0.928-0.072-1.252-0.217-0.324-0.146-0.561-0.361-0.711-0.644-0.15-0.285-0.225-0.646-0.225-1.084v-2.512h-0.648v-0.648h2.593v0.648h-0.648v2.512c0 0.147 0.011 0.283 0.032 0.407 0.023 0.124 0.053 0.23 0.089 0.318 0.037 0.086 0.081 0.164 0.134 0.233 0.053 0.067 0.107 0.122 0.164 0.164s0.117 0.076 0.182 0.103c0.066 0.027 0.129 0.046 0.188 0.057 0.059 0.009 0.12 0.014 0.182 0.014 0.158 0 0.299-0.028 0.423-0.085 0.126-0.058 0.228-0.138 0.306-0.239 0.080-0.103 0.14-0.222 0.18-0.359 0.042-0.138 0.063-0.288 0.063-0.452v-2.674h-0.81v-0.648zM15.87 13.347h0.891l1.938 4.375h0.492v0.648h-2.593v-0.648h0.648l-0.288-0.648h-1.831l-0.269 0.648h1.254v0.648h-2.593v-0.648h0.529l1.821-4.375zM15.398 16.426h1.274l-0.502-1.134c-0.065-0.149-0.116-0.294-0.154-0.438-0.053 0.186-0.101 0.332-0.146 0.438l-0.472 1.134z"></path>
<path d="M25.308 17.604c-0.111 0.111-0.262 0.174-0.419 0.174s-0.308-0.062-0.419-0.174l-3.352-3.352c-0.057-0.055-0.102-0.12-0.133-0.192s-0.047-0.15-0.048-0.229c-0.001-0.079 0.014-0.157 0.044-0.23s0.074-0.139 0.129-0.195c0.056-0.056 0.122-0.1 0.195-0.129s0.151-0.045 0.23-0.044c0.079 0.001 0.156 0.017 0.229 0.048s0.138 0.076 0.192 0.133l2.933 2.933 2.933-2.933c0.112-0.108 0.261-0.168 0.417-0.166s0.304 0.064 0.414 0.174c0.11 0.11 0.172 0.258 0.174 0.414s-0.058 0.305-0.166 0.417l-3.352 3.352z"></path>
</symbol>
<symbol id="icon-lang-en" viewBox="0 0 32 32">
<path d="M8.761 13.347h4.375v1.62h-0.729v-0.324c0-0.066-0.006-0.134-0.018-0.205-0.011-0.070-0.028-0.14-0.053-0.209-0.023-0.069-0.057-0.125-0.101-0.168-0.045-0.045-0.095-0.067-0.152-0.067h-1.377v1.782h0.729v-0.729h0.648v2.107h-0.648v-0.729h-0.729v1.296h1.458c0.057 0 0.107-0.022 0.152-0.065 0.045-0.045 0.078-0.101 0.101-0.17 0.024-0.069 0.042-0.138 0.053-0.209 0.012-0.070 0.018-0.138 0.018-0.205v-0.324h0.729v1.62h-4.456v-0.648h0.648v-3.727h-0.648v-0.648zM13.784 13.347h1.803l2.086 2.455v-1.807h-0.648v-0.648h2.107v0.648h-0.648v4.375h-0.486l-2.755-3.241v2.593h0.648v0.648h-2.107v-0.648h0.648v-3.727h-0.648v-0.648z"></path>
<path d="M25.308 17.604c-0.111 0.111-0.262 0.174-0.419 0.174s-0.308-0.062-0.419-0.174l-3.352-3.352c-0.057-0.055-0.102-0.12-0.133-0.192s-0.047-0.15-0.048-0.229c-0.001-0.079 0.014-0.157 0.044-0.23s0.074-0.139 0.129-0.195c0.056-0.056 0.122-0.1 0.195-0.129s0.151-0.045 0.23-0.044c0.079 0.001 0.156 0.017 0.229 0.048s0.138 0.076 0.192 0.133l2.933 2.933 2.933-2.933c0.112-0.108 0.261-0.168 0.417-0.166s0.304 0.064 0.414 0.174c0.11 0.11 0.172 0.258 0.174 0.414s-0.058 0.305-0.166 0.417l-3.352 3.352z"></path>
</symbol>
<symbol id="icon-clock-circled" viewBox="0 0 32 32">
<path stroke-linejoin="miter" stroke-linecap="butt" stroke-miterlimit="4" stroke-width="1.1429" d="M16 0.571c7.259 0 13.143 5.884 13.143 13.143s-5.884 13.143-13.143 13.143c-7.259 0-13.143-5.884-13.143-13.143s5.884-13.143 13.143-13.143z"></path>
<path d="M16 8.571c-2.84 0-5.143 2.303-5.143 5.143s2.303 5.143 5.143 5.143c2.84 0 5.143-2.302 5.143-5.143s-2.302-5.143-5.143-5.143zM9.714 13.714c0-3.472 2.814-6.286 6.286-6.286s6.286 2.814 6.286 6.286c0 3.472-2.814 6.286-6.286 6.286s-6.286-2.814-6.286-6.286z"></path>
<path d="M16 9.714c0.316 0 0.571 0.256 0.571 0.571v3.075l1.97 0.985c0.282 0.141 0.397 0.484 0.256 0.767s-0.484 0.397-0.767 0.256l-2.286-1.143c-0.194-0.097-0.316-0.295-0.316-0.511v-3.429c0-0.316 0.256-0.571 0.571-0.571z"></path>
</symbol>
<symbol id="icon-map-location" viewBox="0 0 32 32">
<path stroke-linejoin="miter" stroke-linecap="butt" stroke-miterlimit="4" stroke-width="1.3333" d="M16 0.667c8.468 0 15.333 6.865 15.333 15.333s-6.865 15.333-15.333 15.333c-8.468 0-15.333-6.865-15.333-15.333s6.865-15.333 15.333-15.333z"></path>
<path d="M16 9.333c-1.414 0-2.771 0.562-3.771 1.562s-1.562 2.357-1.562 3.771c0 2.065 1.344 4.069 2.817 5.625 0.723 0.763 1.448 1.388 1.994 1.822 0.203 0.162 0.38 0.296 0.522 0.401 0.142-0.105 0.319-0.24 0.522-0.401 0.545-0.434 1.271-1.059 1.994-1.822 1.474-1.555 2.817-3.559 2.817-5.625 0-1.414-0.562-2.771-1.562-3.771s-2.357-1.562-3.771-1.562zM16 23.333c-0.37 0.555-0.37 0.554-0.37 0.554l-0.002-0.001-0.004-0.003-0.015-0.010c-0.013-0.009-0.031-0.021-0.055-0.038-0.047-0.033-0.115-0.081-0.201-0.143-0.172-0.124-0.414-0.305-0.705-0.536-0.58-0.462-1.354-1.128-2.131-1.948-1.526-1.611-3.183-3.941-3.183-6.542 0-1.768 0.702-3.464 1.953-4.714s2.946-1.953 4.714-1.953 3.464 0.702 4.714 1.953c1.25 1.25 1.953 2.946 1.953 4.714 0 2.601-1.656 4.931-3.183 6.542-0.777 0.82-1.552 1.487-2.131 1.948-0.29 0.231-0.533 0.412-0.705 0.536-0.086 0.062-0.154 0.11-0.201 0.143-0.024 0.016-0.042 0.029-0.055 0.038l-0.015 0.010-0.004 0.003-0.001 0.001c0 0-0.001 0.001-0.371-0.554zM16 23.333l0.37 0.555c-0.224 0.149-0.516 0.149-0.74-0l0.37-0.554z"></path>
<path d="M16 13.333c-0.736 0-1.333 0.597-1.333 1.333s0.597 1.333 1.333 1.333c0.736 0 1.333-0.597 1.333-1.333s-0.597-1.333-1.333-1.333zM13.333 14.667c0-1.473 1.194-2.667 2.667-2.667s2.667 1.194 2.667 2.667c0 1.473-1.194 2.667-2.667 2.667s-2.667-1.194-2.667-2.667z"></path>
</symbol>
<symbol id="icon-phone" viewBox="0 0 32 32">
<path stroke-linejoin="miter" stroke-linecap="butt" stroke-miterlimit="4" stroke-width="1.3333" d="M16 0.667c8.468 0 15.333 6.865 15.333 15.333s-6.865 15.333-15.333 15.333c-8.468 0-15.333-6.865-15.333-15.333s6.865-15.333 15.333-15.333z"></path>
<path stroke-linejoin="round" stroke-linecap="round" stroke-miterlimit="4" stroke-width="1.3333" d="M17.959 12c0.651 0.127 1.25 0.446 1.719 0.915s0.788 1.068 0.915 1.719M17.959 9.333c1.353 0.15 2.614 0.756 3.578 1.718s1.57 2.223 1.722 3.575M22.592 19.947v2c0.001 0.186-0.037 0.369-0.112 0.54s-0.183 0.323-0.32 0.448c-0.137 0.125-0.298 0.221-0.474 0.281s-0.362 0.082-0.547 0.065c-2.051-0.223-4.022-0.924-5.753-2.047-1.611-1.024-2.976-2.389-4-4-1.127-1.739-1.828-3.719-2.047-5.78-0.017-0.184 0.005-0.37 0.064-0.546s0.154-0.337 0.279-0.473c0.125-0.137 0.277-0.246 0.446-0.321s0.352-0.113 0.537-0.114h2c0.324-0.003 0.637 0.111 0.883 0.322s0.406 0.504 0.451 0.824c0.084 0.64 0.241 1.268 0.467 1.873 0.090 0.239 0.109 0.498 0.056 0.747s-0.177 0.478-0.356 0.659l-0.847 0.847c0.949 1.669 2.331 3.051 4 4l0.847-0.847c0.181-0.179 0.41-0.303 0.659-0.356s0.509-0.034 0.747 0.056c0.605 0.226 1.233 0.382 1.873 0.467 0.324 0.046 0.62 0.209 0.831 0.458s0.324 0.568 0.316 0.895z"></path>
</symbol>
<symbol id="icon-clock-timer" viewBox="0 0 32 32">
<path d="M28.327 22.455c0.736 0 1.333-0.597 1.333-1.333s-0.597-1.333-1.333-1.333c-0.736 0-1.333 0.597-1.333 1.333s0.597 1.333 1.333 1.333z"></path>
<path d="M25.419 26.749c0.736 0 1.333-0.597 1.333-1.333s-0.597-1.333-1.333-1.333c-0.736 0-1.333 0.597-1.333 1.333s0.597 1.333 1.333 1.333z"></path>
<path d="M29.329 17.339c0.736 0 1.333-0.597 1.333-1.333s-0.597-1.333-1.333-1.333c-0.736 0-1.333 0.597-1.333 1.333s0.597 1.333 1.333 1.333z"></path>
<path d="M21.1 29.663c0.736 0 1.333-0.597 1.333-1.333s-0.597-1.333-1.333-1.333c-0.736 0-1.333 0.597-1.333 1.333s0.597 1.333 1.333 1.333z"></path>
<path d="M16 28c-1.92 0.002-3.813-0.456-5.52-1.337s-3.176-2.159-4.287-3.726-1.828-3.378-2.093-5.279c-0.265-1.902-0.070-3.84 0.569-5.651s1.703-3.442 3.104-4.756 3.095-2.273 4.943-2.797c1.848-0.523 3.794-0.595 5.675-0.21s3.643 1.216 5.137 2.423h-2.195c-0.354 0-0.693 0.14-0.943 0.391s-0.39 0.589-0.39 0.943 0.14 0.693 0.39 0.943c0.25 0.25 0.589 0.391 0.943 0.391h5.333c0.354 0 0.693-0.14 0.943-0.391s0.391-0.589 0.391-0.943v-5.333c0-0.354-0.141-0.693-0.391-0.943s-0.589-0.391-0.943-0.391c-0.354 0-0.693 0.14-0.943 0.391s-0.39 0.589-0.39 0.943v2.041c-1.813-1.499-3.96-2.54-6.26-3.034s-4.685-0.428-6.954 0.194c-2.269 0.622-4.355 1.78-6.082 3.378s-3.044 3.587-3.84 5.801-1.047 4.587-0.733 6.918c0.314 2.331 1.185 4.553 2.539 6.477s3.15 3.494 5.239 4.578 4.407 1.648 6.759 1.647c0.354 0 0.693-0.14 0.943-0.391s0.391-0.589 0.391-0.943-0.141-0.693-0.391-0.943c-0.25-0.25-0.589-0.391-0.943-0.391z"></path>
<path d="M20.943 20.943c0.25-0.25 0.39-0.589 0.39-0.943s-0.14-0.693-0.39-0.943l-3.609-3.609v-7.448c0-0.354-0.14-0.693-0.391-0.943s-0.589-0.391-0.943-0.391c-0.354 0-0.693 0.14-0.943 0.391s-0.391 0.589-0.391 0.943v8c0 0.354 0.141 0.693 0.391 0.943l4 4c0.25 0.25 0.589 0.39 0.943 0.39s0.693-0.14 0.943-0.39z"></path>
</symbol>
<symbol id="icon-burger" viewBox="0 0 32 32">
<path stroke-linejoin="round" stroke-linecap="round" stroke-miterlimit="4" stroke-width="2.6667" d="M4 24h24"></path>
<path stroke-linejoin="round" stroke-linecap="round" stroke-miterlimit="4" stroke-width="2.6667" d="M4 16h24"></path>
<path stroke-linejoin="round" stroke-linecap="round" stroke-miterlimit="4" stroke-width="2.6667" d="M4 8h24"></path>
</symbol>
<symbol id="icon-close-btn" viewBox="0 0 32 32">
<path stroke-linejoin="round" stroke-linecap="round" stroke-miterlimit="4" stroke-width="2.6667" d="M4 26.667l24-21.333"></path>
<path stroke-linejoin="round" stroke-linecap="round" stroke-miterlimit="4" stroke-width="2.6667" d="M4 5.333l24 21.333"></path>
</symbol>
<symbol id="icon-star" viewBox="0 0 32 32">
<path stroke-linejoin="miter" stroke-linecap="butt" stroke-miterlimit="4" stroke-width="2.9091" d="M17.38 25.564c-0.846-0.534-1.913-0.534-2.759 0v0l-7.408 4.674 1.982-8.881c0.212-0.951-0.086-1.973-0.828-2.645l-6.673-6.044 8.74-0.775c1.015-0.090 1.843-0.76 2.208-1.658l3.358-8.283 3.358 8.283c0.364 0.898 1.193 1.568 2.208 1.658l8.74 0.775-6.673 6.044c-0.742 0.672-1.040 1.694-0.828 2.645l1.982 8.881-7.408-4.674z"></path>
</symbol>
<symbol id="icon-checkbox-border" viewBox="0 0 32 32">
<path stroke-linejoin="miter" stroke-linecap="butt" stroke-miterlimit="4" stroke-width="1.3333" d="M8 3.333h16c2.577 0 4.667 2.089 4.667 4.667v16c0 2.577-2.089 4.667-4.667 4.667h-16c-2.577 0-4.667-2.089-4.667-4.667v-16c0-2.577 2.089-4.667 4.667-4.667z"></path>
</symbol>
<symbol id="icon-down-arrow" viewBox="0 0 32 32">
<path d="M16.943 20.943c-0.25 0.25-0.589 0.39-0.943 0.39s-0.693-0.14-0.943-0.39l-7.543-7.543c-0.127-0.123-0.229-0.27-0.299-0.433s-0.107-0.338-0.108-0.515c-0.002-0.177 0.032-0.353 0.099-0.516s0.166-0.313 0.291-0.438c0.125-0.125 0.274-0.224 0.438-0.291s0.339-0.101 0.516-0.099c0.177 0.002 0.352 0.038 0.515 0.108s0.31 0.171 0.433 0.299l6.6 6.6 6.6-6.6c0.251-0.243 0.588-0.377 0.938-0.374s0.684 0.143 0.931 0.39c0.247 0.247 0.387 0.582 0.39 0.931s-0.131 0.686-0.374 0.938l-7.543 7.543z"></path>
</symbol>
<symbol id="icon-whatsapp" viewBox="0 0 32 32">
<path d="M0 16c0 8.837 7.163 16 16 16s16-7.163 16-16c0-8.837-7.163-16-16-16s-16 7.163-16 16zM26.041 15.388c-0.002 5.244-4.269 9.512-9.514 9.514h-0.004c-1.592-0.001-3.157-0.4-4.547-1.158l-5.044 1.323 1.35-4.93c-0.833-1.443-1.271-3.080-1.27-4.756 0.002-5.246 4.27-9.513 9.514-9.513 2.545 0.001 4.934 0.992 6.73 2.79s2.785 4.189 2.784 6.731z"></path>
<path d="M9.217 22.806l2.993-0.785 0.289 0.171c1.214 0.72 2.606 1.102 4.025 1.102h0.003c4.359 0 7.906-3.547 7.908-7.908 0.001-2.113-0.821-4.1-2.314-5.594s-3.478-2.318-5.591-2.319c-4.362 0-7.909 3.547-7.911 7.907-0.001 1.494 0.417 2.949 1.209 4.208l0.188 0.299-0.799 2.918zM20.995 17.436c0.166 0.080 0.278 0.134 0.326 0.214 0.059 0.099 0.059 0.575-0.139 1.13s-1.148 1.062-1.605 1.13c-0.409 0.061-0.928 0.087-1.497-0.094-0.345-0.109-0.788-0.256-1.355-0.501-2.229-0.962-3.735-3.122-4.019-3.531-0.020-0.029-0.034-0.049-0.042-0.059l-0.002-0.003c-0.126-0.168-0.969-1.293-0.969-2.457 0-1.095 0.538-1.669 0.786-1.933 0.017-0.018 0.033-0.035 0.047-0.050 0.218-0.238 0.475-0.297 0.634-0.297s0.317 0.001 0.456 0.008c0.017 0.001 0.035 0.001 0.053 0.001 0.139-0.001 0.311-0.002 0.482 0.407 0.065 0.158 0.161 0.391 0.263 0.637 0.205 0.498 0.431 1.048 0.47 1.128 0.059 0.119 0.099 0.258 0.020 0.417-0.012 0.024-0.023 0.046-0.033 0.068-0.060 0.121-0.103 0.211-0.204 0.329-0.040 0.046-0.081 0.096-0.122 0.146-0.082 0.1-0.164 0.199-0.235 0.27-0.119 0.119-0.243 0.247-0.104 0.485s0.616 1.017 1.323 1.647c0.76 0.678 1.42 0.964 1.755 1.109 0.065 0.028 0.118 0.051 0.157 0.071 0.238 0.119 0.376 0.099 0.515-0.059s0.594-0.694 0.753-0.932c0.158-0.238 0.317-0.198 0.535-0.119s1.387 0.655 1.625 0.773c0.046 0.023 0.090 0.044 0.13 0.064z"></path>
</symbol>
<symbol id="icon-mail" viewBox="0 0 32 32">
<path d="M16 0c-8.837 0-16 7.163-16 16s7.163 16 16 16c8.837 0 16-7.163 16-16s-7.163-16-16-16zM6.667 15.973c0-5.132 4.187-9.307 9.333-9.307s9.333 4.175 9.333 9.307c0 0.727-0.061 1.316-0.197 1.906l-0.002 0.010c-0 0.002-0.068 0.274-0.105 0.393-0.231 0.736-0.648 1.348-1.208 1.772-0.543 0.411-1.215 0.637-1.894 0.637-0.084 0-0.168-0.003-0.251-0.010-0.964-0.077-1.812-0.583-2.332-1.39-0.894 0.897-2.080 1.39-3.345 1.39-2.603 0-4.721-2.112-4.721-4.708s2.118-4.707 4.721-4.707 4.721 2.112 4.721 4.707v1.518c0.004 0.885 0.6 1.247 1.109 1.288 0.507 0.039 1.181-0.255 1.415-1.215 0.116-0.527 0.175-1.062 0.175-1.591 0-4.080-3.329-7.399-7.42-7.399s-7.42 3.319-7.42 7.399c0 4.080 3.328 7.399 7.42 7.399 1.424 0 2.809-0.406 4.005-1.173l0.021-0.014 1.257 1.458-0.027 0.018c-1.554 1.059-3.372 1.619-5.257 1.619-5.146 0-9.333-4.175-9.333-9.307z"></path>
<path d="M18.807 15.974c0 1.544-1.259 2.799-2.807 2.799s-2.807-1.256-2.807-2.799 1.259-2.799 2.807-2.799c1.548 0 2.807 1.256 2.807 2.799z"></path>
</symbol>
<symbol id="icon-phone-black" viewBox="0 0 32 32">
<path d="M16 0c8.837 0 16 7.163 16 16s-7.163 16-16 16c-8.837 0-16-7.163-16-16s7.163-16 16-16zM20.263 13.972c-0.078-0.632-0.272-1.129-0.617-1.568-0.448-0.566-1.021-0.905-1.868-1.106-0.553-0.134-0.776-0.119-0.976 0.064-0.186 0.171-0.223 0.514-0.080 0.736 0.1 0.161 0.215 0.219 0.536 0.282 0.427 0.079 0.723 0.181 0.991 0.334 0.57 0.329 0.836 0.845 0.864 1.679 0.013 0.392 0.047 0.512 0.184 0.651 0.254 0.254 0.705 0.205 0.896-0.099 0.070-0.115 0.081-0.164 0.088-0.43 0.005-0.165-0.002-0.41-0.019-0.541zM20.27 10.093c-0.764-0.616-1.687-1.040-2.7-1.246-0.371-0.074-1.053-0.133-1.171-0.099-0.11 0.032-0.267 0.151-0.336 0.259-0.074 0.117-0.090 0.379-0.027 0.531 0.101 0.253 0.29 0.343 0.819 0.389 0.815 0.071 1.655 0.358 2.29 0.781 0.725 0.482 1.301 1.142 1.674 1.918 0.322 0.666 0.52 1.626 0.515 2.486-0.002 0.311 0.046 0.487 0.171 0.615 0.189 0.197 0.464 0.241 0.707 0.109 0.269-0.142 0.332-0.39 0.285-1.153-0.113-1.937-0.87-3.495-2.226-4.592zM24.968 22.144c-0.038-0.111-0.126-0.281-0.189-0.38-0.398-0.601-2.536-2.274-3.603-2.821-0.609-0.313-1.061-0.417-1.396-0.319-0.36 0.101-0.549 0.269-1.153 1.018-0.243 0.3-0.493 0.582-0.559 0.626-0.164 0.114-0.486 0.206-0.714 0.206-0.527-0.003-1.484-0.345-2.22-0.794-0.572-0.348-1.304-0.971-1.866-1.588-0.663-0.724-1.115-1.363-1.472-2.084-0.461-0.927-0.578-1.493-0.385-1.907 0.047-0.104 0.111-0.215 0.139-0.25 0.028-0.031 0.325-0.275 0.654-0.541 0.644-0.512 0.748-0.629 0.868-0.98 0.152-0.446 0.111-0.901-0.123-1.36-0.18-0.348-0.651-1.107-0.992-1.597-0.452-0.645-1.576-2.024-1.8-2.211-0.404-0.329-0.922-0.386-1.494-0.164-0.603 0.234-1.734 1.145-2.217 1.781-0.436 0.576-0.603 0.984-0.628 1.521-0.022 0.443 0.016 0.626 0.249 1.192 1.828 4.44 4.557 7.985 8.305 10.8 1.958 1.471 3.988 2.59 6.095 3.355 1.228 0.446 1.762 0.468 2.391 0.101 0.265-0.158 0.922-0.832 1.288-1.322 0.606-0.816 0.831-1.192 0.894-1.493 0.044-0.206 0.009-0.563-0.073-0.791zM24.161 12.134c-0.38-0.986-0.764-1.629-1.49-2.499-0.686-0.816-1.219-1.281-2.065-1.8-1.179-0.722-2.615-1.2-4.223-1.401-0.549-0.070-0.673-0.065-0.841 0.047-0.326 0.213-0.322 0.743 0.005 0.953 0.108 0.067 0.204 0.091 0.643 0.148 0.674 0.091 1.107 0.176 1.621 0.316 2.015 0.551 3.565 1.677 4.601 3.349 0.867 1.393 1.227 2.787 1.176 4.566-0.018 0.602-0.005 0.707 0.087 0.852 0.176 0.269 0.641 0.323 0.879 0.099 0.148-0.136 0.176-0.239 0.205-0.753 0.014-0.269 0.017-0.665 0.011-0.882-0.040-1.096-0.225-1.994-0.609-2.996z"></path>
</symbol>
<symbol id="icon-insta" viewBox="0 0 32 32">
<path d="M16 0c-8.837 0-16 7.163-16 16s7.163 16 16 16c8.837 0 16-7.163 16-16s-7.163-16-16-16zM12.482 7.518c0.91-0.041 1.201-0.052 3.519-0.052h-0.003c2.318 0 2.608 0.010 3.518 0.052 0.908 0.042 1.529 0.185 2.073 0.396 0.562 0.218 1.036 0.509 1.511 0.984s0.766 0.95 0.985 1.512c0.21 0.543 0.354 1.163 0.396 2.071 0.041 0.91 0.052 1.201 0.052 3.519s-0.011 2.608-0.052 3.518c-0.043 0.908-0.187 1.528-0.396 2.071-0.219 0.561-0.51 1.037-0.985 1.512s-0.949 0.767-1.511 0.985c-0.543 0.211-1.164 0.355-2.072 0.397-0.91 0.041-1.2 0.051-3.518 0.051s-2.608-0.010-3.518-0.051c-0.908-0.042-1.529-0.185-2.072-0.397-0.561-0.218-1.037-0.51-1.511-0.985s-0.766-0.951-0.984-1.512c-0.211-0.543-0.355-1.163-0.396-2.071-0.041-0.91-0.052-1.2-0.052-3.518s0.011-2.609 0.051-3.519c0.041-0.908 0.185-1.528 0.396-2.071 0.219-0.561 0.51-1.037 0.985-1.511s0.95-0.766 1.512-0.984c0.543-0.211 1.163-0.355 2.071-0.396z"></path>
<path d="M15.235 9.004v-0.002c-1.59 0.002-1.895 0.012-2.683 0.048-0.832 0.038-1.284 0.177-1.585 0.294-0.398 0.155-0.683 0.34-0.981 0.639s-0.484 0.583-0.639 0.981c-0.117 0.301-0.256 0.752-0.294 1.584-0.041 0.9-0.049 1.168-0.049 3.447s0.008 2.549 0.049 3.449c0.038 0.832 0.177 1.284 0.294 1.584 0.155 0.398 0.34 0.682 0.639 0.981s0.583 0.484 0.981 0.638c0.301 0.117 0.753 0.256 1.585 0.294 0.899 0.041 1.17 0.050 3.448 0.050s2.549-0.009 3.448-0.050c0.832-0.038 1.284-0.177 1.584-0.294 0.398-0.155 0.682-0.34 0.981-0.638s0.484-0.582 0.639-0.98c0.117-0.3 0.256-0.752 0.294-1.584 0.041-0.899 0.050-1.17 0.050-3.447s-0.009-2.548-0.050-3.447c-0.038-0.832-0.177-1.284-0.294-1.584-0.155-0.398-0.34-0.683-0.639-0.981s-0.582-0.484-0.981-0.638c-0.301-0.117-0.752-0.256-1.584-0.294-0.9-0.041-1.17-0.049-3.448-0.049l-0.284-0c-0.173-0-0.332-0-0.481 0zM20.556 10.421v-0c0.565 0 1.024 0.459 1.024 1.024s-0.459 1.024-1.024 1.024c-0.565 0-1.024-0.459-1.024-1.024s0.459-1.024 1.024-1.024zM11.619 16c0-2.42 1.962-4.382 4.382-4.382s4.382 1.962 4.382 4.382-1.961 4.381-4.382 4.381c-2.42 0-4.382-1.961-4.382-4.381z"></path>
<path d="M16.001 13.156c1.571 0 2.845 1.273 2.845 2.845s-1.274 2.844-2.845 2.844-2.844-1.274-2.844-2.844c0-1.571 1.273-2.845 2.844-2.845z"></path>
</symbol>
<symbol id="icon-facebook" viewBox="0 0 32 32">
<path d="M16 0c-8.837 0-16 7.163-16 16s7.163 16 16 16c8.837 0 16-7.163 16-16s-7.163-16-16-16zM17.668 16.703v8.705h-3.602v-8.704h-1.799v-3h1.799v-1.801c0-2.447 1.016-3.902 3.903-3.902h2.403v3h-1.502c-1.124 0-1.198 0.419-1.198 1.202l-0.004 1.501h2.721l-0.318 3h-2.403z"></path>
</symbol>
</defs>
</svg>
