<svg width="60" height="60" viewBox="0 0 60 60" fill="none" xmlns="http://www.w3.org/2000/svg">
<g clip-path="url(#clip0_1145_1030)">
<path d="M22.729 2.09522C22.2964 2.78128 22.729 2.82244 22.8526 3.32326C23.8278 7.05541 28.0033 15.5556 32.4261 14.5677C36.0796 13.7513 32.4261 8.74997 31.5402 7.08285C30.4139 4.88061 28.5253 2.41081 26.8977 1.49149C25.1808 0.537877 23.4639 0.963231 22.729 2.09522Z" fill="#A02C63"/>
<path d="M32.907 2.17723C32.6083 2.37177 32.3611 2.63558 32.1865 2.94617C32.0119 3.25677 31.9151 3.60493 31.9043 3.96098C32.5224 8.00185 34.2874 15.7131 38.923 15.3632C42.5285 15.0888 40.0149 10.5608 39.335 8.77023C38.4354 6.35532 37.5838 3.15829 36.1965 1.99886C35.6903 1.70574 35.1094 1.56649 34.5251 1.59817C33.9408 1.62985 33.3785 1.83109 32.907 2.17723Z" fill="#A02C63"/>
<path d="M34.1286 1.08668C33.6691 1.14756 33.2296 1.31277 32.8439 1.56964C32.4582 1.82652 32.1365 2.16822 31.9035 2.56856C30.7429 6.52024 27.783 14.1492 31.2168 14.6294C34.7948 15.1302 35.1107 11.8852 35.5639 10.0054C36.0172 8.12561 37.4113 4.10532 36.6078 2.45879C36.3742 2.01292 36.0148 1.64528 35.5742 1.40139C35.1335 1.15751 34.6309 1.04809 34.1286 1.08668Z" fill="#FA67A5"/>
<path d="M34.5357 2.08821C33.6979 1.40215 32.8944 2.34205 32.551 3.06241C32.4008 3.37486 32.2745 3.69823 32.1733 4.02975C31.9878 4.52371 31.7956 5.01081 31.6445 5.51163C31.3067 6.63446 31.0542 7.78114 30.889 8.94191C30.7517 9.92983 30.422 11.055 30.7105 12.036C30.8959 12.674 31.3972 13.5453 32.1939 13.1817C32.8473 12.7452 33.3205 12.0873 33.5262 11.3294C33.8829 10.2369 34.1381 9.11385 34.2885 7.97457C34.4808 6.87002 34.6868 5.76547 34.9203 4.66778C35.092 3.85823 35.2774 2.68508 34.5357 2.08821Z" fill="#E089B3"/>
<path d="M32.1646 5.20265C31.7452 5.91327 31.4983 6.71213 31.4435 7.53524C31.2227 8.33452 31.1713 9.17103 31.2924 9.99131C31.3955 10.3755 31.9792 10.5607 32.2058 10.1491C32.4965 9.39095 32.6836 8.59713 32.7621 7.78908C33.0096 7.00599 33.1301 6.18841 33.1192 5.3673C33.078 4.86648 32.3913 4.8802 32.1646 5.20265Z" fill="#FFC9DF"/>
<path d="M33.2502 3.17254C33.1662 3.14926 33.0777 3.14709 32.9926 3.16624C32.9075 3.1854 32.8285 3.22527 32.7626 3.28231C32.5972 3.44694 32.4909 3.66163 32.4604 3.8929C32.4101 4.08591 32.3802 4.28366 32.3712 4.48291C32.3693 4.59082 32.4015 4.69657 32.4631 4.78522C32.5247 4.87387 32.6127 4.94091 32.7145 4.97687C32.8189 5.00599 32.9297 5.00106 33.031 4.9628C33.1323 4.92454 33.2188 4.85496 33.2777 4.76419C33.3776 4.59055 33.4582 4.40651 33.5181 4.21535C33.6137 3.99997 33.6401 3.76028 33.5936 3.52929C33.5693 3.4466 33.5255 3.37099 33.4657 3.30888C33.4059 3.24677 33.332 3.2 33.2502 3.17254Z" fill="#FFC9DF"/>
<path d="M42.5903 5.16134C42.2375 5.22023 41.9041 5.36322 41.6184 5.57819C41.3327 5.79316 41.103 6.07377 40.9489 6.39624C39.8982 10.3479 38.4148 18.1209 42.8032 19.6508C46.237 20.8446 45.7151 15.7197 45.8249 13.7782C45.9692 11.2055 46.5117 7.93987 45.6738 6.31392C45.3265 5.84453 44.8503 5.48583 44.303 5.28127C43.7557 5.0767 43.1608 5.03505 42.5903 5.16134Z" fill="#A02C63"/>
<path d="M44.1289 4.68156C43.6841 4.5522 43.2154 4.52699 42.7592 4.6079C42.303 4.68881 41.8717 4.87365 41.4986 5.14807C38.8477 8.29707 33.0789 14.1148 36.0457 15.8986C39.1293 17.7921 40.7157 14.9518 41.8901 13.4013C43.0644 11.8508 45.9488 8.73615 45.8595 6.93182C45.8264 6.42774 45.6442 5.94483 45.3361 5.54425C45.0281 5.14366 44.6079 4.84342 44.1289 4.68156Z" fill="#FA67A5"/>
<path d="M44.1015 5.75882C43.607 4.8052 42.5014 5.33347 41.8901 5.85487C41.6283 6.0845 41.3827 6.33207 41.1553 6.59581C40.7913 6.96628 40.4205 7.33675 40.084 7.73466C39.3267 8.63075 38.638 9.58248 38.0237 10.5818C37.5017 11.4256 36.7463 12.3244 36.6158 13.326C36.5334 14.0121 36.6502 14.9863 37.5155 14.9726C38.2824 14.841 38.9767 14.4394 39.4727 13.8406C40.241 12.9899 40.9306 12.0714 41.533 11.0963C42.158 10.1633 42.7829 9.23712 43.4353 8.35211C43.8955 7.60431 44.541 6.60267 44.1015 5.75882Z" fill="#E089B3"/>
<path d="M40.681 7.66546C40.0123 8.14722 39.4665 8.77942 39.0878 9.51095C38.5608 10.1547 38.1769 10.9031 37.9615 11.7063C37.9065 12.0974 38.3735 12.5022 38.7306 12.2071C39.3045 11.6364 39.7947 10.9873 40.1866 10.2793C40.7295 9.66782 41.1701 8.97284 41.4914 8.22116C41.6288 7.70662 41.0382 7.47336 40.681 7.66546Z" fill="#FFC9DF"/>
<path d="M42.4952 6.23917C42.4273 6.18336 42.3462 6.14587 42.2596 6.13026C42.1731 6.11465 42.0839 6.12144 42.0008 6.14998C41.7841 6.23001 41.602 6.3828 41.4857 6.5822C41.3553 6.73583 41.2467 6.90666 41.1629 7.08988C41.1225 7.18346 41.1125 7.28733 41.1343 7.38689C41.1561 7.48644 41.2086 7.57665 41.2845 7.64483C41.3603 7.713 41.4556 7.7557 41.557 7.76691C41.6584 7.77812 41.7607 7.75728 41.8497 7.70733C42.0121 7.59071 42.1597 7.45479 42.2892 7.30256C42.4625 7.14759 42.5806 6.9405 42.6257 6.71255C42.6439 6.62899 42.6416 6.54225 42.6189 6.45979C42.5961 6.37734 42.5537 6.30163 42.4952 6.23917Z" fill="#FFC9DF"/>
<path d="M50.9685 10.4993C50.635 10.3615 50.2727 10.3076 49.9135 10.3422C49.5543 10.3769 49.209 10.4992 48.9082 10.6983C45.9482 13.5249 40.667 19.3838 43.5789 22.9787C45.8727 25.771 48.1184 21.1332 49.2241 19.5484C50.6869 17.4285 52.8227 14.9038 52.9807 13.0995C52.9334 12.518 52.7181 11.9627 52.3609 11.5011C52.0037 11.0395 51.5199 10.6915 50.9685 10.4993Z" fill="#A02C63"/>
<path d="M51.3533 10.5343C50.5122 10.2014 49.5803 10.1771 48.723 10.4657C45.4403 12.3111 38.1606 16.7431 40.4819 19.3295C42.913 21.9983 45.2274 19.7137 46.7863 18.5543C48.3453 17.3948 51.992 15.2063 52.404 13.4431C52.5963 12.6267 52.5071 11.0968 51.3533 10.5343Z" fill="#FA67A5"/>
<path d="M51.0508 11.7822C50.8448 10.7325 49.6292 10.9315 48.9013 11.2608C48.586 11.4056 48.2829 11.5754 47.9947 11.7685C47.5346 12.0292 47.0745 12.2762 46.6212 12.5643C45.6533 13.2133 44.7351 13.9334 43.8742 14.7185C43.1325 15.4046 42.1573 16.0426 41.7452 16.9825C41.4842 17.5862 41.3194 18.581 42.1504 18.8074C42.9347 18.8955 43.724 18.6929 44.3686 18.238C45.3443 17.6357 46.2637 16.9468 47.1157 16.1798C47.9741 15.4526 48.8326 14.7391 49.7185 14.0462C50.3366 13.4905 51.2362 12.7084 51.0508 11.7822Z" fill="#E089B3"/>
<path d="M47.2201 12.6468C46.4401 12.9297 45.7353 13.3873 45.1599 13.9846C44.4771 14.4564 43.9015 15.0665 43.4704 15.7752C43.3056 16.1388 43.6421 16.6534 44.0679 16.4613C44.7776 16.0681 45.4294 15.5787 46.0046 15.0068C46.7019 14.5675 47.3215 14.0158 47.8382 13.374C48.1198 12.9555 47.6185 12.5645 47.2201 12.6468Z" fill="#FFC9DF"/>
<path d="M49.356 11.7826C49.3075 11.7096 49.2409 11.6503 49.1627 11.6107C49.0845 11.571 48.9973 11.5522 48.9096 11.5562C48.678 11.5734 48.4595 11.6704 48.2916 11.8306C48.1248 11.9443 47.9726 12.0779 47.8383 12.2285C47.7625 12.3077 47.7157 12.4101 47.7053 12.5192C47.695 12.6282 47.7217 12.7376 47.7813 12.8296C47.8408 12.9216 47.9297 12.9909 48.0335 13.0262C48.1373 13.0615 48.25 13.0609 48.3534 13.0243C48.5406 12.9509 48.72 12.8589 48.889 12.7499C49.0813 12.6264 49.3011 12.5029 49.3766 12.2834C49.4156 12.2049 49.4341 12.1179 49.4305 12.0304C49.4269 11.9428 49.4013 11.8576 49.356 11.7826Z" fill="#FFC9DF"/>
<path d="M55.741 18.3548C55.4346 18.1662 55.0869 18.0552 54.7279 18.0313C54.3688 18.0073 54.0094 18.0713 53.6807 18.2176C50.3018 20.5365 43.9562 26.6836 46.2156 29.9766C48.2759 32.9541 51.2152 28.3987 52.5613 26.9991C54.3469 25.1399 56.8604 22.9926 57.3068 21.2294C57.3544 20.65 57.2316 20.0693 56.9535 19.5586C56.6753 19.0479 56.2539 18.6295 55.741 18.3548Z" fill="#A02C63"/>
<path d="M57.0683 19.0066C56.778 18.6451 56.4084 18.3549 55.9881 18.1587C55.5678 17.9624 55.1079 17.8652 54.644 17.8746C50.6608 18.938 43.2575 20.2004 43.9855 23.5758C44.8371 27.5618 48.3533 25.5036 50.2007 24.8861C52.0481 24.2687 56.2098 23.3905 57.1713 21.8606C57.4383 21.428 57.5709 20.926 57.5526 20.418C57.5343 19.9101 57.3658 19.419 57.0683 19.0066Z" fill="#FA67A5"/>
<path d="M56.4295 19.8711C56.5737 18.8077 55.3581 18.6019 54.5615 18.6842C54.216 18.7187 53.8738 18.7806 53.5382 18.8695C53.0232 18.9655 52.5081 19.0547 51.9999 19.185C50.8621 19.4789 49.7485 19.8597 48.6691 20.3239C47.7557 20.715 46.6088 21.01 45.9221 21.7783C45.4757 22.2654 45.0018 23.1504 45.716 23.6375C46.4294 23.9705 47.2395 24.0339 47.9961 23.8159C49.1145 23.5495 50.2063 23.1821 51.2582 22.7182C52.3089 22.3066 53.3185 21.9087 54.4104 21.5382C55.1933 21.2638 56.299 20.8179 56.4295 19.8711Z" fill="#E089B3"/>
<path d="M52.5288 19.4668C51.7026 19.4799 50.891 19.6867 50.1595 20.0705C49.3595 20.296 48.6155 20.6862 47.9756 21.2162C47.7078 21.5044 47.852 22.1081 48.319 22.0738C49.116 21.9289 49.8899 21.6774 50.6196 21.326C51.4212 21.1277 52.1861 20.8035 52.8859 20.3655C53.2774 20.0499 52.934 19.5148 52.5288 19.4668Z" fill="#FFC9DF"/>
<path d="M54.8282 19.3296C54.8042 19.2449 54.7598 19.1674 54.6987 19.1039C54.6376 19.0405 54.5618 18.9931 54.4779 18.966C54.2487 18.9071 54.0062 18.9289 53.7912 19.0277C53.597 19.0828 53.4103 19.1611 53.2349 19.261C53.1402 19.3135 53.0654 19.3957 53.0219 19.4948C52.9785 19.594 52.9689 19.7047 52.9945 19.8098C53.0237 19.9139 53.0855 20.006 53.1707 20.0726C53.2559 20.1393 53.3602 20.177 53.4684 20.1803C53.6676 20.1731 53.8655 20.1455 54.059 20.098C54.2891 20.0723 54.5041 19.9709 54.6702 19.8098C54.7346 19.7493 54.7829 19.6737 54.8104 19.5898C54.838 19.5059 54.8441 19.4164 54.8282 19.3296Z" fill="#FFC9DF"/>
<path d="M58.4887 27.6649C58.2749 27.3809 57.9964 27.1518 57.6764 26.9967C57.3563 26.8416 57.0038 26.7649 56.6482 26.773C52.6238 27.6512 44.4307 30.9923 45.2823 34.8616C46.0583 38.388 50.5085 35.2801 52.2872 34.4843C54.6428 33.4346 57.7813 32.3918 58.8527 30.9305C59.1177 30.4101 59.2244 29.8236 59.1597 29.2433C59.0951 28.663 58.8618 28.1144 58.4887 27.6649Z" fill="#A02C63"/>
<path d="M58.0004 36.5769C57.8917 36.2382 57.7024 35.9309 57.4489 35.6812C57.1953 35.4315 56.885 35.2469 56.5445 35.1431C52.472 34.6903 44.1004 35.3832 42.2942 39.87C40.9207 43.218 48.0218 41.2421 49.9516 41.0569C52.5269 40.8168 55.8302 40.8305 57.3205 39.7945C59.1748 38.5391 58.488 37.7501 58.0004 36.5769Z" fill="#A02C63"/>
<path d="M54.4984 44.7956C54.4806 44.44 54.377 44.0939 54.1965 43.7869C54.0159 43.4799 53.7637 43.2211 53.4614 43.0324C49.6499 41.53 41.3882 40.0206 38.4695 43.8831C36.2993 46.7646 43.6408 46.6891 45.5568 47.0184C48.1047 47.4575 51.2913 48.3356 52.9944 47.7045C55.1234 46.9567 54.677 46.0854 54.4984 44.7956Z" fill="#A02C63"/>
<path d="M48.3716 52.0056C48.475 51.6614 48.4883 51.2965 48.4101 50.9457C48.332 50.595 48.165 50.2701 47.9252 50.0023C44.6012 47.3747 36.7996 43.3407 32.5692 46.0849C29.4101 48.1431 36.8202 50.3865 38.6402 51.3058C41.0507 52.5064 43.9626 54.3176 45.8855 54.3176C48.2823 54.2558 48.1312 53.2611 48.3716 52.0056Z" fill="#A02C63"/>
<path d="M39.2589 57.3301C39.4836 57.0511 39.6331 56.7192 39.6932 56.3662C39.7533 56.0132 39.722 55.6506 39.6022 55.3131C37.542 51.6221 31.8144 44.9331 26.8628 45.8798C23.1681 46.5659 28.8888 51.629 30.2211 53.1657C31.9929 55.2239 34.2867 57.8446 36.086 58.5307C38.3043 59.3814 38.5721 58.4346 39.2589 57.3301Z" fill="#A02C63"/>
<path d="M27.3579 59.1204C27.6838 58.9994 27.9728 58.7962 28.1966 58.5304C28.4205 58.2647 28.5716 57.9456 28.6353 57.6042C28.5735 53.6182 26.7879 45.5227 21.9943 44.0683C18.4094 42.9775 20.6208 49.9478 21.0741 51.8139C21.6441 54.2974 22.6467 57.3984 23.9997 58.6744C25.4625 60.026 26.211 59.6623 27.3579 59.1204Z" fill="#A02C63"/>
<path d="M17.9696 56.9178C18.3164 56.9106 18.6555 56.814 18.9539 56.6373C19.2523 56.4605 19.4999 56.2098 19.6727 55.9093C20.9226 52.1154 21.9047 43.8896 17.8528 40.9395C14.8242 38.7373 14.6388 46.0506 14.419 47.9579C14.1443 50.4894 14.0756 53.7482 14.9341 55.3947C15.8681 57.1785 16.7128 57.0618 17.9696 56.9178Z" fill="#A02C63"/>
<path d="M9.36496 51.1619C10.1822 51.3746 10.3608 50.9355 10.7385 50.5307C13.3413 47.5121 17.3863 40.2399 14.7629 36.0069C12.8056 32.8168 9.84569 39.5058 8.92543 41.1866C7.703 43.43 6.39816 46.4075 6.56298 48.2599C6.7072 50.2632 8.14253 50.8394 9.36496 51.1619Z" fill="#A02C63"/>
<path d="M3.54696 43.1832C4.35733 43.4371 4.28866 43.0117 4.75565 42.7647C8.29247 40.9055 14.7068 35.6503 13.8484 30.7244C13.1959 27.0403 7.99029 32.1789 6.51376 33.4069C4.55649 35.0466 2.50995 37.4821 1.98114 39.259C1.3974 41.1868 2.24211 42.7784 3.54696 43.1832Z" fill="#A02C63"/>
<path d="M1.06249 34.6278C1.74925 35.0943 1.8454 33.9761 2.36733 33.8732C6.2956 33.0979 13.9324 29.894 14.5367 24.9201C14.9625 21.2017 8.77481 25.4827 6.98236 26.2374C4.64051 27.2527 1.74238 28.8101 0.725976 30.3537C-0.365972 32.0482 -0.0775331 33.8663 1.06249 34.6278Z" fill="#A02C63"/>
<path d="M0.944744 24.9205C1.42548 25.6065 2.04356 24.6117 2.5655 24.7078C6.49377 25.3938 14.9272 24.8313 17.3102 20.4131C19.0683 17.1063 11.775 18.9929 9.85202 19.041C7.30414 19.1301 4.05577 19.3977 2.5449 20.4748C0.910408 21.6617 0.161838 23.7953 0.944744 24.9205Z" fill="#A02C63"/>
<path d="M5.77247 14.7801C6.00596 15.5897 6.10211 15.3907 6.56911 15.6446C10.0716 17.5587 17.9693 20.0147 21.6298 16.5845C24.3768 14.0049 16.2181 12.6534 14.3776 12.1045C11.9327 11.3842 8.48517 10.9245 6.82321 11.7546C5.30547 12.4681 5.38788 13.4698 5.77247 14.7801Z" fill="#A02C63"/>
<path d="M13.1629 6.65699C13.053 7.49398 13.4582 7.34305 13.781 7.7684C16.219 10.9311 22.4891 16.3578 27.2003 14.6633C30.7234 13.4009 24.7692 9.14051 23.3064 7.89875C21.3628 6.25222 18.6089 4.64685 16.7684 4.43417C14.7631 4.23521 13.3346 5.2986 13.1629 6.65699Z" fill="#A02C63"/>
<path d="M59.218 28.1517C59.0436 27.7235 58.7735 27.3407 58.4283 27.0327C58.0831 26.7248 57.672 26.4997 57.2264 26.3748C53.1058 26.2376 45.6545 25.2977 45.3729 28.7417C45.0433 32.7689 48.999 31.8221 50.9425 31.7947C52.8861 31.7672 57.1234 32.1034 58.4969 30.9165C58.8779 30.579 59.1499 30.1359 59.2783 29.6436C59.4067 29.1514 59.3857 28.6321 59.218 28.1517Z" fill="#FA67A5"/>
<path d="M58.3529 28.797C58.7924 27.8159 57.6661 27.2739 56.9107 27.1161C56.5682 27.0528 56.2217 27.0139 55.8737 26.9995C55.3517 26.9446 54.8367 26.876 54.3079 26.8555C53.1342 26.8132 51.959 26.8568 50.7917 26.9858C49.8027 27.0956 48.6284 27.0613 47.7493 27.5827C47.1793 27.9188 46.4651 28.6323 47.0076 29.3047C47.5932 29.8299 48.3497 30.1248 49.1366 30.1348C50.2822 30.2003 51.4313 30.1635 52.5704 30.025C53.6898 29.9427 54.8023 29.8604 55.9286 29.8123C56.7665 29.7712 57.9546 29.6614 58.3529 28.797Z" fill="#E089B3"/>
<path d="M54.7386 27.2802C53.947 27.0604 53.1157 27.0229 52.3075 27.1704C51.4778 27.1539 50.6539 27.3129 49.8901 27.637C49.5467 27.8359 49.5124 28.4534 49.9656 28.5563C50.7723 28.6465 51.5874 28.6304 52.3899 28.5082C53.2067 28.5515 54.0252 28.4635 54.8141 28.2475C55.288 28.0554 55.1095 27.4449 54.7386 27.2802Z" fill="#FFC9DF"/>
<path d="M56.9712 27.8224C56.9746 27.7359 56.9555 27.6499 56.9158 27.573C56.8761 27.496 56.8171 27.4307 56.7445 27.3833C56.5396 27.2566 56.2958 27.2079 56.0578 27.2461C55.855 27.2436 55.6525 27.262 55.4534 27.301C55.3488 27.3269 55.2552 27.3855 55.186 27.4681C55.1169 27.5507 55.0759 27.6532 55.0688 27.7606C55.064 27.8683 55.0952 27.9746 55.1573 28.0627C55.2194 28.1509 55.3091 28.216 55.4122 28.2477C55.6051 28.3008 55.8031 28.333 56.0028 28.3438C56.2362 28.3847 56.4765 28.3511 56.6896 28.2477C56.7691 28.2069 56.8367 28.1463 56.886 28.0718C56.9353 27.9973 56.9646 27.9114 56.9712 27.8224Z" fill="#FFC9DF"/>
<path d="M58.7558 37.07C58.6864 36.613 58.5129 36.1779 58.2485 35.7985C57.9842 35.4191 57.6361 35.1053 57.2312 34.8815C53.2549 33.7975 46.2431 31.1699 45.1443 34.4562C43.8944 38.2981 47.9668 38.2912 49.8623 38.7097C51.7578 39.1282 55.8028 40.4317 57.4167 39.5947C57.8641 39.3525 58.2299 38.9837 58.4681 38.5345C58.7064 38.0853 58.8065 37.5758 58.7558 37.07Z" fill="#FA67A5"/>
<path d="M57.7604 37.4956C58.4471 36.6449 57.4719 35.8627 56.7508 35.5334C56.4239 35.3889 56.0864 35.2696 55.7413 35.1767C55.2468 34.9983 54.7592 34.8199 54.251 34.6759C53.125 34.3623 51.9773 34.133 50.8172 33.9898C49.8283 33.8663 48.6951 33.5645 47.713 33.8663C47.0812 34.0653 46.2228 34.5935 46.5936 35.3688C47.0421 36.0166 47.7108 36.4798 48.4754 36.6723C49.5782 37.004 50.7092 37.2337 51.8542 37.3583C52.9668 37.5299 54.0656 37.7151 55.1713 37.9209C56.0022 38.0787 57.1835 38.2502 57.7604 37.4956Z" fill="#E089B3"/>
<path d="M54.5946 35.191C53.8758 34.7829 53.0715 34.548 52.2459 34.5049C51.441 34.3066 50.6036 34.2786 49.7873 34.4226C49.6918 34.447 49.6056 34.4989 49.5395 34.572C49.4734 34.6451 49.4304 34.7359 49.4157 34.8333C49.4011 34.9307 49.4155 35.0302 49.4571 35.1194C49.4988 35.2087 49.5658 35.2837 49.6499 35.335C50.4135 35.6089 51.2104 35.7797 52.0192 35.8427C52.808 36.0741 53.6287 36.1783 54.4504 36.1514C54.9517 36.0691 54.9242 35.4379 54.5946 35.191Z" fill="#FFC9DF"/>
<path d="M56.6477 36.2335C56.6701 36.149 56.6711 36.0603 56.6508 35.9753C56.6304 35.8903 56.5892 35.8116 56.5309 35.7464C56.3645 35.587 56.1492 35.4879 55.9197 35.4651C55.7245 35.4142 55.5239 35.3866 55.3222 35.3828C55.2134 35.3823 55.1074 35.4167 55.0196 35.4809C54.9318 35.5451 54.867 35.6358 54.8346 35.7396C54.8073 35.8442 54.8146 35.9549 54.8554 36.0551C54.8963 36.1552 54.9685 36.2395 55.0613 36.2953C55.235 36.3917 55.4194 36.4677 55.6107 36.5217C55.8271 36.6149 56.0678 36.6365 56.2974 36.5834C56.3808 36.5598 56.4568 36.5152 56.5181 36.454C56.5794 36.3927 56.624 36.3168 56.6477 36.2335Z" fill="#FFC9DF"/>
<path d="M54.9528 45.6185C55.0096 45.1595 54.9599 44.6937 54.8075 44.2571C54.655 43.8204 54.404 43.4247 54.0738 43.1006C50.537 40.9876 44.4592 36.5694 42.55 39.444C40.3111 42.8125 44.2325 43.8965 45.9494 44.8089C47.6663 45.7214 51.21 48.0677 52.9956 47.6903C53.4906 47.5777 53.941 47.3205 54.2895 46.9516C54.638 46.5827 54.8689 46.1187 54.9528 45.6185Z" fill="#FA67A5"/>
<path d="M53.8803 45.7629C54.7456 45.1248 54.0452 44.1095 53.4339 43.6018C53.1685 43.3769 52.8861 43.1728 52.5892 42.9912C52.1566 42.6893 51.7376 42.3875 51.2844 42.113C50.2799 41.5061 49.2307 40.9763 48.1459 40.5283C47.2256 40.1441 46.2161 39.5472 45.1928 39.5815C44.5061 39.5815 43.5583 39.8834 43.7094 40.7272C43.9689 41.4719 44.4915 42.0963 45.1791 42.4835C46.1505 43.0908 47.1758 43.6075 48.242 44.0271C49.2653 44.4937 50.3023 44.9602 51.2844 45.461C52.0261 45.852 53.118 46.3323 53.8803 45.7629Z" fill="#E089B3"/>
<path d="M51.4568 42.6958C50.8783 42.1151 50.1731 41.676 49.3965 41.4129C48.6767 41.0019 47.8792 40.7449 47.0546 40.6582C46.6563 40.6582 46.3679 41.1933 46.6769 41.5021C47.3286 41.9769 48.0397 42.3643 48.7921 42.6546C49.4912 43.0909 50.2566 43.4106 51.0584 43.6014C51.5598 43.6357 51.704 43.0182 51.4568 42.6958Z" fill="#FFC9DF"/>
<path d="M53.1522 44.2537C53.1942 44.1769 53.2163 44.0908 53.2163 44.0033C53.2163 43.9158 53.1942 43.8296 53.1522 43.7529C53.0331 43.5659 52.8575 43.4218 52.6508 43.3412C52.4767 43.2438 52.2925 43.1656 52.1014 43.108C51.9972 43.0766 51.8855 43.0804 51.7837 43.1188C51.6819 43.1573 51.5956 43.2282 51.5383 43.3207C51.4837 43.4138 51.4603 43.5219 51.4714 43.6292C51.4826 43.7365 51.5276 43.8375 51.6001 43.9175C51.7443 44.0556 51.9032 44.1775 52.0739 44.2811C52.2538 44.4259 52.475 44.51 52.7058 44.5213C52.7967 44.5176 52.8852 44.4912 52.9632 44.4445C53.0412 44.3977 53.1062 44.3321 53.1522 44.2537Z" fill="#FFC9DF"/>
<path d="M48.8733 52.829C49.0457 52.4066 49.1199 51.9506 49.0901 51.4954C49.0604 51.0402 48.9275 50.5978 48.7016 50.2014C45.8378 47.2445 41.1472 41.3856 38.5376 43.6633C35.4952 46.3252 38.9908 48.4039 40.4124 49.728C41.834 51.0521 44.6291 54.2491 46.4422 54.3451C46.9523 54.3624 47.4561 54.2273 47.8891 53.9573C48.3221 53.6872 48.6648 53.2944 48.8733 52.829Z" fill="#FA67A5"/>
<path d="M47.8176 52.6915C48.8203 52.2936 48.4082 51.141 47.955 50.4824C47.7457 50.1987 47.5162 49.9304 47.2682 49.6797C46.9317 49.275 46.5814 48.8702 46.2449 48.486C45.4324 47.6399 44.5578 46.8556 43.6284 46.1397C42.8455 45.5222 42.0214 44.6853 41.0256 44.4451C40.38 44.2942 39.3705 44.3079 39.2949 45.1312C39.3531 45.9101 39.6923 46.6414 40.2495 47.1894C41.0242 48.0379 41.8747 48.8141 42.7905 49.5082C43.6627 50.2286 44.5143 50.9421 45.359 51.6899C46.0046 52.2936 46.9317 53.0414 47.8176 52.6915Z" fill="#E089B3"/>
<path d="M46.2783 49.0897C45.8654 48.3754 45.2917 47.7671 44.6026 47.3128C44.0198 46.7161 43.3178 46.2486 42.5423 45.9407C42.1577 45.8447 41.7045 46.2632 41.9586 46.6268C42.4723 47.2528 43.0683 47.8066 43.7304 48.2733C44.2898 48.8779 44.9439 49.3877 45.6671 49.7826C46.1272 50.0296 46.4362 49.467 46.2783 49.0897Z" fill="#FFC9DF"/>
<path d="M47.501 51.0381C47.5636 50.9766 47.6095 50.9003 47.6347 50.8164C47.6599 50.7325 47.6636 50.6435 47.6453 50.5578C47.5871 50.3347 47.4537 50.1384 47.2676 50.0021C47.1252 49.858 46.9661 49.7313 46.7937 49.6248C46.7008 49.5692 46.5924 49.5452 46.4847 49.5564C46.377 49.5675 46.2758 49.6132 46.1962 49.6865C46.1207 49.7626 46.0708 49.8604 46.0536 49.9662C46.0363 50.0719 46.0526 50.1804 46.1001 50.2765C46.2038 50.4471 46.3258 50.6058 46.464 50.7499C46.6002 50.9375 46.7927 51.0768 47.0135 51.1478C47.0975 51.1711 47.186 51.1733 47.2711 51.1541C47.3561 51.135 47.4351 51.0951 47.501 51.0381Z" fill="#FFC9DF"/>
<path d="M39.2596 58.1459C39.5847 57.8165 39.83 57.417 39.9764 56.9781C40.1228 56.5393 40.1666 56.0727 40.1043 55.6143C38.5934 51.7861 36.4851 44.5825 33.2367 45.6871C29.4046 46.9906 31.8632 50.2425 32.6461 52.0125C33.429 53.7825 34.8162 57.796 36.4507 58.5781C36.9091 58.792 37.4208 58.8651 37.9209 58.7881C38.4209 58.7112 38.8868 58.4877 39.2596 58.1459Z" fill="#FA67A5"/>
<path d="M38.3529 57.6111C39.4243 57.6111 39.4861 56.4037 39.3212 55.6216C39.2435 55.2834 39.1426 54.951 39.0191 54.6268C38.8611 54.126 38.7169 53.6251 38.5246 53.138C38.1012 52.0418 37.5938 50.9798 37.0069 49.9616C36.5193 49.0972 36.0797 48.0132 35.2488 47.4095C34.72 47.0253 33.7722 46.648 33.3808 47.4095C33.1261 48.1552 33.1554 48.9686 33.4632 49.694C33.8551 50.7745 34.3447 51.817 34.926 52.8087C35.4571 53.7967 35.9699 54.7937 36.4643 55.7999C36.8214 56.5477 37.3983 57.5905 38.3529 57.6111Z" fill="#E089B3"/>
<path d="M38.3045 53.7006C38.1984 52.882 37.9021 52.0997 37.4392 51.416C37.1297 50.6419 36.6619 49.9409 36.0656 49.3578C35.7497 49.1177 35.166 49.3578 35.2553 49.7901C35.4854 50.5671 35.8229 51.3083 36.2579 51.9923C36.5466 52.7637 36.957 53.4841 37.4735 54.1259C37.81 54.5101 38.3045 54.1053 38.3045 53.7006Z" fill="#FFC9DF"/>
<path d="M38.6975 55.964C38.7793 55.9312 38.8512 55.8781 38.9065 55.8096C38.9618 55.7411 38.9987 55.6596 39.0135 55.5729C39.0499 55.3352 39.0012 55.0923 38.8761 54.8869C38.8019 54.7018 38.705 54.5267 38.5877 54.3655C38.5243 54.2785 38.4342 54.2145 38.3311 54.1833C38.2281 54.1521 38.1176 54.1554 38.0166 54.1927C37.9155 54.23 37.8294 54.2992 37.7714 54.3898C37.7133 54.4804 37.6864 54.5875 37.6949 54.6948C37.725 54.8938 37.7756 55.0893 37.846 55.2779C37.9016 55.5027 38.0265 55.7042 38.2031 55.8542C38.2697 55.9124 38.3499 55.9529 38.4363 55.9721C38.5227 55.9913 38.6125 55.9885 38.6975 55.964Z" fill="#FFC9DF"/>
<path d="M26.5965 59.7168C27.0507 59.6218 27.4768 59.4231 27.8414 59.1363C28.2059 58.8494 28.4991 58.4822 28.698 58.0634C29.5496 54.0362 31.7609 46.8669 28.4164 45.9888C24.5019 44.9734 24.7491 49.028 24.4401 50.9421C24.131 52.8562 23.0666 56.9725 24.0006 58.4887C24.2609 58.9291 24.6473 59.2815 25.11 59.5004C25.5727 59.7193 26.0905 59.7947 26.5965 59.7168Z" fill="#FA67A5"/>
<path d="M26.1158 58.7494C27.0017 59.36 27.7297 58.3652 28.0181 57.6243C28.1443 57.3015 28.2431 56.9688 28.3134 56.6295C28.4645 56.1287 28.6156 55.6279 28.7255 55.1133C28.9745 53.9679 29.1352 52.805 29.2062 51.635C29.2749 50.6402 29.5084 49.4876 29.1444 48.534C28.9109 47.9166 28.334 47.0865 27.5786 47.5049C26.9567 47.9898 26.534 48.6853 26.3905 49.4602C26.1244 50.5868 25.9589 51.7347 25.896 52.8905C25.793 54.0088 25.6762 55.1202 25.532 56.2384C25.4221 57.0617 25.326 58.2143 26.1158 58.7494Z" fill="#E089B3"/>
<path d="M28.2308 55.4636C28.5913 54.7197 28.7746 53.9026 28.7665 53.0761C28.9214 52.2632 28.9073 51.4273 28.7253 50.62C28.5879 50.2427 27.9836 50.1055 27.805 50.5308C27.5725 51.3153 27.4478 52.1277 27.4342 52.9458C27.2458 53.7477 27.1901 54.5751 27.2693 55.395C27.3723 55.8684 28.0042 55.7998 28.2308 55.4636Z" fill="#FFC9DF"/>
<path d="M27.3096 57.5701C27.3949 57.5876 27.4833 57.5829 27.5663 57.5565C27.6492 57.53 27.724 57.4827 27.7834 57.4191C27.9354 57.2451 28.0249 57.0254 28.0375 56.7948C28.0754 56.5959 28.0892 56.3932 28.0787 56.1911C28.0743 56.0839 28.035 55.981 27.9669 55.8981C27.8987 55.8152 27.8054 55.7567 27.701 55.7314C27.5944 55.7104 27.4837 55.7236 27.3851 55.7692C27.2864 55.8148 27.2047 55.8904 27.1516 55.9853C27.0713 56.1669 27.007 56.3551 26.9593 56.5478C26.886 56.7706 26.886 57.0111 26.9593 57.2339C26.9861 57.3141 27.0319 57.3866 27.0929 57.4451C27.1539 57.5037 27.2283 57.5466 27.3096 57.5701Z" fill="#FFC9DF"/>
<path d="M17.2014 57.1929C17.6628 57.2312 18.1268 57.1632 18.5577 56.9943C18.9887 56.8255 19.3752 56.5601 19.6875 56.2187C21.6722 52.6101 25.8683 46.3944 22.929 44.5558C19.4952 42.4427 18.5337 46.4013 17.6821 48.1439C16.8306 49.8864 14.6123 53.5088 15.0587 55.272C15.1838 55.7689 15.4545 56.2173 15.8363 56.5595C16.218 56.9017 16.6934 57.1223 17.2014 57.1929Z" fill="#FA67A5"/>
<path d="M17.016 56.1293C17.7027 56.9663 18.6711 56.2254 19.1655 55.6011C19.3797 55.3281 19.5726 55.0391 19.7424 54.7367C20.024 54.2976 20.3193 53.8585 20.5734 53.4057C21.1453 52.3772 21.6366 51.306 22.0431 50.2018C22.4002 49.2756 22.9565 48.2397 22.8878 47.2175C22.8466 46.5314 22.5307 45.5984 21.686 45.7836C20.9519 46.0679 20.3465 46.6092 19.9828 47.3067C19.4029 48.2991 18.9134 49.3415 18.52 50.4214C18.0942 51.4642 17.6615 52.4795 17.1945 53.5155C16.858 54.277 16.4185 55.3884 17.016 56.1293Z" fill="#E089B3"/>
<path d="M20.03 53.5901C20.5882 52.9824 20.9994 52.2548 21.2319 51.4634C21.6231 50.7332 21.8571 49.9293 21.9186 49.1033C21.9186 48.7054 21.3555 48.4173 21.0602 48.7534C20.6134 49.4302 20.26 50.164 20.0094 50.9351C19.5991 51.6473 19.3069 52.4211 19.1441 53.2265C19.0617 53.7342 19.6867 53.8508 20.03 53.5901Z" fill="#FFC9DF"/>
<path d="M18.5061 55.3401C18.5823 55.384 18.6687 55.4071 18.7567 55.4071C18.8447 55.4071 18.9312 55.384 19.0074 55.3401C19.2016 55.2181 19.3491 55.0344 19.4263 54.8187C19.5166 54.6382 19.5902 54.4499 19.6461 54.2561C19.6721 54.1512 19.6629 54.0406 19.6199 53.9414C19.577 53.8422 19.5026 53.7598 19.4083 53.7069C19.314 53.6539 19.2049 53.6334 19.0978 53.6483C18.9906 53.6632 18.8913 53.7129 18.8151 53.7896C18.6825 53.9375 18.5652 54.0984 18.4649 54.2698C18.3257 54.456 18.251 54.6823 18.252 54.9147C18.2544 55.0014 18.2791 55.086 18.3236 55.1604C18.368 55.2349 18.4309 55.2967 18.5061 55.3401Z" fill="#FFC9DF"/>
<path d="M8.15555 50.9765C8.55849 51.2038 9.00829 51.3357 9.47029 51.3618C9.93228 51.388 10.3941 51.3078 10.8202 51.1275C14.1304 48.6783 20.5516 44.7746 18.6561 41.9069C16.4104 38.5452 13.8969 41.7422 12.3997 42.9771C10.9026 44.212 7.33144 46.5789 6.98119 48.3627C6.89639 48.8655 6.96269 49.3822 7.17171 49.8475C7.38073 50.3127 7.7231 50.7056 8.15555 50.9765Z" fill="#FA67A5"/>
<path d="M8.43045 49.9338C8.69828 50.9766 9.90011 50.7159 10.6075 50.3523C10.9169 50.1931 11.2131 50.0096 11.4934 49.8034C11.9329 49.5222 12.3793 49.2477 12.8051 48.939C13.7532 48.2449 14.6464 47.4788 15.4766 46.6476C16.1634 45.9615 17.1248 45.2755 17.4888 44.2875C17.7223 43.6701 17.8391 42.6685 16.9943 42.4832C16.2068 42.4364 15.4294 42.6806 14.8104 43.1693C13.8672 43.8305 12.9868 44.5769 12.1802 45.399C11.356 46.1673 10.5319 46.922 9.68722 47.6629C9.04166 48.1843 8.20382 49.0076 8.43045 49.9338Z" fill="#E089B3"/>
<path d="M12.209 48.8704C12.9683 48.5577 13.6452 48.0741 14.1868 47.4572C14.8445 46.9533 15.3896 46.3177 15.787 45.5911C15.9312 45.2206 15.5741 44.7198 15.1552 44.905C14.4648 45.3319 13.8363 45.8512 13.2872 46.4487C12.621 46.9194 12.0325 47.4912 11.5428 48.1432C11.2956 48.6097 11.79 48.9734 12.209 48.8704Z" fill="#FFC9DF"/>
<path d="M10.1131 49.8379C10.1665 49.9075 10.2368 49.9623 10.3173 49.9971C10.3978 50.0319 10.4859 50.0456 10.5732 50.0368C10.8032 50.008 11.0165 49.9015 11.1776 49.735C11.336 49.6133 11.479 49.4728 11.6034 49.3165C11.6696 49.2311 11.7056 49.1261 11.7056 49.0181C11.7056 48.91 11.6696 48.805 11.6034 48.7196C11.5399 48.6331 11.4499 48.5695 11.3471 48.5386C11.2443 48.5076 11.1341 48.511 11.0334 48.5481C10.85 48.6288 10.6751 48.7276 10.5114 48.8431C10.3052 48.9515 10.141 49.1252 10.0444 49.3371C10.0143 49.4198 10.0048 49.5087 10.0167 49.596C10.0287 49.6832 10.0618 49.7663 10.1131 49.8379Z" fill="#FFC9DF"/>
<path d="M2.71112 43.0661C3.05087 43.3789 3.4576 43.6101 3.90033 43.7421C4.34306 43.8741 4.8101 43.9033 5.26587 43.8277C9.04305 42.2017 16.1991 39.9103 14.9835 36.6447C13.5688 32.8576 10.3891 35.396 8.64473 36.2536C6.90036 37.1112 2.91715 38.5931 2.17545 40.2533C1.9748 40.7223 1.9186 41.2403 2.01401 41.7413C2.10942 42.2423 2.35212 42.7036 2.71112 43.0661Z" fill="#FA67A5"/>
<path d="M3.21889 42.1125C3.21889 43.1896 4.46192 43.2102 5.23796 43.0181C5.57539 42.9332 5.90596 42.8231 6.2269 42.6888C6.72136 42.5172 7.21583 42.3526 7.69656 42.1536C8.77975 41.6961 9.82663 41.1571 10.8282 40.5414C11.6729 40.02 12.7511 39.5535 13.328 38.7028C13.6988 38.1608 14.0148 37.2072 13.2662 36.8367C12.5131 36.6082 11.7025 36.6619 10.9861 36.9876C9.91731 37.409 8.88968 37.9281 7.91633 38.5381C6.93426 39.0938 5.95906 39.6427 4.96326 40.1641C4.23529 40.5551 3.20515 41.1589 3.21889 42.1125Z" fill="#E089B3"/>
<path d="M7.13292 41.9686C7.94867 41.8289 8.72022 41.4999 9.38549 41.0081C10.1434 40.67 10.8219 40.1769 11.3771 39.5605C11.6037 39.2312 11.3771 38.6618 10.917 38.7578C10.1489 39.0191 9.41914 39.3813 8.7468 39.8349C7.98179 40.1439 7.27206 40.5748 6.64532 41.111C6.29507 41.4815 6.72086 41.9686 7.13292 41.9686Z" fill="#FFC9DF"/>
<path d="M4.87362 42.4081C4.90834 42.4884 4.96326 42.5585 5.03305 42.6113C5.10285 42.6642 5.18514 42.6982 5.27194 42.71C5.51232 42.7397 5.75547 42.6838 5.9587 42.5522C6.14067 42.4702 6.31334 42.369 6.47377 42.2503C6.55829 42.1822 6.61907 42.0891 6.64744 41.9843C6.67581 41.8796 6.67031 41.7686 6.63173 41.6672C6.58818 41.5684 6.51384 41.4863 6.41978 41.4331C6.32573 41.3799 6.217 41.3586 6.10979 41.3721C5.91206 41.4058 5.71861 41.461 5.53291 41.5368C5.30925 41.5984 5.11164 41.7308 4.96977 41.9141C4.91275 41.9814 4.87396 42.0621 4.85713 42.1486C4.84029 42.2351 4.84597 42.3244 4.87362 42.4081Z" fill="#FFC9DF"/>
<path d="M0.354954 34.0104C0.597542 34.4041 0.927434 34.7369 1.31918 34.9832C1.71093 35.2294 2.15406 35.3824 2.61439 35.4305C6.69375 34.8816 14.2 34.5661 13.9047 31.1221C13.5614 27.0949 9.81851 28.6866 7.90245 29.0639C5.98639 29.4412 1.76281 29.7842 0.609054 31.1838C0.293067 31.5777 0.100417 32.056 0.0552188 32.5588C0.0100204 33.0616 0.114283 33.5665 0.354954 34.0104Z" fill="#FA67A5"/>
<path d="M1.10327 33.2286C0.828568 34.2714 2.00293 34.6008 2.79957 34.6419C3.14825 34.6532 3.49727 34.6371 3.84344 34.5939C4.36538 34.5939 4.88732 34.539 5.40926 34.4704C6.5698 34.3302 7.71779 34.1008 8.84306 33.7843C9.79765 33.5168 10.9583 33.3521 11.7412 32.6867C12.2494 32.2613 12.8331 31.438 12.1876 30.8686C11.5224 30.4477 10.7262 30.2843 9.94874 30.409C8.80396 30.5348 7.67301 30.7644 6.56988 31.095C5.47793 31.3694 4.39285 31.637 3.29404 31.8702C2.49739 32.0006 1.34364 32.3093 1.10327 33.2286Z" fill="#E089B3"/>
<path d="M4.92271 34.1197C5.74276 34.2099 6.57258 34.1089 7.34698 33.8247C8.16844 33.7018 8.95472 33.4073 9.65449 32.9602C9.96353 32.7064 9.88799 32.0958 9.42786 32.0684C8.61624 32.1074 7.8141 32.2598 7.0448 32.5212C6.22579 32.6228 5.42826 32.8544 4.68235 33.2072C4.23595 33.4473 4.51753 34.0236 4.92271 34.1197Z" fill="#FFC9DF"/>
<path d="M2.62173 33.9561C2.63303 34.0438 2.66677 34.1271 2.7197 34.198C2.77263 34.2689 2.84296 34.325 2.9239 34.3609C3.14599 34.4399 3.38858 34.4399 3.61066 34.3609C3.80947 34.3358 4.0037 34.2827 4.18754 34.2031C4.28985 34.165 4.37643 34.0938 4.4334 34.0008C4.49038 33.9078 4.51447 33.7983 4.5018 33.69C4.48914 33.5817 4.44046 33.4808 4.36356 33.4034C4.28666 33.326 4.18599 33.2766 4.07766 33.2632C3.87923 33.2391 3.67861 33.2391 3.48018 33.2632C3.24618 33.2597 3.01732 33.3319 2.82776 33.469C2.75306 33.5244 2.69457 33.5989 2.65835 33.6845C2.62212 33.7701 2.60948 33.8639 2.62173 33.9561Z" fill="#FFC9DF"/>
<path d="M0.650616 23.857C0.758433 24.3072 0.96798 24.7267 1.2632 25.0834C1.55842 25.4402 1.93148 25.7247 2.35378 25.9152C6.40567 26.6561 13.6373 28.6594 14.427 25.3183C15.3473 21.3803 11.2954 21.7302 9.3656 21.4764C7.43581 21.2225 3.30151 20.2621 1.77003 21.2294C1.34384 21.5073 1.0099 21.9054 0.810598 22.3732C0.611294 22.8411 0.555612 23.3575 0.650616 23.857Z" fill="#FA67A5"/>
<path d="M1.59792 23.3487C1.01417 24.2543 2.02371 24.954 2.77914 25.2216C3.10605 25.3379 3.44121 25.4296 3.78181 25.496C4.29002 25.6264 4.79135 25.7636 5.30642 25.8665C6.46273 26.0825 7.63338 26.2132 8.8089 26.2575C9.79783 26.2575 10.9585 26.5045 11.9062 26.1135C12.5174 25.8665 13.3346 25.2628 12.8951 24.5218C12.3926 23.9134 11.6838 23.5105 10.9035 23.3898C9.77419 23.1474 8.6245 23.0119 7.46971 22.9851C6.34343 22.9027 5.23088 22.8204 4.11146 22.7038C3.30795 22.6146 2.11985 22.5528 1.59792 23.3487Z" fill="#E089B3"/>
<path d="M4.92136 25.3796C5.6732 25.7195 6.49341 25.8815 7.31815 25.853C8.13634 25.9889 8.97397 25.9515 9.77676 25.7432C9.87306 25.7152 9.95874 25.659 10.0227 25.5818C10.0867 25.5047 10.126 25.4101 10.1357 25.3104C10.1453 25.2106 10.1247 25.1103 10.0767 25.0224C10.0286 24.9344 9.95522 24.8629 9.86604 24.8171C9.08229 24.607 8.27383 24.5031 7.46237 24.5083C6.65578 24.3442 5.82817 24.3095 5.01064 24.4054C4.51617 24.5358 4.60545 25.1669 4.92136 25.3796Z" fill="#FFC9DF"/>
<path d="M2.81441 24.5153C2.79922 24.6017 2.80638 24.6906 2.83523 24.7734C2.86408 24.8563 2.91365 24.9304 2.97924 24.9887C3.15851 25.1336 3.38053 25.2156 3.61106 25.2219C3.81197 25.2426 4.01449 25.2426 4.2154 25.2219C4.32252 25.2149 4.42434 25.1728 4.50505 25.1021C4.58576 25.0314 4.64086 24.9361 4.6618 24.8309C4.6807 24.7246 4.66567 24.6151 4.61883 24.5179C4.572 24.4206 4.49574 24.3405 4.40083 24.2889C4.21476 24.2158 4.02135 24.1629 3.82395 24.1311C3.60177 24.0526 3.35937 24.0526 3.13719 24.1311C3.05573 24.1634 2.98359 24.2154 2.92725 24.2825C2.87091 24.3496 2.83213 24.4296 2.81441 24.5153Z" fill="#FFC9DF"/>
<path d="M5.12641 13.8407C5.05477 14.2981 5.08869 14.7658 5.22557 15.2081C5.36244 15.6504 5.59865 16.0557 5.91618 16.3929C9.38432 18.6157 15.2973 23.2534 17.3095 20.4337C19.6651 17.1475 15.7781 15.9263 14.0955 14.9453C12.4129 13.9642 8.95166 11.515 7.16608 11.8306C6.66354 11.9227 6.20033 12.1637 5.8366 12.5221C5.47288 12.8806 5.22543 13.34 5.12641 13.8407Z" fill="#FA67A5"/>
<path d="M6.19918 13.7104C5.31326 14.321 5.98628 15.3569 6.57689 15.8921C6.83526 16.1229 7.11075 16.3339 7.40101 16.5232C7.81993 16.8388 8.23198 17.1613 8.67151 17.4494C9.66613 18.0907 10.7085 18.6549 11.7894 19.1371C12.6959 19.5556 13.6849 20.1868 14.7081 20.1868C15.3949 20.1868 16.3564 19.9467 16.2259 19.0891C16.0017 18.3414 15.5137 17.7003 14.8524 17.2848C13.8843 16.6351 12.8591 16.0748 11.7894 15.6108C10.7799 15.11 9.78406 14.6091 8.79513 14.074C8.06029 13.683 6.98208 13.1547 6.19918 13.7104Z" fill="#E089B3"/>
<path d="M8.51992 16.8655C9.08982 17.4775 9.79548 17.9475 10.5802 18.2376C11.2849 18.6746 12.0732 18.9597 12.8946 19.0746C13.2998 19.0746 13.6363 18.5669 13.3066 18.2445C12.6603 17.7544 11.9512 17.3529 11.1983 17.0507C10.5155 16.5883 9.76156 16.2406 8.96631 16.0216C8.45124 15.8982 8.28642 16.5293 8.51992 16.8655Z" fill="#FFC9DF"/>
<path d="M6.87859 15.2474C6.83651 15.3241 6.81445 15.4103 6.81445 15.4978C6.81445 15.5853 6.83651 15.6714 6.87859 15.7482C6.98744 15.9522 7.1615 16.114 7.37305 16.2078C7.5466 16.3118 7.73079 16.3969 7.92246 16.4617C8.02439 16.4963 8.1349 16.4962 8.23677 16.4614C8.33863 16.4267 8.42613 16.3592 8.48561 16.2696C8.54504 16.1793 8.57319 16.072 8.56575 15.9642C8.55831 15.8564 8.51568 15.754 8.4444 15.6727C8.30529 15.5285 8.15103 15.3997 7.98427 15.2885C7.80939 15.1368 7.59026 15.0454 7.35932 15.0278C7.26717 15.0211 7.17481 15.0377 7.09079 15.0761C7.00676 15.1144 6.93378 15.1733 6.87859 15.2474Z" fill="#FFC9DF"/>
<path d="M13.7601 5.34015C13.4696 5.69986 13.2648 6.12091 13.1613 6.5714C13.0578 7.0219 13.0582 7.49001 13.1626 7.9403C14.9894 11.6176 17.7296 18.6428 20.8887 17.2089C24.5903 15.5761 21.8708 12.5506 20.8887 10.8629C19.9066 9.1752 18.2172 5.29212 16.514 4.68839C16.0414 4.51654 15.5288 4.48668 15.0394 4.6025C14.55 4.71832 14.1053 4.97475 13.7601 5.34015Z" fill="#FA67A5"/>
<path d="M14.7355 5.79343C13.6642 5.86889 13.7122 7.09693 13.9526 7.85159C14.0575 8.1828 14.186 8.50608 14.3372 8.81893C14.5363 9.30603 14.7286 9.79313 14.9621 10.2597C15.4833 11.3114 16.0824 12.3227 16.7546 13.2852C17.3246 14.1016 17.8534 15.1444 18.7325 15.6726C19.3025 16.0088 20.2708 16.2969 20.6004 15.5011C20.7811 14.7342 20.6787 13.9279 20.312 13.2303C19.8215 12.1909 19.24 11.1969 18.5745 10.2597C17.9633 9.31975 17.3589 8.37986 16.7752 7.41938C16.3494 6.71274 15.6901 5.72482 14.7355 5.79343Z" fill="#E089B3"/>
<path d="M15.1327 9.72433C15.3141 10.5281 15.6783 11.2793 16.1972 11.9197C16.5826 12.6541 17.1157 13.301 17.763 13.8201C18.1064 14.0259 18.6627 13.7583 18.5391 13.3124C18.2357 12.5614 17.8314 11.8551 17.3372 11.2131C16.9919 10.4687 16.5281 9.78522 15.9637 9.18921C15.5448 8.83246 15.0984 9.2784 15.1327 9.72433Z" fill="#FFC9DF"/>
<path d="M14.5364 7.45978C14.4586 7.50105 14.3923 7.56083 14.3431 7.63382C14.294 7.70681 14.2637 7.79078 14.2548 7.87827C14.2453 8.10863 14.3129 8.33557 14.4471 8.52317C14.5409 8.69957 14.6538 8.8652 14.7836 9.01713C14.8559 9.09804 14.9523 9.15369 15.0586 9.17592C15.1649 9.19814 15.2755 9.18577 15.3742 9.14062C15.4706 9.09209 15.5487 9.01381 15.5969 8.9174C15.6452 8.82099 15.661 8.71161 15.642 8.60549C15.5921 8.41255 15.5255 8.22431 15.4429 8.04293C15.3655 7.82565 15.2243 7.63675 15.0377 7.50094C14.9637 7.45416 14.8794 7.42598 14.7921 7.41881C14.7048 7.41165 14.617 7.4257 14.5364 7.45978Z" fill="#FFC9DF"/>
<path d="M22.688 1.49122C22.2974 1.74446 21.9703 2.08409 21.7322 2.48381C21.494 2.88353 21.3511 3.33263 21.3145 3.79636C22.0012 7.85782 22.5987 15.3358 26.0325 14.9173C30.05 14.4302 28.3263 10.7461 27.9005 8.8526C27.4747 6.95908 26.9871 2.72612 25.5243 1.62157C25.1163 1.32454 24.63 1.15382 24.1257 1.13065C23.6215 1.10747 23.1215 1.23286 22.688 1.49122Z" fill="#FA67A5"/>
<path d="M23.4634 2.17782C22.4195 1.9377 22.0898 3.13143 22.0898 3.92726C22.0926 4.27437 22.1224 4.62073 22.1791 4.9632C22.2341 5.4846 22.2753 6.00601 22.3577 6.52055C22.549 7.68364 22.8291 8.83042 23.1955 9.95083C23.4977 10.9044 23.7037 12.057 24.3974 12.8117C24.8438 13.2988 25.6885 13.8613 26.231 13.189C26.6284 12.5104 26.7651 11.7106 26.6156 10.9387C26.4502 9.80132 26.1836 8.68089 25.819 7.5908C25.503 6.51369 25.2009 5.43658 24.9262 4.34575C24.7682 3.54993 24.4248 2.39735 23.4634 2.17782Z" fill="#E089B3"/>
<path d="M22.7371 6.02676C22.6763 6.85063 22.8079 7.67735 23.1217 8.44168C23.2788 9.25542 23.6014 10.0283 24.0694 10.7125C24.3373 11.0075 24.9485 10.9115 24.9554 10.4518C24.8859 9.64434 24.7057 8.85023 24.4197 8.09179C24.299 7.27872 24.0461 6.49081 23.6711 5.7592C23.3895 5.33384 22.8264 5.60827 22.7371 6.02676Z" fill="#FFC9DF"/>
<path d="M22.8192 3.72799C22.7332 3.74259 22.6524 3.77939 22.585 3.83474C22.5175 3.89009 22.4657 3.96207 22.4346 4.04357C22.3577 4.2658 22.3577 4.5074 22.4346 4.72963C22.4735 4.92615 22.5357 5.11731 22.6201 5.29905C22.6625 5.39868 22.737 5.48133 22.8317 5.53396C22.9264 5.58659 23.036 5.60619 23.1431 5.58966C23.2502 5.57314 23.3488 5.52144 23.4232 5.44272C23.4976 5.364 23.5437 5.26276 23.5541 5.15498C23.5747 4.95656 23.5747 4.75653 23.5541 4.55811C23.5492 4.32546 23.467 4.10103 23.3206 3.92008C23.2618 3.84627 23.1843 3.78952 23.0961 3.75574C23.008 3.72196 22.9124 3.71238 22.8192 3.72799Z" fill="#FFC9DF"/>
</g>
<defs>
<clipPath id="clip0_1145_1030">
<rect width="59.2949" height="58.7607" fill="white" transform="translate(0.0390625 0.969727)"/>
</clipPath>
</defs>
</svg>
